<svg width="25" height="22" viewBox="0 0 25 22" fill="none" xmlns="http://www.w3.org/2000/svg">
<path d="M5.17654 6.8947L5.17651 6.89467C4.58785 6.39318 4.58785 5.5864 5.17651 5.0849C5.76956 4.57965 6.73044 4.57965 7.32349 5.0849L12.7922 9.74381C13.3809 10.2453 13.3809 11.0521 12.7922 11.5536L7.32349 16.2125C6.73044 16.7177 5.76956 16.7177 5.17651 16.2125C4.58785 15.711 4.58785 14.9042 5.17651 14.4027L5.17654 14.4027L7.97439 12.0151L8.06989 11.9336L7.94434 11.9336L0.0636242 11.9329C0.0651582 11.9217 0.06651 11.9094 0.0677234 11.8963C0.0730656 11.8387 0.0763977 11.7567 0.0783245 11.6577C0.0821852 11.4593 0.0804672 11.1883 0.0770523 10.8972C0.0754941 10.7644 0.0735845 10.6274 0.0716848 10.4911C0.0656014 10.0548 0.0596202 9.62573 0.0656106 9.36384H7.94434H8.06991L7.97439 9.28232L5.17654 6.8947Z" fill="#0070CC" stroke="black" stroke-width="0.0925926"/>
</svg>
