<svg width="45" height="45" viewBox="0 0 45 45" fill="none" xmlns="http://www.w3.org/2000/svg">
<path d="M9.8999 3.60001H34.1999V22.5L33.2999 23.4L22.4999 30.6L11.2499 22.95L9.8999 21.6V3.60001Z" fill="#FFFF00"/>
<path d="M2.10938 18.0492V39.143C2.10938 39.8889 2.40569 40.6043 2.93314 41.1317C3.46058 41.6591 4.17595 41.9555 4.92188 41.9555H40.0781C40.824 41.9555 41.5394 41.6591 42.0669 41.1317C42.5943 40.6043 42.8906 39.8889 42.8906 39.143V18.0492" stroke="#222222" stroke-width="3" stroke-linecap="round" stroke-linejoin="round"/>
<path d="M10.1953 14.3719C7.36815 15.2353 4.65376 16.432 2.10938 17.9367L20.9039 30.8953C21.3733 31.2188 21.9299 31.3921 22.5 31.3921C23.0701 31.3921 23.6267 31.2188 24.0961 30.8953L42.8906 17.9367C40.3462 16.432 37.6318 15.2353 34.8047 14.3719" stroke="#222222" stroke-width="3" stroke-linecap="round" stroke-linejoin="round"/>
<path d="M10.1953 23.5125V5.13281C10.1953 4.57337 10.4175 4.03684 10.8131 3.64126C11.2087 3.24567 11.7452 3.02344 12.3047 3.02344H32.6953C33.2548 3.02344 33.7913 3.24567 34.1869 3.64126C34.5824 4.03684 34.8047 4.57337 34.8047 5.13281V23.5055L24.0961 30.8953C23.6267 31.2188 23.0701 31.3921 22.5 31.3921C21.9299 31.3921 21.3733 31.2188 20.9039 30.8953L10.2023 23.5125" stroke="#222222" stroke-width="3" stroke-linecap="round" stroke-linejoin="round"/>
<path d="M29.1797 9.27423H15.8203" stroke="#222222" stroke-width="3" stroke-linecap="round" stroke-linejoin="round"/>
<path d="M22.5 20.1094H15.8203" stroke="#222222" stroke-width="3" stroke-linecap="round" stroke-linejoin="round"/>
<path d="M29.1797 14.6953H15.8203" stroke="#222222" stroke-width="3" stroke-linecap="round" stroke-linejoin="round"/>
<path d="M17.7049 28.7016L3.0166 41.2172" stroke="#222222" stroke-width="3" stroke-linecap="round" stroke-linejoin="round"/>
<path d="M27.2603 28.7016L41.9907 41.2172" stroke="#222222" stroke-width="3" stroke-linecap="round" stroke-linejoin="round"/>
</svg>
