<svg width="32" height="32" viewBox="0 0 32 32" fill="none" xmlns="http://www.w3.org/2000/svg">
<path d="M16.9999 20.4992H4.99988C4.73466 20.4992 4.48031 20.6046 4.29277 20.7921C4.10523 20.9796 3.99988 21.234 3.99988 21.4992C3.99988 21.7644 4.10523 22.0188 4.29277 22.2063C4.48031 22.3939 4.73466 22.4992 4.99988 22.4992H16.9999C17.2651 22.4992 17.5194 22.3939 17.707 22.2063C17.8945 22.0188 17.9999 21.7644 17.9999 21.4992C17.9999 21.234 17.8945 20.9796 17.707 20.7921C17.5194 20.6046 17.2651 20.4992 16.9999 20.4992Z" fill="#495340"/>
<path d="M26.9999 20.4992H21.9999V18.4992C21.9999 18.234 21.8945 17.9796 21.707 17.7921C21.5194 17.6046 21.2651 17.4992 20.9999 17.4992C20.7347 17.4992 20.4803 17.6046 20.2928 17.7921C20.1052 17.9796 19.9999 18.234 19.9999 18.4992V24.4992C19.9999 24.7644 20.1052 25.0188 20.2928 25.2063C20.4803 25.3939 20.7347 25.4992 20.9999 25.4992C21.2651 25.4992 21.5194 25.3939 21.707 25.2063C21.8945 25.0188 21.9999 24.7644 21.9999 24.4992V22.4992H26.9999C27.2651 22.4992 27.5194 22.3939 27.707 22.2063C27.8945 22.0188 27.9999 21.7644 27.9999 21.4992C27.9999 21.234 27.8945 20.9796 27.707 20.7921C27.5194 20.6046 27.2651 20.4992 26.9999 20.4992Z" fill="#495340"/>
<path d="M4.99988 11.4991L8.99988 11.4992C9.26509 11.4992 9.51945 11.3939 9.70698 11.2063C9.89452 11.0188 9.99988 10.7644 9.99988 10.4992C9.99988 10.234 9.89452 9.97964 9.70698 9.7921C9.51945 9.60457 9.26509 9.49921 8.99988 9.49921L4.99988 9.49908C4.73466 9.49908 4.48031 9.60444 4.29277 9.79198C4.10523 9.97951 3.99988 10.2339 3.99988 10.4991C3.99988 10.7643 4.10523 11.0187 4.29277 11.2062C4.48031 11.3937 4.73466 11.4991 4.99988 11.4991Z" fill="#495340"/>
<path d="M13 14C13.2652 14 13.5196 13.8946 13.7071 13.7071C13.8946 13.5196 14 13.2652 14 13V11L27 10.9999C27.2652 10.9999 27.5196 10.8945 27.7071 10.707C27.8946 10.5194 28 10.2651 28 9.99988C28 9.73466 27.8946 9.4803 27.7071 9.29277C27.5196 9.10523 27.2652 8.99988 27 8.99988L14 9V7C14 6.73478 13.8946 6.48043 13.7071 6.29289C13.5196 6.10536 13.2652 6 13 6C12.7348 6 12.4804 6.10536 12.2929 6.29289C12.1054 6.48043 12 6.73478 12 7V13C12 13.2652 12.1054 13.5196 12.2929 13.7071C12.4804 13.8946 12.7348 14 13 14Z" fill="#495340"/>
</svg>
