<svg width="601" height="163" viewBox="0 0 601 163" fill="none" xmlns="http://www.w3.org/2000/svg">
<path d="M421.677 81.5C421.677 126.511 385.188 163 340.177 163C295.166 163 258.677 126.511 258.677 81.5C258.677 36.4888 295.166 0 340.177 0C385.188 0 421.677 36.4888 421.677 81.5Z" fill="black"/>
<g filter="url(#filter0_b_33_180)">
<path d="M14.7429 82.041C15.9645 79.0115 17.2227 76.0308 18.5176 73.099C19.8125 70.1427 21.0829 67.1621 22.3289 64.1569H24.1247L31.7107 82.0044C32.9567 79.0237 34.2028 76.0552 35.4488 73.099C36.6948 70.1427 37.9286 67.1621 39.1502 64.1569H41.7155C40.2252 67.7973 38.7349 71.401 37.2445 74.968C35.7542 78.535 34.2638 82.1387 32.7735 85.7791H30.9045L23.2451 67.895L15.5125 85.7791H13.7167C12.2508 82.1387 10.7727 78.535 9.28237 74.968C7.79203 71.3765 6.28948 67.7728 4.77471 64.1569H7.34004L14.7429 82.041ZM12.3974 87.8313H16.9417C17.9679 85.3393 18.994 82.8839 20.0201 80.4651C21.0707 78.022 22.1335 75.5666 23.2085 73.099L29.5119 87.8313H34.0928L44.7206 62.1047H37.7942C36.7925 64.5479 35.7786 66.9788 34.7525 69.3976C33.7508 71.7919 32.7369 74.2106 31.7107 76.6538L25.4806 62.1047H21.0096L14.7429 76.7271L8.65936 62.1047H1.7696L12.3974 87.8313ZM9.24572 61.1885L12.8372 64.9632L15.7324 71.9995C16.5142 70.1916 17.296 68.3959 18.0778 66.6123C18.8596 64.8288 19.6414 63.0209 20.4233 61.1885H26.1036L29.6951 64.9632L32.6636 71.9995L33.1033 70.9734C33.2499 70.6314 33.4087 70.2649 33.5798 69.874C33.7752 69.4586 33.934 69.0799 34.0562 68.7379C34.5937 67.4919 35.1312 66.2214 35.6687 64.9265C36.2062 63.6072 36.7192 62.3612 37.2079 61.1885H46.0766L49.5581 64.9632L38.2707 92.3023H32.6269L28.8889 88.7475L25.7372 81.418C24.9553 83.2504 24.1735 85.0828 23.3917 86.9151C22.6099 88.7231 21.8525 90.5188 21.1196 92.3023H15.5491L11.8111 88.7475L0.413638 61.1885H9.24572ZM78.6203 76.0674H58.1709V85.7791H55.9354V64.1569H58.1709V73.8686H78.6203V64.1569H80.8924V85.7791H78.6203V76.0674ZM82.9447 62.1047H76.568V71.853H60.2232V62.1047H53.8831V87.8313H60.2232V78.0831H76.568V87.8313H82.9447V62.1047ZM64.6942 70.9368H75.6518V61.1885H83.8609L87.4157 64.9632V92.3023H79.4265L75.6518 88.7475V82.5541H64.6942V92.3023H56.7416L52.9669 88.7475V61.1885H61.1394L64.6942 64.9632V70.9368ZM112.093 83.5436C113.51 83.5436 114.829 83.397 116.051 83.1038C117.297 82.7862 118.372 82.2975 119.276 81.6379C120.204 80.9538 120.925 80.0742 121.438 78.9992C121.951 77.8998 122.207 76.5561 122.207 74.968C122.207 73.4044 121.939 72.0728 121.401 70.9734C120.888 69.874 120.18 68.9944 119.276 68.3348C118.372 67.6507 117.297 67.1621 116.051 66.8689C114.829 66.5513 113.51 66.3925 112.093 66.3925H108.061C106.62 66.3925 105.276 66.5513 104.03 66.8689C102.809 67.1621 101.746 67.6507 100.842 68.3348C99.9379 68.9944 99.2172 69.874 98.6797 70.9734C98.1666 72.0728 97.9101 73.4044 97.9101 74.968C97.9101 76.5561 98.1666 77.8998 98.6797 78.9992C99.2172 80.0742 99.9379 80.9538 100.842 81.6379C101.746 82.322 102.809 82.8106 104.03 83.1038C105.276 83.397 106.62 83.5436 108.061 83.5436H112.093ZM108.061 81.4913C106.962 81.4913 105.924 81.3813 104.946 81.1615C103.969 80.9416 103.114 80.5873 102.381 80.0987C101.648 79.5856 101.062 78.9137 100.622 78.0831C100.182 77.2524 99.9624 76.214 99.9624 74.968C99.9624 73.7464 100.182 72.7203 100.622 71.8896C101.062 71.0589 101.648 70.387 102.381 69.874C103.138 69.3609 104.006 68.9944 104.983 68.7746C105.96 68.5547 106.986 68.4447 108.061 68.4447H112.093C113.168 68.4447 114.194 68.5547 115.171 68.7746C116.148 68.9944 117.004 69.3609 117.736 69.874C118.469 70.387 119.056 71.0589 119.496 71.8896C119.935 72.7203 120.155 73.7464 120.155 74.968C120.155 76.1896 119.935 77.2157 119.496 78.0464C119.08 78.8771 118.506 79.549 117.773 80.062C117.04 80.5751 116.185 80.9416 115.208 81.1615C114.231 81.3813 113.192 81.4913 112.093 81.4913H108.061ZM95.6013 74.968C95.6013 72.989 95.9067 71.3155 96.5175 69.9473C97.1527 68.5791 98.02 67.4675 99.1195 66.6123C100.243 65.7328 101.563 65.1098 103.077 64.7433C104.617 64.3524 106.278 64.1569 108.061 64.1569H112.093C113.876 64.1569 115.525 64.3524 117.04 64.7433C118.555 65.1342 119.862 65.7572 120.961 66.6123C122.085 67.4675 122.953 68.5791 123.563 69.9473C124.199 71.3155 124.516 72.989 124.516 74.968C124.516 76.947 124.199 78.6206 123.563 79.9887C122.953 81.3569 122.085 82.4686 120.961 83.3237C119.862 84.1788 118.555 84.8018 117.04 85.1927C115.525 85.5836 113.876 85.7791 112.093 85.7791H108.061C106.278 85.7791 104.617 85.5958 103.077 85.2293C101.563 84.8384 100.243 84.2154 99.1195 83.3603C98.02 82.4808 97.1527 81.3569 96.5175 79.9887C95.9067 78.6206 95.6013 76.947 95.6013 74.968ZM93.549 74.968C93.549 77.289 93.9033 79.268 94.6118 80.9049C95.3448 82.5174 96.3465 83.8367 97.6169 84.8629C98.9118 85.889 100.439 86.6464 102.198 87.135C103.981 87.5992 105.936 87.8313 108.061 87.8313H112.093C114.218 87.8313 116.161 87.5992 117.92 87.135C119.679 86.6464 121.194 85.889 122.464 84.8629C123.759 83.8367 124.761 82.5174 125.469 80.9049C126.178 79.268 126.532 77.289 126.532 74.968C126.532 72.647 126.178 70.6802 125.469 69.0677C124.761 67.4308 123.759 66.0993 122.464 65.0731C121.194 64.047 119.679 63.3018 117.92 62.8376C116.161 62.349 114.218 62.1047 112.093 62.1047H108.061C105.936 62.1047 103.981 62.349 102.198 62.8376C100.439 63.3018 98.9118 64.047 97.6169 65.0731C96.3465 66.0993 95.3448 67.4308 94.6118 69.0677C93.9033 70.6802 93.549 72.647 93.549 74.968ZM92.6328 74.968C92.6328 72.476 93.0115 70.3626 93.7689 68.628C94.5263 66.8689 95.5891 65.4396 96.9573 64.3402C98.3254 63.2408 99.9502 62.4467 101.831 61.9581C103.737 61.445 105.814 61.1885 108.061 61.1885H112.093C113.51 61.1885 114.841 61.274 116.087 61.445C117.358 61.5916 118.604 61.9214 119.825 62.4345C121.047 62.9231 122.256 63.6317 123.454 64.5601C124.675 65.464 125.933 66.6856 127.228 68.2248C128.328 69.3243 129.232 70.778 129.94 72.5859C130.649 74.3939 131.003 76.4095 131.003 78.6328C131.003 81.1004 130.624 83.2015 129.867 84.9362C129.134 86.6708 128.083 88.0756 126.715 89.1506C125.371 90.2501 123.759 91.0441 121.878 91.5327C120.021 92.0458 117.981 92.3023 115.758 92.3023H111.726C109.234 92.3023 106.913 92.0214 104.763 91.4594C102.613 90.8975 100.842 89.9325 99.4493 88.5643C98.0567 87.3427 96.9206 86.1944 96.0411 85.1194C95.1615 84.02 94.4652 82.9328 93.9522 81.8578C93.4635 80.7828 93.1215 79.6833 92.926 78.5595C92.7306 77.4356 92.6328 76.2385 92.6328 74.968ZM112.093 80.5751C113.046 80.5751 113.95 80.4896 114.805 80.3186C115.684 80.1231 116.454 79.8055 117.113 79.3657C117.773 78.9259 118.286 78.3518 118.653 77.6433C119.044 76.9103 119.239 76.0186 119.239 74.968C119.239 74.3816 119.166 73.8441 119.019 73.3555C118.017 73.0623 116.93 72.9157 115.758 72.9157H111.726C110.749 72.9157 109.821 73.0135 108.941 73.2089C108.061 73.4044 107.28 73.722 106.596 74.1618C105.936 74.6015 105.411 75.1879 105.02 75.9208C104.629 76.6538 104.433 77.5578 104.433 78.6328C104.433 79.2191 104.482 79.7078 104.58 80.0987C105.093 80.2697 105.643 80.3919 106.229 80.4651C106.815 80.5384 107.426 80.5751 108.061 80.5751H112.093ZM170.603 82.041C171.824 79.0115 173.083 76.0308 174.377 73.099C175.672 70.1427 176.943 67.1621 178.189 64.1569H179.984L187.571 82.0044C188.817 79.0237 190.063 76.0552 191.309 73.099C192.555 70.1427 193.788 67.1621 195.01 64.1569H197.575C196.085 67.7973 194.595 71.401 193.104 74.968C191.614 78.535 190.124 82.1387 188.633 85.7791H186.764L179.105 67.895L171.372 85.7791H169.577C168.111 82.1387 166.633 78.535 165.142 74.968C163.652 71.3765 162.149 67.7728 160.635 64.1569H163.2L170.603 82.041ZM168.257 87.8313H172.802C173.828 85.3393 174.854 82.8839 175.88 80.4651C176.931 78.022 177.993 75.5666 179.068 73.099L185.372 87.8313H189.953L200.58 62.1047H193.654C192.652 64.5479 191.638 66.9788 190.612 69.3976C189.611 71.7919 188.597 74.2106 187.571 76.6538L181.34 62.1047H176.869L170.603 76.7271L164.519 62.1047H157.629L168.257 87.8313ZM165.106 61.1885L168.697 64.9632L171.592 71.9995C172.374 70.1916 173.156 68.3959 173.938 66.6123C174.719 64.8288 175.501 63.0209 176.283 61.1885H181.963L185.555 64.9632L188.523 71.9995L188.963 70.9734C189.11 70.6314 189.269 70.2649 189.44 69.874C189.635 69.4586 189.794 69.0799 189.916 68.7379C190.454 67.4919 190.991 66.2214 191.529 64.9265C192.066 63.6072 192.579 62.3612 193.068 61.1885H201.936L205.418 64.9632L194.13 92.3023H188.487L184.749 88.7475L181.597 81.418C180.815 83.2504 180.033 85.0828 179.252 86.9151C178.47 88.7231 177.712 90.5188 176.979 92.3023H171.409L167.671 88.7475L156.273 61.1885H165.106ZM232.684 73.8686V76.0674H214.031V83.5436H236.496V85.7791H211.759V64.1569H236.459V66.3925H214.031V73.8686H232.684ZM238.511 68.4447V62.1047H209.706V87.8313H238.548V81.4913H216.046V78.0831H234.7V71.853H216.046V68.4447H238.511ZM208.79 88.7475V61.1885H239.428L242.982 64.9632V72.9157H237.375L239.171 74.7115V80.5751L243.019 84.3498V92.3023H212.565L208.79 88.7475Z" fill="black"/>
<path d="M298.354 77.8265L290.621 66.8689L282.706 77.8265H298.354ZM294.396 75.8475H286.627L290.548 70.3504L294.396 75.8475ZM303.815 85.7791L299.857 80.0987H281.13C280.446 81.0271 279.774 81.9799 279.114 82.9572C278.479 83.91 277.819 84.8507 277.135 85.7791H274.203C276.793 82.1387 279.371 78.535 281.936 74.968C284.526 71.401 287.103 67.7973 289.669 64.1569H291.428L306.563 85.7791H303.815ZM288.679 62.1047L270.355 87.8313H278.125L282.156 82.1509H298.721L302.715 87.8313H310.484L292.527 62.1047H288.679ZM296.632 64.9632L315.688 92.3023H305.94L302.239 88.7475L300.736 86.622H286.26C285.967 87.0617 285.637 87.5259 285.271 88.0146C284.929 88.5032 284.575 88.9918 284.208 89.4805C283.866 89.9935 283.524 90.4822 283.182 90.9464C282.84 91.435 282.522 91.887 282.229 92.3023H272.444L268.56 88.7475L288.203 61.1885H293.004L296.632 64.9632ZM337.518 68.4447C337.811 68.4447 338.116 68.4692 338.434 68.518C338.751 68.5669 339.045 68.6524 339.313 68.7746C339.582 68.8967 339.802 69.0677 339.973 69.2876C340.168 69.5075 340.266 69.8007 340.266 70.1672C340.266 70.5092 340.168 70.7902 339.973 71.0101C339.777 71.2299 339.533 71.401 339.24 71.5231C338.971 71.6453 338.666 71.7308 338.324 71.7797C338.006 71.8285 337.725 71.853 337.481 71.853H323.921V68.4447H337.518ZM337.481 73.8686C338.067 73.8686 338.641 73.8075 339.203 73.6853C339.79 73.5387 340.315 73.3189 340.779 73.0257C341.243 72.7325 341.61 72.3538 341.879 71.8896C342.172 71.401 342.318 70.8268 342.318 70.1672C342.318 69.4831 342.184 68.8967 341.915 68.4081C341.647 67.9194 341.28 67.5285 340.816 67.2353C340.376 66.9422 339.863 66.7345 339.277 66.6123C338.715 66.4657 338.128 66.3925 337.518 66.3925H321.906V73.8686H337.481ZM340.816 75.5177C340.474 75.7132 340.095 75.8598 339.68 75.9575C339.264 76.0552 338.874 76.1529 338.507 76.2507C339.875 77.8632 341.243 79.4512 342.612 81.0149C344.004 82.5785 345.397 84.1666 346.789 85.7791H343.821L335.355 76.0674H321.906V85.7791H319.633V64.1569H337.518C338.519 64.1569 339.448 64.2669 340.303 64.4868C341.182 64.7067 341.927 65.0609 342.538 65.5496C343.173 66.0382 343.662 66.6612 344.004 67.4186C344.371 68.176 344.554 69.0922 344.554 70.1672C344.554 71.5109 344.248 72.6226 343.638 73.5021C343.027 74.3572 342.098 75.0291 340.852 75.5177H340.816ZM346.606 70.1672C346.606 68.7746 346.386 67.5774 345.946 66.5757C345.507 65.5496 344.884 64.7067 344.077 64.047C343.271 63.3873 342.306 62.8987 341.182 62.5811C340.083 62.2635 338.861 62.1047 337.518 62.1047H317.655V87.8313H323.921V78.0831H334.402L342.831 87.8313H351.26L342.025 77.2402C345.079 75.8964 346.606 73.5387 346.606 70.1672ZM316.738 88.7475V61.1885H337.518C338.47 61.1885 339.387 61.2618 340.266 61.4084C341.146 61.5305 342.025 61.7993 342.905 62.2146C343.809 62.63 344.737 63.2285 345.69 64.0104C346.667 64.7922 347.706 65.8305 348.805 67.1254C349.514 67.8339 350.063 68.7868 350.454 69.9839C350.869 71.1566 351.077 72.4393 351.077 73.8319C351.077 75.4444 350.723 76.8737 350.014 78.1197C349.33 79.3657 348.329 80.3796 347.009 81.1615C347.767 82.041 348.561 82.9572 349.391 83.91C350.222 84.8629 351.053 85.8279 351.883 86.8052C352.714 87.758 353.533 88.6987 354.339 89.6271C355.169 90.5799 355.951 91.4717 356.684 92.3023H346.13L342.428 88.7475L337.078 82.5541H328.392V92.3023H320.513L316.738 88.7475ZM382.568 73.8686V76.0674H363.914V83.5436H386.379V85.7791H361.642V64.1569H386.342V66.3925H363.914V73.8686H382.568ZM388.394 68.4447V62.1047H359.589V87.8313H388.431V81.4913H365.929V78.0831H384.583V71.853H365.929V68.4447H388.394ZM358.673 88.7475V61.1885H389.311L392.865 64.9632V72.9157H387.258L389.054 74.7115V80.5751L392.902 84.3498V92.3023H362.448L358.673 88.7475ZM399.584 86.5853V84.4964H401.856V86.5853H399.584ZM403.872 88.6009V82.4808H397.569V88.6009H403.872ZM396.653 89.5171V81.5646H404.788L408.343 85.3393V93.0719H400.427L396.653 89.5171Z" fill="#FFFF00"/>
</g>
<defs>
<filter id="filter0_b_33_180" x="-2.9086" y="57.8662" width="414.574" height="38.528" filterUnits="userSpaceOnUse" color-interpolation-filters="sRGB">
<feFlood flood-opacity="0" result="BackgroundImageFix"/>
<feGaussianBlur in="BackgroundImageFix" stdDeviation="1.66112"/>
<feComposite in2="SourceAlpha" operator="in" result="effect1_backgroundBlur_33_180"/>
<feBlend mode="normal" in="SourceGraphic" in2="effect1_backgroundBlur_33_180" result="shape"/>
</filter>
</defs>
</svg>
