<svg width="190" height="47" viewBox="0 0 190 47" fill="none" xmlns="http://www.w3.org/2000/svg">
<g filter="url(#filter0_d_33_232)">
<path d="M0 18.0447C0 8.07891 8.07891 0 18.0447 0H156.955C166.921 0 175 8.07891 175 18.0447C175 28.0106 166.921 36.0895 156.955 36.0895H18.0447C8.07891 36.0895 0 28.0106 0 18.0447Z" fill="black" shape-rendering="crispEdges"/>
<path d="M158.72 18.439L144.342 10.3876C144.101 10.2522 143.823 10.1938 143.547 10.2202C143.271 10.2467 143.01 10.3568 142.798 10.5357C142.586 10.7147 142.434 10.954 142.362 11.2218C142.29 11.4895 142.301 11.7728 142.395 12.0339L144.863 18.9463H151.277C151.458 18.9463 151.631 19.0181 151.758 19.1458C151.886 19.2735 151.958 19.4467 151.958 19.6273C151.958 19.8079 151.886 19.9811 151.758 20.1088C151.631 20.2365 151.458 20.3082 151.277 20.3082H144.863L142.395 27.2206C142.322 27.4261 142.299 27.6461 142.328 27.8621C142.358 28.0782 142.439 28.284 142.564 28.4624C142.689 28.6408 142.856 28.7866 143.049 28.8876C143.242 28.9886 143.457 29.0418 143.675 29.0428C143.909 29.0424 144.139 28.9818 144.343 28.8669L158.72 20.8156C158.931 20.6973 159.107 20.5248 159.229 20.316C159.352 20.1071 159.416 19.8694 159.416 19.6273C159.416 19.3852 159.352 19.1475 159.229 18.9386C159.107 18.7297 158.931 18.5573 158.72 18.439Z" fill="#FFFF00"/>
<mask id="path-3-outside-1_33_232" maskUnits="userSpaceOnUse" x="30" y="9" width="93" height="20" fill="black">
<rect fill="white" x="30" y="9" width="93" height="20"/>
<path d="M36.0472 27.7494C35.3622 27.7494 34.6953 27.5931 34.0464 27.2807C33.3974 26.9682 32.8927 26.5597 32.5322 26.0549V25.2258C32.8446 25.8026 33.3313 26.2833 33.9923 26.6678C34.6652 27.0524 35.3502 27.2446 36.0472 27.2446C37.2009 27.2446 38.0901 26.9021 38.715 26.2172C39.3399 25.5442 39.6524 24.5528 39.6524 23.2429V22.0352C39.3279 22.6841 38.8172 23.2129 38.1202 23.6215C37.4352 24.018 36.7142 24.2163 35.9571 24.2163C35.188 24.2163 34.473 24.024 33.812 23.6395C33.1511 23.2549 32.6283 22.7382 32.2438 22.0893C31.8592 21.4283 31.667 20.7193 31.667 19.9622C31.667 19.2052 31.8592 18.5021 32.2438 17.8532C32.6283 17.1923 33.1511 16.6695 33.812 16.285C34.473 15.9004 35.188 15.7082 35.9571 15.7082C36.7502 15.7082 37.4833 15.9064 38.1562 16.303C38.8292 16.6996 39.3279 17.2343 39.6524 17.9073V15.8884H40.2292V23.2429C40.2292 24.721 39.8687 25.8386 39.1476 26.5957C38.4386 27.3648 37.4051 27.7494 36.0472 27.7494ZM35.9931 23.7116C36.6541 23.7116 37.267 23.5433 37.8318 23.2069C38.3966 22.8584 38.8412 22.4017 39.1657 21.8369C39.5021 21.2601 39.6704 20.6352 39.6704 19.9622C39.6704 19.2893 39.5021 18.6704 39.1657 18.1056C38.8412 17.5288 38.3966 17.0721 37.8318 16.7356C37.267 16.3871 36.6541 16.2129 35.9931 16.2129C35.3202 16.2129 34.6953 16.3871 34.1185 16.7356C33.5536 17.0721 33.097 17.5288 32.7485 18.1056C32.412 18.6704 32.2438 19.2893 32.2438 19.9622C32.2438 20.6352 32.412 21.2601 32.7485 21.8369C33.097 22.4017 33.5536 22.8584 34.1185 23.2069C34.6953 23.5433 35.3202 23.7116 35.9931 23.7116ZM47.8936 23.7116C48.5185 23.7116 49.1134 23.5494 49.6782 23.2249C50.243 22.9004 50.7117 22.4558 51.0842 21.891V22.8103C50.6396 23.303 50.1529 23.6635 49.6241 23.8918C49.0954 24.1082 48.4945 24.2163 47.8215 24.2163C47.0765 24.2163 46.3735 24.018 45.7125 23.6215C45.0636 23.2249 44.5409 22.6961 44.1443 22.0352C43.7597 21.3742 43.5675 20.6712 43.5675 19.9262C43.5675 19.121 43.7597 18.4 44.1443 17.7631C44.5288 17.1142 45.0516 16.6094 45.7125 16.2489C46.3855 15.8884 47.1306 15.7082 47.9477 15.7082C49.1975 15.7082 50.261 16.2009 51.1383 17.1863L45.4782 22.7742C45.8748 23.0987 46.2593 23.3391 46.6318 23.4953C47.0044 23.6395 47.425 23.7116 47.8936 23.7116ZM44.1443 19.8721C44.1443 20.8695 44.4748 21.7227 45.1357 22.4318L50.4173 17.1863C50.0207 16.8378 49.6361 16.5914 49.2636 16.4472C48.8911 16.291 48.4464 16.2129 47.9297 16.2129C47.1967 16.2129 46.5417 16.3751 45.9649 16.6996C45.4001 17.012 44.9554 17.4446 44.631 17.9974C44.3065 18.5502 44.1443 19.1751 44.1443 19.8721ZM57.2855 24.1082C56.3962 24.1082 55.6572 23.8378 55.0683 23.297C54.4915 22.7562 54.2031 22.0112 54.2031 21.0618V12.6258H54.7799V15.8884H57.2675V16.3931H54.7799V21.0618C54.7799 21.8549 55.0142 22.4798 55.4829 22.9365C55.9636 23.3811 56.5645 23.6034 57.2855 23.6034V24.1082ZM67.6114 24.1983C67.0346 24.1983 66.5239 24.1021 66.0792 23.9099C65.6346 23.7056 65.3161 23.4472 65.1239 23.1348V22.1794C65.3522 22.6961 65.6646 23.0807 66.0612 23.333C66.4578 23.5734 66.9625 23.6936 67.5754 23.6936C68.1642 23.6936 68.6389 23.5133 68.9994 23.1528C69.3599 22.7803 69.5402 22.3056 69.5402 21.7288C69.5402 21.2361 69.438 20.8575 69.2337 20.5931C69.0294 20.3167 68.699 20.0403 68.2423 19.7639L67.5573 19.3674C67.0646 19.067 66.6921 18.8326 66.4397 18.6644C66.1994 18.4841 66.0071 18.2858 65.8629 18.0695C65.7187 17.8412 65.6466 17.5768 65.6466 17.2764C65.6466 16.7957 65.8149 16.4112 66.1513 16.1227C66.4878 15.8343 66.9264 15.6901 67.4672 15.6901C68.1282 15.6901 68.6809 15.8403 69.1256 16.1408V16.9339C68.753 16.4412 68.2183 16.1949 67.5213 16.1949C67.1367 16.1949 66.8243 16.291 66.584 16.4833C66.3436 16.6755 66.2234 16.9219 66.2234 17.2223C66.2234 17.4867 66.2955 17.721 66.4397 17.9253C66.584 18.1176 66.7822 18.2979 67.0346 18.4661C67.299 18.6343 67.7316 18.8867 68.3324 19.2232C68.9453 19.5717 69.396 19.9322 69.6844 20.3047C69.9728 20.6652 70.117 21.1399 70.117 21.7288C70.117 22.4738 69.8706 23.0747 69.3779 23.5313C68.8973 23.976 68.3084 24.1983 67.6114 24.1983ZM76.2576 24.1082C75.3683 24.1082 74.6293 23.8378 74.0404 23.297C73.4636 22.7562 73.1752 22.0112 73.1752 21.0618V12.6258H73.752V15.8884H76.2396V16.3931H73.752V21.0618C73.752 21.8549 73.9863 22.4798 74.455 22.9365C74.9357 23.3811 75.5366 23.6034 76.2576 23.6034V24.1082ZM83.0374 24.1983C82.2683 24.1983 81.5533 24.006 80.8923 23.6215C80.2314 23.2369 79.7086 22.7202 79.3241 22.0712C78.9395 21.4103 78.7472 20.7013 78.7472 19.9442C78.7472 19.1871 78.9395 18.4841 79.3241 17.8352C79.7086 17.1743 80.2314 16.6515 80.8923 16.267C81.5533 15.8824 82.2683 15.6901 83.0374 15.6901C83.8185 15.6901 84.5575 15.9004 85.2545 16.321C85.9515 16.7296 86.4382 17.2644 86.7146 17.9253V15.8884H87.2915V24H86.7146V21.9811C86.3902 22.6541 85.8854 23.1948 85.2005 23.6034C84.5275 24 83.8065 24.1983 83.0374 24.1983ZM83.0734 23.6936C83.7344 23.6936 84.3472 23.5253 84.9121 23.1888C85.4769 22.8403 85.9215 22.3837 86.246 21.8189C86.5824 21.2421 86.7507 20.6172 86.7507 19.9442C86.7507 19.2833 86.5824 18.6644 86.246 18.0876C85.9095 17.5107 85.4588 17.0541 84.894 16.7176C84.3292 16.3691 83.7163 16.1949 83.0554 16.1949C82.3945 16.1949 81.7756 16.3691 81.1987 16.7176C80.6339 17.0661 80.1773 17.5288 79.8288 18.1056C79.4923 18.6824 79.3241 19.3013 79.3241 19.9622C79.3241 20.6232 79.4923 21.2421 79.8288 21.8189C80.1773 22.3837 80.64 22.8403 81.2168 23.1888C81.7936 23.5253 82.4125 23.6936 83.0734 23.6936ZM91.0087 15.8884H91.5855V17.7631C91.8259 17.1743 92.1744 16.7116 92.631 16.3751C93.0997 16.0386 93.6284 15.8704 94.2173 15.8704C94.5898 15.8704 94.9684 15.9485 95.3529 16.1047V16.7717C95.0044 16.5073 94.6138 16.3751 94.1812 16.3751C93.7486 16.3751 93.328 16.5073 92.9194 16.7717C92.5229 17.0361 92.1984 17.3906 91.946 17.8352C91.7057 18.2798 91.5855 18.7545 91.5855 19.2592V24H91.0087V15.8884ZM101.127 24.1082C100.238 24.1082 99.4985 23.8378 98.9096 23.297C98.3328 22.7562 98.0444 22.0112 98.0444 21.0618V12.6258H98.6212V15.8884H101.109V16.3931H98.6212V21.0618C98.6212 21.8549 98.8555 22.4798 99.3242 22.9365C99.8049 23.3811 100.406 23.6034 101.127 23.6034V24.1082ZM107.492 23.7116C108.117 23.7116 108.712 23.5494 109.277 23.2249C109.841 22.9004 110.31 22.4558 110.683 21.891V22.8103C110.238 23.303 109.751 23.6635 109.222 23.8918C108.694 24.1082 108.093 24.2163 107.42 24.2163C106.675 24.2163 105.972 24.018 105.311 23.6215C104.662 23.2249 104.139 22.6961 103.743 22.0352C103.358 21.3742 103.166 20.6712 103.166 19.9262C103.166 19.121 103.358 18.4 103.743 17.7631C104.127 17.1142 104.65 16.6094 105.311 16.2489C105.984 15.8884 106.729 15.7082 107.546 15.7082C108.796 15.7082 109.859 16.2009 110.737 17.1863L105.077 22.7742C105.473 23.0987 105.858 23.3391 106.23 23.4953C106.603 23.6395 107.023 23.7116 107.492 23.7116ZM103.743 19.8721C103.743 20.8695 104.073 21.7227 104.734 22.4318L110.016 17.1863C109.619 16.8378 109.234 16.5914 108.862 16.4472C108.489 16.291 108.045 16.2129 107.528 16.2129C106.795 16.2129 106.14 16.3751 105.563 16.6996C104.998 17.012 104.554 17.4446 104.229 17.9974C103.905 18.5502 103.743 19.1751 103.743 19.8721ZM117.803 24.1983C117.022 24.1983 116.301 24.006 115.64 23.6215C114.991 23.2369 114.474 22.7202 114.09 22.0712C113.705 21.4223 113.513 20.7133 113.513 19.9442C113.513 19.1751 113.705 18.4661 114.09 17.8172C114.474 17.1682 114.991 16.6515 115.64 16.267C116.301 15.8824 117.022 15.6901 117.803 15.6901C118.56 15.6901 119.281 15.8944 119.966 16.303C120.651 16.6996 121.156 17.2223 121.48 17.8712V10.4807H122.057V24H121.48V22.0352C121.12 22.6841 120.597 23.2069 119.912 23.6034C119.239 24 118.536 24.1983 117.803 24.1983ZM117.785 23.6936C118.446 23.6936 119.059 23.5253 119.624 23.1888C120.201 22.8403 120.657 22.3837 120.994 21.8189C121.342 21.2421 121.516 20.6232 121.516 19.9622C121.516 19.3013 121.342 18.6824 120.994 18.1056C120.657 17.5288 120.201 17.0661 119.624 16.7176C119.059 16.3691 118.446 16.1949 117.785 16.1949C117.124 16.1949 116.511 16.3691 115.946 16.7176C115.382 17.0541 114.931 17.5107 114.595 18.0876C114.258 18.6644 114.09 19.2833 114.09 19.9442C114.09 20.6172 114.252 21.2421 114.577 21.8189C114.913 22.3837 115.364 22.8403 115.928 23.1888C116.505 23.5253 117.124 23.6936 117.785 23.6936Z"/>
</mask>
<path d="M36.0472 27.7494C35.3622 27.7494 34.6953 27.5931 34.0464 27.2807C33.3974 26.9682 32.8927 26.5597 32.5322 26.0549V25.2258C32.8446 25.8026 33.3313 26.2833 33.9923 26.6678C34.6652 27.0524 35.3502 27.2446 36.0472 27.2446C37.2009 27.2446 38.0901 26.9021 38.715 26.2172C39.3399 25.5442 39.6524 24.5528 39.6524 23.2429V22.0352C39.3279 22.6841 38.8172 23.2129 38.1202 23.6215C37.4352 24.018 36.7142 24.2163 35.9571 24.2163C35.188 24.2163 34.473 24.024 33.812 23.6395C33.1511 23.2549 32.6283 22.7382 32.2438 22.0893C31.8592 21.4283 31.667 20.7193 31.667 19.9622C31.667 19.2052 31.8592 18.5021 32.2438 17.8532C32.6283 17.1923 33.1511 16.6695 33.812 16.285C34.473 15.9004 35.188 15.7082 35.9571 15.7082C36.7502 15.7082 37.4833 15.9064 38.1562 16.303C38.8292 16.6996 39.3279 17.2343 39.6524 17.9073V15.8884H40.2292V23.2429C40.2292 24.721 39.8687 25.8386 39.1476 26.5957C38.4386 27.3648 37.4051 27.7494 36.0472 27.7494ZM35.9931 23.7116C36.6541 23.7116 37.267 23.5433 37.8318 23.2069C38.3966 22.8584 38.8412 22.4017 39.1657 21.8369C39.5021 21.2601 39.6704 20.6352 39.6704 19.9622C39.6704 19.2893 39.5021 18.6704 39.1657 18.1056C38.8412 17.5288 38.3966 17.0721 37.8318 16.7356C37.267 16.3871 36.6541 16.2129 35.9931 16.2129C35.3202 16.2129 34.6953 16.3871 34.1185 16.7356C33.5536 17.0721 33.097 17.5288 32.7485 18.1056C32.412 18.6704 32.2438 19.2893 32.2438 19.9622C32.2438 20.6352 32.412 21.2601 32.7485 21.8369C33.097 22.4017 33.5536 22.8584 34.1185 23.2069C34.6953 23.5433 35.3202 23.7116 35.9931 23.7116ZM47.8936 23.7116C48.5185 23.7116 49.1134 23.5494 49.6782 23.2249C50.243 22.9004 50.7117 22.4558 51.0842 21.891V22.8103C50.6396 23.303 50.1529 23.6635 49.6241 23.8918C49.0954 24.1082 48.4945 24.2163 47.8215 24.2163C47.0765 24.2163 46.3735 24.018 45.7125 23.6215C45.0636 23.2249 44.5409 22.6961 44.1443 22.0352C43.7597 21.3742 43.5675 20.6712 43.5675 19.9262C43.5675 19.121 43.7597 18.4 44.1443 17.7631C44.5288 17.1142 45.0516 16.6094 45.7125 16.2489C46.3855 15.8884 47.1306 15.7082 47.9477 15.7082C49.1975 15.7082 50.261 16.2009 51.1383 17.1863L45.4782 22.7742C45.8748 23.0987 46.2593 23.3391 46.6318 23.4953C47.0044 23.6395 47.425 23.7116 47.8936 23.7116ZM44.1443 19.8721C44.1443 20.8695 44.4748 21.7227 45.1357 22.4318L50.4173 17.1863C50.0207 16.8378 49.6361 16.5914 49.2636 16.4472C48.8911 16.291 48.4464 16.2129 47.9297 16.2129C47.1967 16.2129 46.5417 16.3751 45.9649 16.6996C45.4001 17.012 44.9554 17.4446 44.631 17.9974C44.3065 18.5502 44.1443 19.1751 44.1443 19.8721ZM57.2855 24.1082C56.3962 24.1082 55.6572 23.8378 55.0683 23.297C54.4915 22.7562 54.2031 22.0112 54.2031 21.0618V12.6258H54.7799V15.8884H57.2675V16.3931H54.7799V21.0618C54.7799 21.8549 55.0142 22.4798 55.4829 22.9365C55.9636 23.3811 56.5645 23.6034 57.2855 23.6034V24.1082ZM67.6114 24.1983C67.0346 24.1983 66.5239 24.1021 66.0792 23.9099C65.6346 23.7056 65.3161 23.4472 65.1239 23.1348V22.1794C65.3522 22.6961 65.6646 23.0807 66.0612 23.333C66.4578 23.5734 66.9625 23.6936 67.5754 23.6936C68.1642 23.6936 68.6389 23.5133 68.9994 23.1528C69.3599 22.7803 69.5402 22.3056 69.5402 21.7288C69.5402 21.2361 69.438 20.8575 69.2337 20.5931C69.0294 20.3167 68.699 20.0403 68.2423 19.7639L67.5573 19.3674C67.0646 19.067 66.6921 18.8326 66.4397 18.6644C66.1994 18.4841 66.0071 18.2858 65.8629 18.0695C65.7187 17.8412 65.6466 17.5768 65.6466 17.2764C65.6466 16.7957 65.8149 16.4112 66.1513 16.1227C66.4878 15.8343 66.9264 15.6901 67.4672 15.6901C68.1282 15.6901 68.6809 15.8403 69.1256 16.1408V16.9339C68.753 16.4412 68.2183 16.1949 67.5213 16.1949C67.1367 16.1949 66.8243 16.291 66.584 16.4833C66.3436 16.6755 66.2234 16.9219 66.2234 17.2223C66.2234 17.4867 66.2955 17.721 66.4397 17.9253C66.584 18.1176 66.7822 18.2979 67.0346 18.4661C67.299 18.6343 67.7316 18.8867 68.3324 19.2232C68.9453 19.5717 69.396 19.9322 69.6844 20.3047C69.9728 20.6652 70.117 21.1399 70.117 21.7288C70.117 22.4738 69.8706 23.0747 69.3779 23.5313C68.8973 23.976 68.3084 24.1983 67.6114 24.1983ZM76.2576 24.1082C75.3683 24.1082 74.6293 23.8378 74.0404 23.297C73.4636 22.7562 73.1752 22.0112 73.1752 21.0618V12.6258H73.752V15.8884H76.2396V16.3931H73.752V21.0618C73.752 21.8549 73.9863 22.4798 74.455 22.9365C74.9357 23.3811 75.5366 23.6034 76.2576 23.6034V24.1082ZM83.0374 24.1983C82.2683 24.1983 81.5533 24.006 80.8923 23.6215C80.2314 23.2369 79.7086 22.7202 79.3241 22.0712C78.9395 21.4103 78.7472 20.7013 78.7472 19.9442C78.7472 19.1871 78.9395 18.4841 79.3241 17.8352C79.7086 17.1743 80.2314 16.6515 80.8923 16.267C81.5533 15.8824 82.2683 15.6901 83.0374 15.6901C83.8185 15.6901 84.5575 15.9004 85.2545 16.321C85.9515 16.7296 86.4382 17.2644 86.7146 17.9253V15.8884H87.2915V24H86.7146V21.9811C86.3902 22.6541 85.8854 23.1948 85.2005 23.6034C84.5275 24 83.8065 24.1983 83.0374 24.1983ZM83.0734 23.6936C83.7344 23.6936 84.3472 23.5253 84.9121 23.1888C85.4769 22.8403 85.9215 22.3837 86.246 21.8189C86.5824 21.2421 86.7507 20.6172 86.7507 19.9442C86.7507 19.2833 86.5824 18.6644 86.246 18.0876C85.9095 17.5107 85.4588 17.0541 84.894 16.7176C84.3292 16.3691 83.7163 16.1949 83.0554 16.1949C82.3945 16.1949 81.7756 16.3691 81.1987 16.7176C80.6339 17.0661 80.1773 17.5288 79.8288 18.1056C79.4923 18.6824 79.3241 19.3013 79.3241 19.9622C79.3241 20.6232 79.4923 21.2421 79.8288 21.8189C80.1773 22.3837 80.64 22.8403 81.2168 23.1888C81.7936 23.5253 82.4125 23.6936 83.0734 23.6936ZM91.0087 15.8884H91.5855V17.7631C91.8259 17.1743 92.1744 16.7116 92.631 16.3751C93.0997 16.0386 93.6284 15.8704 94.2173 15.8704C94.5898 15.8704 94.9684 15.9485 95.3529 16.1047V16.7717C95.0044 16.5073 94.6138 16.3751 94.1812 16.3751C93.7486 16.3751 93.328 16.5073 92.9194 16.7717C92.5229 17.0361 92.1984 17.3906 91.946 17.8352C91.7057 18.2798 91.5855 18.7545 91.5855 19.2592V24H91.0087V15.8884ZM101.127 24.1082C100.238 24.1082 99.4985 23.8378 98.9096 23.297C98.3328 22.7562 98.0444 22.0112 98.0444 21.0618V12.6258H98.6212V15.8884H101.109V16.3931H98.6212V21.0618C98.6212 21.8549 98.8555 22.4798 99.3242 22.9365C99.8049 23.3811 100.406 23.6034 101.127 23.6034V24.1082ZM107.492 23.7116C108.117 23.7116 108.712 23.5494 109.277 23.2249C109.841 22.9004 110.31 22.4558 110.683 21.891V22.8103C110.238 23.303 109.751 23.6635 109.222 23.8918C108.694 24.1082 108.093 24.2163 107.42 24.2163C106.675 24.2163 105.972 24.018 105.311 23.6215C104.662 23.2249 104.139 22.6961 103.743 22.0352C103.358 21.3742 103.166 20.6712 103.166 19.9262C103.166 19.121 103.358 18.4 103.743 17.7631C104.127 17.1142 104.65 16.6094 105.311 16.2489C105.984 15.8884 106.729 15.7082 107.546 15.7082C108.796 15.7082 109.859 16.2009 110.737 17.1863L105.077 22.7742C105.473 23.0987 105.858 23.3391 106.23 23.4953C106.603 23.6395 107.023 23.7116 107.492 23.7116ZM103.743 19.8721C103.743 20.8695 104.073 21.7227 104.734 22.4318L110.016 17.1863C109.619 16.8378 109.234 16.5914 108.862 16.4472C108.489 16.291 108.045 16.2129 107.528 16.2129C106.795 16.2129 106.14 16.3751 105.563 16.6996C104.998 17.012 104.554 17.4446 104.229 17.9974C103.905 18.5502 103.743 19.1751 103.743 19.8721ZM117.803 24.1983C117.022 24.1983 116.301 24.006 115.64 23.6215C114.991 23.2369 114.474 22.7202 114.09 22.0712C113.705 21.4223 113.513 20.7133 113.513 19.9442C113.513 19.1751 113.705 18.4661 114.09 17.8172C114.474 17.1682 114.991 16.6515 115.64 16.267C116.301 15.8824 117.022 15.6901 117.803 15.6901C118.56 15.6901 119.281 15.8944 119.966 16.303C120.651 16.6996 121.156 17.2223 121.48 17.8712V10.4807H122.057V24H121.48V22.0352C121.12 22.6841 120.597 23.2069 119.912 23.6034C119.239 24 118.536 24.1983 117.803 24.1983ZM117.785 23.6936C118.446 23.6936 119.059 23.5253 119.624 23.1888C120.201 22.8403 120.657 22.3837 120.994 21.8189C121.342 21.2421 121.516 20.6232 121.516 19.9622C121.516 19.3013 121.342 18.6824 120.994 18.1056C120.657 17.5288 120.201 17.0661 119.624 16.7176C119.059 16.3691 118.446 16.1949 117.785 16.1949C117.124 16.1949 116.511 16.3691 115.946 16.7176C115.382 17.0541 114.931 17.5107 114.595 18.0876C114.258 18.6644 114.09 19.2833 114.09 19.9442C114.09 20.6172 114.252 21.2421 114.577 21.8189C114.913 22.3837 115.364 22.8403 115.928 23.1888C116.505 23.5253 117.124 23.6936 117.785 23.6936Z" fill="#FFFF00"/>
<path d="M34.0464 27.2807L33.7527 27.8905L34.0464 27.2807ZM32.5322 26.0549H31.8554V26.2718L31.9815 26.4483L32.5322 26.0549ZM32.5322 25.2257L33.1273 24.9034L31.8554 25.2257H32.5322ZM33.9923 26.6678L33.6519 27.2528L33.6565 27.2554L33.9923 26.6678ZM38.715 26.2172L38.219 25.7566L38.215 25.761L38.715 26.2172ZM39.6524 22.0352H40.3292L39.047 21.7325L39.6524 22.0352ZM38.1202 23.6215L38.4593 24.2072L38.4624 24.2053L38.1202 23.6215ZM33.812 23.6395L33.4717 24.2245L33.812 23.6395ZM32.2438 22.0893L31.6588 22.4296L31.6615 22.4343L32.2438 22.0893ZM32.2438 17.8532L32.826 18.1983L32.8288 18.1936L32.2438 17.8532ZM33.812 16.285L33.4717 15.7H33.4717L33.812 16.285ZM38.1562 16.303L37.8126 16.8861L38.1562 16.303ZM39.6524 17.9073L39.0427 18.2012L40.3292 17.9073H39.6524ZM39.6524 15.8884V15.2116H38.9756V15.8884H39.6524ZM40.2292 15.8884H40.906V15.2116H40.2292V15.8884ZM39.1476 26.5957L38.6575 26.1289L38.65 26.137L39.1476 26.5957ZM37.8318 23.2069L38.1782 23.7884L38.1871 23.7828L37.8318 23.2069ZM39.1657 21.8369L38.581 21.4959L38.5788 21.4998L39.1657 21.8369ZM39.1657 18.1056L38.5758 18.4374L38.5799 18.4447L38.5842 18.452L39.1657 18.1056ZM37.8318 16.7356L37.4763 17.3117L37.4854 17.3171L37.8318 16.7356ZM34.1185 16.7356L34.4648 17.3171L34.4684 17.3149L34.1185 16.7356ZM32.7485 18.1056L32.1692 17.7556L32.1671 17.7592L32.7485 18.1056ZM32.7485 21.8369L32.1639 22.1779L32.1681 22.1852L32.1725 22.1923L32.7485 21.8369ZM34.1185 23.2069L33.7631 23.7828L33.7702 23.7872L33.7774 23.7915L34.1185 23.2069ZM36.0472 27.0726C35.4691 27.0726 34.9021 26.9416 34.34 26.6709L33.7527 27.8905C34.4884 28.2447 35.2553 28.4262 36.0472 28.4262V27.0726ZM34.34 26.6709C33.7769 26.3998 33.3673 26.0597 33.0829 25.6616L31.9815 26.4483C32.4181 27.0596 33.0179 27.5367 33.7527 27.8905L34.34 26.6709ZM33.209 26.0549V25.2257H31.8554V26.0549H33.209ZM31.9371 25.5481C32.3179 26.2512 32.9016 26.8163 33.6519 27.2528L34.3326 26.0828C33.761 25.7503 33.3713 25.3539 33.1273 24.9034L31.9371 25.5481ZM33.6565 27.2554C34.42 27.6917 35.2196 27.9214 36.0472 27.9214V26.5678C35.4808 26.5678 34.9105 26.413 34.3281 26.0802L33.6565 27.2554ZM36.0472 27.9214C37.3412 27.9214 38.4317 27.5319 39.215 26.6733L38.215 25.761C37.7485 26.2724 37.0605 26.5678 36.0472 26.5678V27.9214ZM39.211 26.6777C39.9935 25.8349 40.3292 24.651 40.3292 23.2429H38.9756C38.9756 24.4545 38.6863 25.2535 38.2191 25.7566L39.211 26.6777ZM40.3292 23.2429V22.0352H38.9756V23.2429H40.3292ZM39.047 21.7325C38.7877 22.2512 38.3751 22.6875 37.7779 23.0376L38.4624 24.2053C39.2592 23.7383 39.8681 23.1171 40.2577 22.3379L39.047 21.7325ZM37.7811 23.0357C37.1943 23.3755 36.5896 23.5395 35.9571 23.5395V24.8931C36.8388 24.8931 37.6761 24.6606 38.4593 24.2072L37.7811 23.0357ZM35.9571 23.5395C35.3068 23.5395 34.7093 23.3785 34.1524 23.0545L33.4717 24.2245C34.2366 24.6695 35.0691 24.8931 35.9571 24.8931V23.5395ZM34.1524 23.0545C33.5898 22.7272 33.1509 22.2924 32.826 21.7442L31.6615 22.4343C32.1058 23.184 32.7124 23.7827 33.4717 24.2245L34.1524 23.0545ZM32.8288 21.7489C32.5037 21.1902 32.3438 20.5985 32.3438 19.9622H30.9902C30.9902 20.8401 31.2147 21.6664 31.6588 22.4296L32.8288 21.7489ZM32.3438 19.9622C32.3438 19.3261 32.5036 18.7423 32.826 18.1983L31.6615 17.5082C31.2148 18.262 30.9902 19.0842 30.9902 19.9622H32.3438ZM32.8288 18.1936C33.1543 17.634 33.5928 17.1955 34.1524 16.87L33.4717 15.7C32.7094 16.1435 32.1023 16.7506 31.6588 17.5129L32.8288 18.1936ZM34.1524 16.87C34.7093 16.5459 35.3068 16.385 35.9571 16.385V15.0314C35.0691 15.0314 34.2366 15.2549 33.4717 15.7L34.1524 16.87ZM35.9571 16.385C36.6313 16.385 37.2454 16.5519 37.8126 16.8861L38.4998 15.7199C37.7211 15.261 36.8691 15.0314 35.9571 15.0314V16.385ZM37.8126 16.8861C38.3758 17.218 38.7791 17.6545 39.0427 18.2012L40.262 17.6134C39.8767 16.8142 39.2826 16.1812 38.4998 15.7199L37.8126 16.8861ZM40.3292 17.9073V15.8884H38.9756V17.9073H40.3292ZM39.6524 16.5652H40.2292V15.2116H39.6524V16.5652ZM39.5524 15.8884V23.2429H40.906V15.8884H39.5524ZM39.5524 23.2429C39.5524 24.6194 39.2168 25.5417 38.6575 26.129L39.6377 27.0625C40.5205 26.1355 40.906 24.8226 40.906 23.2429H39.5524ZM38.65 26.137C38.1046 26.7286 37.2757 27.0726 36.0472 27.0726V28.4262C37.5346 28.4262 38.7727 28.001 39.6452 27.0544L38.65 26.137ZM35.9931 24.3884C36.7753 24.3884 37.508 24.1875 38.1781 23.7883L37.4854 22.6254C37.0259 22.8991 36.5328 23.0348 35.9931 23.0348V24.3884ZM38.1871 23.7828C38.8459 23.3764 39.3709 22.8384 39.7525 22.174L38.5788 21.4998C38.3115 21.9651 37.9472 22.3403 37.4764 22.6309L38.1871 23.7828ZM39.7503 22.1779C40.1476 21.4968 40.3472 20.754 40.3472 19.9622H38.9936C38.9936 20.5163 38.8567 21.0234 38.5811 21.4959L39.7503 22.1779ZM40.3472 19.9622C40.3472 19.1704 40.1475 18.4313 39.7471 17.7592L38.5842 18.452C38.8568 18.9094 38.9936 19.4082 38.9936 19.9622H40.3472ZM39.7555 17.7738C39.3735 17.0946 38.8452 16.5516 38.1781 16.1542L37.4854 17.3171C37.9479 17.5926 38.3089 17.9629 38.5758 18.4374L39.7555 17.7738ZM38.1871 16.1596C37.516 15.7455 36.7801 15.5361 35.9931 15.5361V16.8897C36.528 16.8897 37.0179 17.0287 37.4764 17.3116L38.1871 16.1596ZM35.9931 15.5361C35.1966 15.5361 34.4507 15.7441 33.7685 16.1563L34.4684 17.3149C34.9398 17.0301 35.4437 16.8897 35.9931 16.8897V15.5361ZM33.7721 16.1542C33.1093 16.549 32.5737 17.0862 32.1692 17.7556L33.3278 18.4556C33.6203 17.9714 33.9979 17.5952 34.4648 17.3171L33.7721 16.1542ZM32.1671 17.7592C31.7666 18.4313 31.567 19.1704 31.567 19.9622H32.9206C32.9206 19.4082 33.0574 18.9094 33.3299 18.452L32.1671 17.7592ZM31.567 19.9622C31.567 20.754 31.7665 21.4968 32.1639 22.1779L33.3331 21.4959C33.0575 21.0234 32.9206 20.5163 32.9206 19.9622H31.567ZM32.1725 22.1923C32.5764 22.8468 33.1086 23.379 33.7631 23.7828L34.4738 22.6309C33.9987 22.3377 33.6176 21.9566 33.3245 21.4815L32.1725 22.1923ZM33.7774 23.7915C34.4586 24.1888 35.2013 24.3884 35.9931 24.3884V23.0348C35.439 23.0348 34.932 22.8979 34.4595 22.6223L33.7774 23.7915ZM49.6782 23.2249L49.3411 22.638L49.6782 23.2249ZM51.0842 21.891H51.761V19.6357L50.5192 21.5183L51.0842 21.891ZM51.0842 22.8103L51.5867 23.2637L51.761 23.0705V22.8103H51.0842ZM49.6241 23.8918L49.8804 24.5184L49.8924 24.5132L49.6241 23.8918ZM45.7125 23.6215L45.3596 24.199L45.3643 24.2018L45.7125 23.6215ZM44.1443 22.0352L43.5592 22.3756L43.5639 22.3834L44.1443 22.0352ZM44.1443 17.7631L44.7237 18.1129L44.7265 18.1081L44.1443 17.7631ZM45.7125 16.2489L45.3929 15.6523L45.3884 15.6548L45.7125 16.2489ZM51.1383 17.1863L51.6138 17.6679L52.0712 17.2163L51.6438 16.7362L51.1383 17.1863ZM45.4782 22.7742L45.0027 22.2926L44.4671 22.8214L45.0496 23.2981L45.4782 22.7742ZM46.6318 23.4953L46.3701 24.1194L46.3788 24.123L46.3875 24.1264L46.6318 23.4953ZM45.1357 22.4318L44.6407 22.8933L45.117 23.4042L45.6126 22.912L45.1357 22.4318ZM50.4172 17.1863L50.8942 17.6665L51.4081 17.156L50.864 16.6779L50.4172 17.1863ZM49.2636 16.4472L49.0019 17.0714L49.0105 17.075L49.0193 17.0784L49.2636 16.4472ZM45.9649 16.6996L46.2925 17.2918L46.2967 17.2895L45.9649 16.6996ZM44.631 17.9974L44.0473 17.6548L44.631 17.9974ZM47.8936 24.3884C48.642 24.3884 49.3525 24.1925 50.0153 23.8117L49.3411 22.638C48.8743 22.9062 48.3951 23.0348 47.8936 23.0348V24.3884ZM50.0153 23.8117C50.6754 23.4326 51.2208 22.9131 51.6492 22.2636L50.5192 21.5183C50.2026 21.9985 49.8106 22.3683 49.3411 22.638L50.0153 23.8117ZM50.4074 21.891V22.8103H51.761V21.891H50.4074ZM50.5818 22.3569C50.1923 22.7884 49.7828 23.0861 49.3558 23.2705L49.8924 24.5132C50.523 24.2409 51.0868 23.8176 51.5867 23.2637L50.5818 22.3569ZM49.3679 23.2654C48.9336 23.4431 48.422 23.5395 47.8215 23.5395V24.8931C48.567 24.8931 49.2572 24.7732 49.8804 24.5183L49.3679 23.2654ZM47.8215 23.5395C47.2035 23.5395 46.6203 23.3768 46.0607 23.0411L45.3643 24.2018C46.1266 24.6592 46.9494 24.8931 47.8215 24.8931V23.5395ZM46.0654 23.044C45.511 22.7051 45.0658 22.2556 44.7246 21.687L43.5639 22.3834C44.0159 23.1367 44.6162 23.7446 45.3596 24.199L46.0654 23.044ZM44.7293 21.6948C44.4032 21.1344 44.2443 20.5484 44.2443 19.9262H42.8907C42.8907 20.7941 43.1163 21.6141 43.5593 22.3756L44.7293 21.6948ZM44.2443 19.9262C44.2443 19.2338 44.4081 18.6356 44.7237 18.1129L43.5649 17.4133C43.1114 18.1644 42.8907 19.0082 42.8907 19.9262H44.2443ZM44.7265 18.1081C45.0491 17.5637 45.4828 17.1452 46.0366 16.8431L45.3884 15.6548C44.6204 16.0737 44.0085 16.6646 43.562 17.4181L44.7265 18.1081ZM46.0321 16.8455C46.5999 16.5413 47.234 16.385 47.9477 16.385V15.0314C47.0271 15.0314 46.1711 15.2355 45.3929 15.6523L46.0321 16.8455ZM47.9477 16.385C48.9925 16.385 49.8759 16.786 50.6328 17.6363L51.6438 16.7362C50.6462 15.6157 49.4025 15.0314 47.9477 15.0314V16.385ZM50.6628 16.7046L45.0027 22.2926L45.9537 23.2559L51.6138 17.6679L50.6628 16.7046ZM45.0496 23.2981C45.4838 23.6533 45.9238 23.9323 46.3701 24.1194L46.8936 22.8711C46.5948 22.7458 46.2657 22.5441 45.9068 22.2504L45.0496 23.2981ZM46.3875 24.1264C46.8502 24.3055 47.3556 24.3884 47.8936 24.3884V23.0348C47.4943 23.0348 47.1585 22.9734 46.8762 22.8641L46.3875 24.1264ZM43.4675 19.8721C43.4675 21.0353 43.8592 22.055 44.6407 22.8933L45.6308 21.9703C45.0903 21.3905 44.8211 20.7037 44.8211 19.8721H43.4675ZM45.6126 22.912L50.8942 17.6665L49.9403 16.7061L44.6588 21.9516L45.6126 22.912ZM50.864 16.6779C50.4258 16.2928 49.9742 15.9965 49.5079 15.8161L49.0193 17.0784C49.2981 17.1863 49.6156 17.3827 49.9705 17.6947L50.864 16.6779ZM49.5253 15.8231C49.0503 15.6239 48.5122 15.5361 47.9297 15.5361V16.8897C48.3806 16.8897 48.7318 16.9581 49.0019 17.0714L49.5253 15.8231ZM47.9297 15.5361C47.0932 15.5361 46.3218 15.7223 45.6331 16.1097L46.2967 17.2895C46.7616 17.0279 47.3001 16.8897 47.9297 16.8897V15.5361ZM45.6373 16.1074C44.9671 16.4781 44.4337 16.9966 44.0473 17.6548L45.2147 18.34C45.4772 17.8927 45.8331 17.5459 46.2925 17.2918L45.6373 16.1074ZM44.0473 17.6548C43.6566 18.3205 43.4675 19.0655 43.4675 19.8721H44.8211C44.8211 19.2847 44.9564 18.7799 45.2147 18.34L44.0473 17.6548ZM57.2855 24.1082V24.785H57.9623V24.1082H57.2855ZM55.0683 23.297L54.6054 23.7908L54.6105 23.7955L55.0683 23.297ZM54.2031 12.6258V11.949H53.5263V12.6258H54.2031ZM54.7799 12.6258H55.4567V11.949H54.7799V12.6258ZM54.7799 15.8884H54.1031V16.5652H54.7799V15.8884ZM57.2675 15.8884H57.9443V15.2116H57.2675V15.8884ZM57.2675 16.3931V17.0699H57.9443V16.3931H57.2675ZM54.7799 16.3931V15.7163H54.1031V16.3931H54.7799ZM55.4829 22.9365L55.0106 23.4212L55.0169 23.4274L55.0233 23.4333L55.4829 22.9365ZM57.2855 23.6034H57.9623V22.9266H57.2855V23.6034ZM57.2855 23.4314C56.5452 23.4314 55.9757 23.2114 55.5261 22.7985L54.6105 23.7955C55.3386 24.4641 56.2473 24.785 57.2855 24.785V23.4314ZM55.5312 22.8032C55.1179 22.4158 54.8799 21.8647 54.8799 21.0618H53.5263C53.5263 22.1576 53.8651 23.0967 54.6054 23.7907L55.5312 22.8032ZM54.8799 21.0618V12.6258H53.5263V21.0618H54.8799ZM54.2031 13.3026H54.7799V11.949H54.2031V13.3026ZM54.1031 12.6258V15.8884H55.4567V12.6258H54.1031ZM54.7799 16.5652H57.2675V15.2116H54.7799V16.5652ZM56.5907 15.8884V16.3931H57.9443V15.8884H56.5907ZM57.2675 15.7163H54.7799V17.0699H57.2675V15.7163ZM54.1031 16.3931V21.0618H55.4567V16.3931H54.1031ZM54.1031 21.0618C54.1031 21.996 54.3842 22.8109 55.0106 23.4212L55.9552 22.4517C55.6443 22.1488 55.4567 21.7139 55.4567 21.0618H54.1031ZM55.0233 23.4333C55.6422 24.0058 56.4128 24.2802 57.2855 24.2802V22.9266C56.7161 22.9266 56.285 22.7565 55.9425 22.4396L55.0233 23.4333ZM56.6087 23.6034V24.1082H57.9623V23.6034H56.6087ZM66.0792 23.9099L65.7967 24.5249L65.8036 24.528L65.8106 24.5311L66.0792 23.9099ZM65.1239 23.1348H64.4471V23.3263L64.5475 23.4895L65.1239 23.1348ZM65.1239 22.1794L65.7429 21.9059L64.4471 22.1794H65.1239ZM66.0612 23.333L65.6978 23.904L65.7041 23.908L65.7104 23.9118L66.0612 23.333ZM68.9994 23.1528L69.478 23.6314L69.4857 23.6234L68.9994 23.1528ZM69.2337 20.5931L68.6895 20.9954L68.6938 21.0012L68.6982 21.007L69.2337 20.5931ZM68.2423 19.7639L68.5928 19.1848L68.5814 19.1782L68.2423 19.7639ZM67.5573 19.3674L67.205 19.9452L67.2116 19.9492L67.2182 19.9531L67.5573 19.3674ZM66.4397 18.6644L66.0337 19.2058L66.0487 19.2171L66.0643 19.2275L66.4397 18.6644ZM65.8629 18.0695L65.2907 18.4309L65.2952 18.438L65.2998 18.4449L65.8629 18.0695ZM66.1513 16.1227L66.5918 16.6366L66.5918 16.6366L66.1513 16.1227ZM69.1256 16.1408H69.8024V15.7813L69.5045 15.58L69.1256 16.1408ZM69.1256 16.9339L68.5857 17.3421L69.8024 18.9512V16.9339H69.1256ZM66.584 16.4833L66.1612 15.9548L66.584 16.4833ZM66.4397 17.9253L65.8868 18.3156L65.8925 18.3236L65.8983 18.3314L66.4397 17.9253ZM67.0346 18.4661L66.6592 19.0292L66.6652 19.0332L66.6712 19.0371L67.0346 18.4661ZM68.3324 19.2232L68.667 18.6348L68.6631 18.6327L68.3324 19.2232ZM69.6844 20.3047L69.1492 20.7191L69.1559 20.7275L69.6844 20.3047ZM69.3779 23.5313L69.8375 24.0282L69.838 24.0277L69.3779 23.5313ZM67.6114 23.5215C67.1097 23.5215 66.6931 23.438 66.3479 23.2887L65.8106 24.5311C66.3546 24.7663 66.9595 24.8751 67.6114 24.8751V23.5215ZM66.3618 23.2949C65.9989 23.1282 65.8026 22.9463 65.7003 22.7801L64.5475 23.4895C64.8297 23.9481 65.2703 24.283 65.7967 24.5249L66.3618 23.2949ZM65.8007 23.1348V22.1794H64.4471V23.1348H65.8007ZM64.5048 22.4529C64.7761 23.0669 65.1675 23.5665 65.6978 23.904L66.4246 22.7621C66.1618 22.5948 65.9283 22.3254 65.7429 21.9059L64.5048 22.4529ZM65.7104 23.9118C66.2416 24.2338 66.8776 24.3704 67.5754 24.3704V23.0168C67.0474 23.0168 66.6739 22.913 66.412 22.7543L65.7104 23.9118ZM67.5754 24.3704C68.3136 24.3704 68.9707 24.1386 69.478 23.6314L68.5208 22.6742C68.3071 22.888 68.0148 23.0168 67.5754 23.0168V24.3704ZM69.4857 23.6234C69.9826 23.11 70.217 22.4597 70.217 21.7288H68.8634C68.8634 22.1515 68.7372 22.4505 68.5131 22.6821L69.4857 23.6234ZM70.217 21.7288C70.217 21.1545 70.0996 20.6068 69.7693 20.1793L68.6982 21.007C68.7765 21.1083 68.8634 21.3176 68.8634 21.7288H70.217ZM69.778 20.1909C69.5004 19.8153 69.0877 19.4845 68.5928 19.1849L67.8919 20.3429C68.3103 20.5962 68.5585 20.8182 68.6895 20.9954L69.778 20.1909ZM68.5814 19.1782L67.8964 18.7817L67.2182 19.9531L67.9032 20.3497L68.5814 19.1782ZM67.9097 18.7895C67.4192 18.4904 67.0559 18.2618 66.8152 18.1012L66.0643 19.2275C66.3283 19.4035 66.7101 19.6435 67.205 19.9452L67.9097 18.7895ZM66.8458 18.1229C66.6575 17.9817 66.5216 17.8375 66.4261 17.6941L65.2998 18.4449C65.4926 18.7342 65.7413 18.9866 66.0337 19.2058L66.8458 18.1229ZM66.4351 17.7081C66.3668 17.5999 66.3234 17.4638 66.3234 17.2764H64.9698C64.9698 17.6899 65.0707 18.0825 65.2907 18.4309L66.4351 17.7081ZM66.3234 17.2764C66.3234 16.9744 66.4191 16.7846 66.5918 16.6366L65.7109 15.6089C65.2106 16.0377 64.9698 16.6171 64.9698 17.2764H66.3234ZM66.5918 16.6366C66.7801 16.4752 67.051 16.3669 67.4672 16.3669V15.0133C66.8019 15.0133 66.1955 15.1935 65.7109 15.6089L66.5918 16.6366ZM67.4672 16.3669C68.0246 16.3669 68.4375 16.4927 68.7467 16.7016L69.5045 15.58C68.9244 15.188 68.2317 15.0133 67.4672 15.0133V16.3669ZM68.4488 16.1408V16.9339H69.8024V16.1408H68.4488ZM69.6654 16.5257C69.1473 15.8404 68.3992 15.5181 67.5213 15.5181V16.8716C68.0373 16.8716 68.3588 17.042 68.5857 17.3421L69.6654 16.5257ZM67.5213 15.5181C67.0223 15.5181 66.5489 15.6446 66.1612 15.9548L67.0067 17.0118C67.0997 16.9374 67.2512 16.8716 67.5213 16.8716V15.5181ZM66.1612 15.9548C65.7648 16.2718 65.5466 16.7105 65.5466 17.2223H66.9002C66.9002 17.1333 66.9224 17.0793 67.0067 17.0118L66.1612 15.9548ZM65.5466 17.2223C65.5466 17.618 65.6573 17.9904 65.8868 18.3156L66.9927 17.535C66.9338 17.4517 66.9002 17.3554 66.9002 17.2223H65.5466ZM65.8983 18.3314C66.0988 18.5987 66.359 18.8291 66.6592 19.0292L67.41 17.903C67.2055 17.7666 67.0691 17.6365 66.9812 17.5192L65.8983 18.3314ZM66.6712 19.0371C66.9528 19.2163 67.3997 19.4765 68.0018 19.8137L68.6631 18.6327C68.0635 18.2969 67.6451 18.0524 67.3979 17.8951L66.6712 19.0371ZM67.9979 19.8115C68.568 20.1357 68.9357 20.4432 69.1492 20.719L70.2195 19.8904C69.8562 19.4211 69.3226 19.0076 68.667 18.6348L67.9979 19.8115ZM69.1559 20.7275C69.3245 20.9383 69.4402 21.2506 69.4402 21.7288H70.7938C70.7938 21.0293 70.6211 20.3922 70.2129 19.8819L69.1559 20.7275ZM69.4402 21.7288C69.4402 22.3082 69.2565 22.7211 68.9179 23.0349L69.838 24.0277C70.4848 23.4283 70.7938 22.6394 70.7938 21.7288H69.4402ZM68.9184 23.0345C68.5713 23.3555 68.1501 23.5215 67.6114 23.5215V24.8751C68.4668 24.8751 69.2232 24.5964 69.8375 24.0282L68.9184 23.0345ZM76.2576 24.1082V24.785H76.9344V24.1082H76.2576ZM74.0404 23.297L73.5775 23.7908L73.5826 23.7955L74.0404 23.297ZM73.1752 12.6258V11.949H72.4984V12.6258H73.1752ZM73.752 12.6258H74.4288V11.949H73.752V12.6258ZM73.752 15.8884H73.0752V16.5652H73.752V15.8884ZM76.2396 15.8884H76.9164V15.2116H76.2396V15.8884ZM76.2396 16.3931V17.0699H76.9164V16.3931H76.2396ZM73.752 16.3931V15.7163H73.0752V16.3931H73.752ZM74.455 22.9365L73.9827 23.4212L73.989 23.4274L73.9954 23.4333L74.455 22.9365ZM76.2576 23.6034H76.9344V22.9266H76.2576V23.6034ZM76.2576 23.4314C75.5173 23.4314 74.9478 23.2114 74.4982 22.7985L73.5826 23.7955C74.3107 24.4641 75.2194 24.785 76.2576 24.785V23.4314ZM74.5033 22.8032C74.09 22.4158 73.852 21.8647 73.852 21.0618H72.4984C72.4984 22.1576 72.8372 23.0967 73.5775 23.7907L74.5033 22.8032ZM73.852 21.0618V12.6258H72.4984V21.0618H73.852ZM73.1752 13.3026H73.752V11.949H73.1752V13.3026ZM73.0752 12.6258V15.8884H74.4288V12.6258H73.0752ZM73.752 16.5652H76.2396V15.2116H73.752V16.5652ZM75.5628 15.8884V16.3931H76.9164V15.8884H75.5628ZM76.2396 15.7163H73.752V17.0699H76.2396V15.7163ZM73.0752 16.3931V21.0618H74.4288V16.3931H73.0752ZM73.0752 21.0618C73.0752 21.996 73.3563 22.8109 73.9827 23.4212L74.9273 22.4517C74.6164 22.1488 74.4288 21.7139 74.4288 21.0618H73.0752ZM73.9954 23.4333C74.6143 24.0058 75.3849 24.2802 76.2576 24.2802V22.9266C75.6882 22.9266 75.2571 22.7565 74.9146 22.4396L73.9954 23.4333ZM75.5808 23.6034V24.1082H76.9344V23.6034H75.5808ZM80.8923 23.6215L80.552 24.2064L80.8923 23.6215ZM79.3241 22.0712L78.7391 22.4116L78.7418 22.4163L79.3241 22.0712ZM79.3241 17.8352L79.9063 18.1802L79.9091 18.1756L79.3241 17.8352ZM80.8923 16.267L80.552 15.682L80.8923 16.267ZM85.2545 16.321L84.9048 16.9005L84.9123 16.9049L85.2545 16.321ZM86.7146 17.9253L86.0902 18.1864L87.3914 17.9253H86.7146ZM86.7146 15.8884V15.2116H86.0378V15.8884H86.7146ZM87.2915 15.8884H87.9683V15.2116H87.2915V15.8884ZM87.2915 24V24.6768H87.9683V24H87.2915ZM86.7146 24H86.0378V24.6768H86.7146V24ZM86.7146 21.9811H87.3914L86.105 21.6872L86.7146 21.9811ZM85.2005 23.6034L85.5441 24.1865L85.5472 24.1847L85.2005 23.6034ZM84.9121 23.1888L85.2585 23.7703L85.2674 23.7648L84.9121 23.1888ZM86.246 21.8189L85.6613 21.4779L85.6591 21.4818L86.246 21.8189ZM86.246 18.0876L85.6614 18.4286L86.246 18.0876ZM84.894 16.7176L84.5386 17.2936L84.5476 17.299L84.894 16.7176ZM81.1987 16.7176L80.8488 16.1383L80.8434 16.1416L81.1987 16.7176ZM79.8288 18.1056L79.2494 17.7556L79.2442 17.7646L79.8288 18.1056ZM79.8288 21.8189L79.2442 22.1599L79.2484 22.1671L79.2528 22.1743L79.8288 21.8189ZM81.2168 23.1888L80.8668 23.7682L80.8758 23.7734L81.2168 23.1888ZM83.0374 23.5215C82.3871 23.5215 81.7896 23.3605 81.2327 23.0365L80.552 24.2064C81.3169 24.6515 82.1494 24.8751 83.0374 24.8751V23.5215ZM81.2327 23.0365C80.6701 22.7091 80.2312 22.2744 79.9063 21.7262L78.7418 22.4163C79.1861 23.1659 79.7927 23.7647 80.552 24.2064L81.2327 23.0365ZM79.9091 21.7309C79.584 21.1722 79.424 20.5805 79.424 19.9442H78.0704C78.0704 20.8221 78.295 21.6484 78.7391 22.4116L79.9091 21.7309ZM79.424 19.9442C79.424 19.3081 79.5839 18.7243 79.9063 18.1802L78.7418 17.4902C78.2951 18.2439 78.0704 19.0662 78.0704 19.9442H79.424ZM79.9091 18.1756C80.2346 17.616 80.6731 17.1775 81.2327 16.8519L80.552 15.682C79.7896 16.1255 79.1826 16.7325 78.7391 17.4948L79.9091 18.1756ZM81.2327 16.8519C81.7896 16.5279 82.3871 16.3669 83.0374 16.3669V15.0133C82.1494 15.0133 81.3169 15.2369 80.552 15.682L81.2327 16.8519ZM83.0374 16.3669C83.6899 16.3669 84.3087 16.5408 84.9049 16.9005L85.6042 15.7416C84.8064 15.2601 83.9471 15.0133 83.0374 15.0133V16.3669ZM84.9123 16.9049C85.4997 17.2492 85.8776 17.6779 86.0902 18.1864L87.339 17.6642C86.9989 16.8509 86.4034 16.21 85.5968 15.7372L84.9123 16.9049ZM87.3914 17.9253V15.8884H86.0378V17.9253H87.3914ZM86.7146 16.5652H87.2915V15.2116H86.7146V16.5652ZM86.6147 15.8884V24H87.9683V15.8884H86.6147ZM87.2915 23.3232H86.7146V24.6768H87.2915V23.3232ZM87.3914 24V21.9811H86.0378V24H87.3914ZM86.105 21.6872C85.8421 22.2325 85.4329 22.6767 84.8538 23.0222L85.5472 24.1847C86.338 23.713 86.9383 23.0757 87.3243 22.275L86.105 21.6872ZM84.8569 23.0203C84.2863 23.3566 83.6837 23.5215 83.0374 23.5215V24.8751C83.9293 24.8751 84.7687 24.6434 85.5441 24.1865L84.8569 23.0203ZM83.0734 24.3704C83.8556 24.3704 84.5883 24.1695 85.2584 23.7703L84.5657 22.6074C84.1062 22.8811 83.6131 23.0168 83.0734 23.0168V24.3704ZM85.2674 23.7648C85.9262 23.3584 86.4512 22.8204 86.8328 22.156L85.6591 21.4818C85.3918 21.947 85.0275 22.3223 84.5567 22.6129L85.2674 23.7648ZM86.8306 22.1599C87.2279 21.4787 87.4275 20.736 87.4275 19.9442H86.0739C86.0739 20.4983 85.937 21.0054 85.6614 21.4779L86.8306 22.1599ZM87.4275 19.9442C87.4275 19.1621 87.2268 18.4257 86.8306 17.7465L85.6614 18.4286C85.9381 18.903 86.0739 19.4044 86.0739 19.9442H87.4275ZM86.8306 17.7465C86.4373 17.0723 85.9053 16.5323 85.2404 16.1362L84.5476 17.299C85.0124 17.5759 85.3817 17.9491 85.6614 18.4286L86.8306 17.7465ZM85.2494 16.1416C84.5783 15.7275 83.8424 15.5181 83.0554 15.5181V16.8716C83.5903 16.8716 84.0802 17.0107 84.5386 17.2936L85.2494 16.1416ZM83.0554 15.5181C82.2686 15.5181 81.529 15.7273 80.8488 16.1383L81.5487 17.2969C82.0221 17.0109 82.5204 16.8716 83.0554 16.8716V15.5181ZM80.8434 16.1416C80.1856 16.5475 79.6527 17.0882 79.2495 17.7556L80.4081 18.4556C80.7019 17.9693 81.0823 17.5847 81.5541 17.2936L80.8434 16.1416ZM79.2442 17.7646C78.848 18.4438 78.6473 19.1802 78.6473 19.9622H80.0009C80.0009 19.4224 80.1366 18.921 80.4134 18.4466L79.2442 17.7646ZM78.6473 19.9622C78.6473 20.7443 78.848 21.4807 79.2442 22.1599L80.4134 21.4779C80.1366 21.0034 80.0009 20.502 80.0009 19.9622H78.6473ZM79.2528 22.1743C79.6587 22.8321 80.1994 23.3649 80.8668 23.7681L81.5668 22.6096C81.0805 22.3158 80.6959 21.9353 80.4048 21.4635L79.2528 22.1743ZM80.8758 23.7734C81.555 24.1696 82.2914 24.3704 83.0734 24.3704V23.0168C82.5336 23.0168 82.0322 22.881 81.5578 22.6042L80.8758 23.7734ZM91.0087 15.8884V15.2116H90.3319V15.8884H91.0087ZM91.5855 15.8884H92.2623V15.2116H91.5855V15.8884ZM91.5855 17.7631H90.9087L92.2121 18.0189L91.5855 17.7631ZM92.631 16.3751L92.2363 15.8253L92.2295 15.8302L92.631 16.3751ZM95.3529 16.1047H96.0297V15.6492L95.6076 15.4777L95.3529 16.1047ZM95.3529 16.7717L94.9439 17.3109L96.0297 18.1346V16.7717H95.3529ZM92.9194 16.7717L92.5517 16.2034L92.544 16.2085L92.9194 16.7717ZM91.946 17.8352L91.3573 17.5011L91.3507 17.5134L91.946 17.8352ZM91.5855 24V24.6768H92.2623V24H91.5855ZM91.0087 24H90.3319V24.6768H91.0087V24ZM91.0087 16.5652H91.5855V15.2116H91.0087V16.5652ZM90.9087 15.8884V17.7631H92.2623V15.8884H90.9087ZM92.2121 18.0189C92.4113 17.5309 92.6878 17.1739 93.0325 16.92L92.2295 15.8302C91.6609 16.2492 91.2404 16.8176 90.9589 17.5073L92.2121 18.0189ZM93.0257 16.9249C93.3768 16.6728 93.7669 16.5472 94.2173 16.5472V15.1936C93.4899 15.1936 92.8225 15.4044 92.2363 15.8253L93.0257 16.9249ZM94.2173 16.5472C94.493 16.5472 94.7853 16.6046 95.0982 16.7318L95.6076 15.4777C95.1514 15.2924 94.6866 15.1936 94.2173 15.1936V16.5472ZM94.6761 16.1047V16.7717H96.0297V16.1047H94.6761ZM95.762 16.2325C95.2972 15.8799 94.7633 15.6983 94.1812 15.6983V17.0519C94.4644 17.0519 94.7116 17.1347 94.9439 17.3109L95.762 16.2325ZM94.1812 15.6983C93.6023 15.6983 93.0558 15.8773 92.5518 16.2035L93.2871 17.3399C93.6003 17.1373 93.8949 17.0519 94.1812 17.0519V15.6983ZM92.544 16.2085C92.0531 16.5358 91.6581 16.9714 91.3574 17.5011L92.5346 18.1693C92.7387 17.8097 92.9926 17.5363 93.2948 17.3348L92.544 16.2085ZM91.3507 17.5134C91.057 18.0567 90.9087 18.642 90.9087 19.2592H92.2623C92.2623 18.867 92.3544 18.503 92.5414 18.157L91.3507 17.5134ZM90.9087 19.2592V24H92.2623V19.2592H90.9087ZM91.5855 23.3232H91.0087V24.6768H91.5855V23.3232ZM91.6855 24V15.8884H90.3319V24H91.6855ZM101.127 24.1082V24.785H101.804V24.1082H101.127ZM98.9096 23.297L98.4467 23.7908L98.4518 23.7955L98.9096 23.297ZM98.0444 12.6258V11.949H97.3676V12.6258H98.0444ZM98.6212 12.6258H99.298V11.949H98.6212V12.6258ZM98.6212 15.8884H97.9444V16.5652H98.6212V15.8884ZM101.109 15.8884H101.786V15.2116H101.109V15.8884ZM101.109 16.3931V17.0699H101.786V16.3931H101.109ZM98.6212 16.3931V15.7163H97.9444V16.3931H98.6212ZM99.3242 22.9365L98.8519 23.4212L98.8582 23.4274L98.8646 23.4333L99.3242 22.9365ZM101.127 23.6034H101.804V22.9266H101.127V23.6034ZM101.127 23.4314C100.386 23.4314 99.817 23.2114 99.3674 22.7985L98.4518 23.7955C99.1799 24.4641 100.089 24.785 101.127 24.785V23.4314ZM99.3725 22.8032C98.9592 22.4158 98.7212 21.8647 98.7212 21.0618H97.3676C97.3676 22.1576 97.7064 23.0967 98.4467 23.7907L99.3725 22.8032ZM98.7212 21.0618V12.6258H97.3676V21.0618H98.7212ZM98.0444 13.3026H98.6212V11.949H98.0444V13.3026ZM97.9444 12.6258V15.8884H99.298V12.6258H97.9444ZM98.6212 16.5652H101.109V15.2116H98.6212V16.5652ZM100.432 15.8884V16.3931H101.786V15.8884H100.432ZM101.109 15.7163H98.6212V17.0699H101.109V15.7163ZM97.9444 16.3931V21.0618H99.298V16.3931H97.9444ZM97.9444 21.0618C97.9444 21.996 98.2255 22.8109 98.8519 23.4212L99.7965 22.4517C99.4856 22.1488 99.298 21.7139 99.298 21.0618H97.9444ZM98.8646 23.4333C99.4835 24.0058 100.254 24.2802 101.127 24.2802V22.9266C100.557 22.9266 100.126 22.7565 99.7838 22.4396L98.8646 23.4333ZM100.45 23.6034V24.1082H101.804V23.6034H100.45ZM109.277 23.2249L108.939 22.638L109.277 23.2249ZM110.683 21.891H111.359V19.6357L110.118 21.5183L110.683 21.891ZM110.683 22.8103L111.185 23.2637L111.359 23.0705V22.8103H110.683ZM109.222 23.8918L109.479 24.5184L109.491 24.5132L109.222 23.8918ZM105.311 23.6215L104.958 24.199L104.963 24.2018L105.311 23.6215ZM103.743 22.0352L103.158 22.3756L103.162 22.3834L103.743 22.0352ZM103.743 17.7631L104.322 18.1129L104.325 18.1081L103.743 17.7631ZM105.311 16.2489L104.991 15.6523L104.987 15.6548L105.311 16.2489ZM110.737 17.1863L111.212 17.6679L111.67 17.2163L111.242 16.7362L110.737 17.1863ZM105.077 22.7742L104.601 22.2926L104.065 22.8214L104.648 23.2981L105.077 22.7742ZM106.23 23.4953L105.968 24.1194L105.977 24.123L105.986 24.1264L106.23 23.4953ZM104.734 22.4318L104.239 22.8933L104.715 23.4042L105.211 22.912L104.734 22.4318ZM110.016 17.1863L110.493 17.6665L111.006 17.156L110.462 16.6779L110.016 17.1863ZM108.862 16.4472L108.6 17.0714L108.609 17.075L108.618 17.0784L108.862 16.4472ZM105.563 16.6996L105.891 17.2918L105.895 17.2895L105.563 16.6996ZM104.229 17.9974L103.646 17.6548L104.229 17.9974ZM107.492 24.3884C108.24 24.3884 108.951 24.1925 109.614 23.8117L108.939 22.638C108.473 22.9062 107.993 23.0348 107.492 23.0348V24.3884ZM109.614 23.8117C110.274 23.4326 110.819 22.9131 111.248 22.2636L110.118 21.5183C109.801 21.9985 109.409 22.3683 108.939 22.638L109.614 23.8117ZM110.006 21.891V22.8103H111.359V21.891H110.006ZM110.18 22.3569C109.791 22.7884 109.381 23.0861 108.954 23.2705L109.491 24.5132C110.121 24.2409 110.685 23.8176 111.185 23.2637L110.18 22.3569ZM108.966 23.2654C108.532 23.4431 108.02 23.5395 107.42 23.5395V24.8931C108.165 24.8931 108.855 24.7732 109.479 24.5183L108.966 23.2654ZM107.42 23.5395C106.802 23.5395 106.219 23.3768 105.659 23.0411L104.963 24.2018C105.725 24.6592 106.548 24.8931 107.42 24.8931V23.5395ZM105.664 23.044C105.109 22.7051 104.664 22.2556 104.323 21.687L103.162 22.3834C103.614 23.1367 104.215 23.7446 104.958 24.199L105.664 23.044ZM104.328 21.6948C104.002 21.1344 103.843 20.5484 103.843 19.9262H102.489C102.489 20.7941 102.715 21.6141 103.158 22.3756L104.328 21.6948ZM103.843 19.9262C103.843 19.2338 104.006 18.6356 104.322 18.1129L103.163 17.4133C102.71 18.1644 102.489 19.0082 102.489 19.9262H103.843ZM104.325 18.1081C104.647 17.5637 105.081 17.1452 105.635 16.8431L104.987 15.6548C104.219 16.0737 103.607 16.6646 103.16 17.4181L104.325 18.1081ZM105.63 16.8455C106.198 16.5413 106.832 16.385 107.546 16.385V15.0314C106.625 15.0314 105.769 15.2355 104.991 15.6523L105.63 16.8455ZM107.546 16.385C108.591 16.385 109.474 16.786 110.231 17.6363L111.242 16.7362C110.245 15.6157 109.001 15.0314 107.546 15.0314V16.385ZM110.261 16.7046L104.601 22.2926L105.552 23.2559L111.212 17.6679L110.261 16.7046ZM104.648 23.2981C105.082 23.6533 105.522 23.9323 105.968 24.1194L106.492 22.8711C106.193 22.7458 105.864 22.5441 105.505 22.2504L104.648 23.2981ZM105.986 24.1264C106.449 24.3055 106.954 24.3884 107.492 24.3884V23.0348C107.093 23.0348 106.757 22.9734 106.474 22.8641L105.986 24.1264ZM103.066 19.8721C103.066 21.0353 103.458 22.055 104.239 22.8933L105.229 21.9703C104.689 21.3905 104.419 20.7037 104.419 19.8721H103.066ZM105.211 22.912L110.493 17.6665L109.539 16.7061L104.257 21.9516L105.211 22.912ZM110.462 16.6779C110.024 16.2928 109.573 15.9965 109.106 15.8161L108.618 17.0784C108.896 17.1863 109.214 17.3827 109.569 17.6947L110.462 16.6779ZM109.124 15.8231C108.649 15.6239 108.111 15.5361 107.528 15.5361V16.8897C107.979 16.8897 108.33 16.9581 108.6 17.0714L109.124 15.8231ZM107.528 15.5361C106.692 15.5361 105.92 15.7223 105.231 16.1097L105.895 17.2895C106.36 17.0279 106.898 16.8897 107.528 16.8897V15.5361ZM105.236 16.1074C104.565 16.4781 104.032 16.9966 103.646 17.6548L104.813 18.34C105.076 17.8927 105.431 17.5459 105.891 17.2918L105.236 16.1074ZM103.646 17.6548C103.255 18.3205 103.066 19.0655 103.066 19.8721H104.419C104.419 19.2847 104.555 18.7799 104.813 18.34L103.646 17.6548ZM115.64 23.6215L115.295 24.2037L115.3 24.2064L115.64 23.6215ZM114.09 22.0712L114.672 21.7262L114.09 22.0712ZM114.09 17.8172L113.508 17.4721H113.508L114.09 17.8172ZM115.64 16.267L115.3 15.6819L115.295 15.6847L115.64 16.267ZM119.966 16.303L119.619 16.8843L119.627 16.8887L119.966 16.303ZM121.48 17.8712L120.875 18.1739L122.157 17.8712H121.48ZM121.48 10.4807V9.80389H120.804V10.4807H121.48ZM122.057 10.4807H122.734V9.80389H122.057V10.4807ZM122.057 24V24.6768H122.734V24H122.057ZM121.48 24H120.804V24.6768H121.48V24ZM121.48 22.0352H122.157V19.4233L120.889 21.7065L121.48 22.0352ZM119.912 23.6034L119.573 23.0177L119.569 23.0203L119.912 23.6034ZM119.624 23.1888L119.97 23.7703L119.974 23.7681L119.624 23.1888ZM120.994 21.8189L120.414 21.4689L120.412 21.4725L120.994 21.8189ZM120.994 18.1056L120.409 18.4466L120.414 18.4556L120.994 18.1056ZM119.624 16.7176L119.268 17.2936L119.274 17.2969L119.624 16.7176ZM115.946 16.7176L116.293 17.2991L116.302 17.2936L115.946 16.7176ZM114.595 18.0876L114.01 17.7465L114.595 18.0876ZM114.577 21.8189L113.987 22.1507L113.991 22.158L113.995 22.1653L114.577 21.8189ZM115.928 23.1888L115.573 23.7648L115.58 23.7692L115.587 23.7734L115.928 23.1888ZM117.803 23.5215C117.139 23.5215 116.536 23.3595 115.98 23.0365L115.3 24.2064C116.066 24.6525 116.905 24.8751 117.803 24.8751V23.5215ZM115.985 23.0392C115.434 22.7126 114.999 22.2774 114.672 21.7262L113.508 22.4163C113.95 23.1629 114.548 23.7612 115.295 24.2037L115.985 23.0392ZM114.672 21.7262C114.351 21.1839 114.19 20.5944 114.19 19.9442H112.836C112.836 20.8322 113.06 21.6608 113.508 22.4163L114.672 21.7262ZM114.19 19.9442C114.19 19.294 114.351 18.7045 114.672 18.1622L113.508 17.4721C113.06 18.2276 112.836 19.0562 112.836 19.9442H114.19ZM114.672 18.1622C114.999 17.611 115.434 17.1758 115.985 16.8492L115.295 15.6847C114.548 16.1272 113.95 16.7255 113.508 17.4721L114.672 18.1622ZM115.98 16.8519C116.536 16.5289 117.139 16.3669 117.803 16.3669V15.0133C116.905 15.0133 116.066 15.2359 115.3 15.682L115.98 16.8519ZM117.803 16.3669C118.432 16.3669 119.034 16.5347 119.62 16.8843L120.313 15.7218C119.529 15.2541 118.689 15.0133 117.803 15.0133V16.3669ZM119.627 16.8887C120.208 17.2253 120.615 17.6541 120.875 18.1739L122.086 17.5686C121.697 16.7906 121.094 16.1739 120.305 15.7173L119.627 16.8887ZM122.157 17.8712V10.4807H120.804V17.8712H122.157ZM121.48 11.1575H122.057V9.80389H121.48V11.1575ZM121.38 10.4807V24H122.734V10.4807H121.38ZM122.057 23.3232H121.48V24.6768H122.057V23.3232ZM122.157 24V22.0352H120.804V24H122.157ZM120.889 21.7065C120.592 22.2414 120.159 22.6782 119.573 23.0177L120.251 24.1892C121.035 23.7355 121.648 23.1269 122.072 22.3639L120.889 21.7065ZM119.569 23.0203C118.993 23.3597 118.407 23.5215 117.803 23.5215V24.8751C118.665 24.8751 119.486 24.6403 120.256 24.1865L119.569 23.0203ZM117.785 24.3704C118.567 24.3704 119.3 24.1695 119.97 23.7703L119.277 22.6074C118.818 22.8811 118.325 23.0168 117.785 23.0168V24.3704ZM119.974 23.7681C120.643 23.3637 121.18 22.828 121.575 22.1653L120.412 21.4725C120.134 21.9394 119.758 22.317 119.274 22.6096L119.974 23.7681ZM121.573 22.1689C121.984 21.4886 122.193 20.7491 122.193 19.9622H120.84C120.84 20.4973 120.7 20.9955 120.414 21.4689L121.573 22.1689ZM122.193 19.9622C122.193 19.1754 121.984 18.4358 121.573 17.7556L120.414 18.4556C120.7 18.929 120.84 19.4272 120.84 19.9622H122.193ZM121.578 17.7646C121.184 17.089 120.647 16.5448 119.974 16.1383L119.274 17.2969C119.755 17.5874 120.13 17.9685 120.409 18.4466L121.578 17.7646ZM119.979 16.1416C119.308 15.7275 118.572 15.5181 117.785 15.5181V16.8716C118.32 16.8716 118.81 17.0107 119.268 17.2936L119.979 16.1416ZM117.785 15.5181C116.998 15.5181 116.262 15.7275 115.591 16.1416L116.302 17.2936C116.76 17.0107 117.25 16.8716 117.785 16.8716V15.5181ZM115.6 16.1362C114.935 16.5323 114.403 17.0723 114.01 17.7465L115.179 18.4286C115.459 17.9491 115.828 17.5759 116.293 17.299L115.6 16.1362ZM114.01 17.7465C113.614 18.4257 113.413 19.1621 113.413 19.9442H114.767C114.767 19.4044 114.902 18.903 115.179 18.4286L114.01 17.7465ZM113.413 19.9442C113.413 20.7313 113.604 21.4708 113.987 22.1507L115.166 21.4871C114.9 21.0133 114.767 20.503 114.767 19.9442H113.413ZM113.995 22.1653C114.388 22.8246 114.916 23.3597 115.573 23.7648L116.284 22.6129C115.811 22.321 115.438 21.9428 115.158 21.4725L113.995 22.1653ZM115.587 23.7734C116.267 24.1696 117.003 24.3704 117.785 24.3704V23.0168C117.245 23.0168 116.744 22.881 116.269 22.6042L115.587 23.7734Z" fill="#FFFF00" mask="url(#path-3-outside-1_33_232)"/>
</g>
<defs>
<filter id="filter0_d_33_232" x="0" y="0" width="190" height="46.0895" filterUnits="userSpaceOnUse" color-interpolation-filters="sRGB">
<feFlood flood-opacity="0" result="BackgroundImageFix"/>
<feColorMatrix in="SourceAlpha" type="matrix" values="0 0 0 0 0 0 0 0 0 0 0 0 0 0 0 0 0 0 127 0" result="hardAlpha"/>
<feOffset dx="15" dy="10"/>
<feComposite in2="hardAlpha" operator="out"/>
<feColorMatrix type="matrix" values="0 0 0 0 1 0 0 0 0 1 0 0 0 0 0 0 0 0 1 0"/>
<feBlend mode="normal" in2="BackgroundImageFix" result="effect1_dropShadow_33_232"/>
<feBlend mode="normal" in="SourceGraphic" in2="effect1_dropShadow_33_232" result="shape"/>
</filter>
</defs>
</svg>
