<svg width="272" height="70" viewBox="0 0 272 70" fill="none" xmlns="http://www.w3.org/2000/svg">
<g filter="url(#filter0_d_95_26)">
<path d="M0 27.5C0 12.3122 12.3122 0 27.5 0H229.5C244.688 0 257 12.3122 257 27.5V27.5C257 42.6878 244.688 55 229.5 55H27.5C12.3122 55 0 42.6878 0 27.5V27.5Z" fill="black" shape-rendering="crispEdges"/>
<path d="M224.092 26.0253L202.977 13.7551C202.622 13.5487 202.214 13.4597 201.809 13.5C201.404 13.5404 201.02 13.7081 200.709 13.9809C200.398 14.2536 200.175 14.6183 200.069 15.0263C199.963 15.4343 199.98 15.8662 200.116 16.2641L203.742 26.7985H213.161C213.426 26.7985 213.681 26.9078 213.868 27.1025C214.056 27.2971 214.161 27.561 214.161 27.8363C214.161 28.1115 214.056 28.3754 213.868 28.57C213.681 28.7647 213.426 28.874 213.161 28.874H203.742L200.116 39.4084C200.009 39.7216 199.976 40.0568 200.019 40.3861C200.063 40.7153 200.181 41.029 200.365 41.3009C200.549 41.5728 200.794 41.795 201.077 41.9489C201.361 42.1028 201.676 42.1839 201.997 42.1854C202.34 42.1848 202.678 42.0925 202.977 41.9174L224.091 29.6472C224.402 29.4669 224.66 29.2041 224.84 28.8858C225.02 28.5675 225.114 28.2052 225.114 27.8363C225.114 27.4673 225.02 27.1051 224.84 26.7867C224.66 26.4684 224.402 26.2056 224.092 26.0253V26.0253Z" fill="#FFFF00"/>
<mask id="path-3-outside-1_95_26" maskUnits="userSpaceOnUse" x="38" y="11" width="137" height="28" fill="black">
<rect fill="white" x="38" y="11" width="137" height="28"/>
<path d="M46.4575 37.5398C45.4454 37.5398 44.4599 37.309 43.5011 36.8474C42.5423 36.3857 41.7966 35.782 41.2639 35.0363V33.8111C41.7255 34.6634 42.4446 35.3736 43.4212 35.9418C44.4156 36.51 45.4276 36.7941 46.4575 36.7941C48.1621 36.7941 49.476 36.2881 50.3993 35.276C51.3226 34.2816 51.7843 32.8168 51.7843 30.8814V29.0969C51.3049 30.0557 50.5502 30.837 49.5204 31.4407C48.5083 32.0266 47.4429 32.3196 46.3243 32.3196C45.1879 32.3196 44.1315 32.0355 43.1549 31.4673C42.1783 30.8991 41.4059 30.1356 40.8377 29.1768C40.2695 28.2002 39.9855 27.1526 39.9855 26.034C39.9855 24.9154 40.2695 23.8767 40.8377 22.9178C41.4059 21.9413 42.1783 21.1689 43.1549 20.6007C44.1315 20.0325 45.1879 19.7484 46.3243 19.7484C47.4962 19.7484 48.5793 20.0414 49.5737 20.6273C50.568 21.2133 51.3049 22.0034 51.7843 22.9977V20.0148H52.6365V30.8814C52.6365 33.0654 52.1039 34.7167 51.0385 35.8353C49.9909 36.9717 48.4639 37.5398 46.4575 37.5398ZM46.3776 31.5739C47.3542 31.5739 48.2597 31.3253 49.0942 30.8281C49.9288 30.3132 50.5857 29.6385 51.0651 28.8039C51.5623 27.9517 51.8109 27.0283 51.8109 26.034C51.8109 25.0397 51.5623 24.1252 51.0651 23.2907C50.5857 22.4384 49.9288 21.7637 49.0942 21.2665C48.2597 20.7516 47.3542 20.4942 46.3776 20.4942C45.3833 20.4942 44.4599 20.7516 43.6077 21.2665C42.7731 21.7637 42.0984 22.4384 41.5835 23.2907C41.0863 24.1252 40.8377 25.0397 40.8377 26.034C40.8377 27.0283 41.0863 27.9517 41.5835 28.8039C42.0984 29.6385 42.7731 30.3132 43.6077 30.8281C44.4599 31.3253 45.3833 31.5739 46.3776 31.5739ZM63.9611 31.5739C64.8845 31.5739 65.7634 31.3342 66.5979 30.8547C67.4324 30.3753 68.1249 29.7184 68.6753 28.8838V30.2422C68.0184 30.9702 67.2993 31.5028 66.518 31.8402C65.7367 32.1598 64.8489 32.3196 63.8546 32.3196C62.7537 32.3196 61.715 32.0266 60.7384 31.4407C59.7796 30.8547 59.0072 30.0735 58.4213 29.0969C57.8531 28.1203 57.569 27.0816 57.569 25.9807C57.569 24.7911 57.8531 23.7257 58.4213 22.7847C58.9895 21.8259 59.7619 21.0801 60.7384 20.5474C61.7328 20.0148 62.8336 19.7484 64.041 19.7484C65.8877 19.7484 67.4591 20.4764 68.7552 21.9324L60.3922 30.1889C60.9782 30.6683 61.5463 31.0234 62.0968 31.2543C62.6472 31.4673 63.2687 31.5739 63.9611 31.5739ZM58.4213 25.9008C58.4213 27.3746 58.9096 28.6353 59.8862 29.6829L67.6899 21.9324C67.1039 21.4175 66.5358 21.0535 65.9853 20.8404C65.4349 20.6096 64.7779 20.4942 64.0144 20.4942C62.9313 20.4942 61.9636 20.7339 61.1113 21.2133C60.2768 21.6749 59.6198 22.3141 59.1404 23.1309C58.661 23.9477 58.4213 24.871 58.4213 25.9008ZM77.838 32.1598C76.5241 32.1598 75.4321 31.7603 74.5621 30.9613C73.7098 30.1623 73.2836 29.0614 73.2836 27.6587V15.194H74.1359V20.0148H77.8114V20.7605H74.1359V27.6587C74.1359 28.8306 74.4822 29.7539 75.1746 30.4286C75.8849 31.0856 76.7727 31.4141 77.838 31.4141V32.1598ZM93.0951 32.293C92.2428 32.293 91.4882 32.1509 90.8312 31.8668C90.1742 31.565 89.7037 31.1832 89.4196 30.7216V29.31C89.757 30.0735 90.2186 30.6417 90.8046 31.0145C91.3905 31.3697 92.1363 31.5472 93.0418 31.5472C93.9118 31.5472 94.6132 31.2809 95.1459 30.7482C95.6786 30.1978 95.9449 29.4964 95.9449 28.6441C95.9449 27.9161 95.794 27.3568 95.4921 26.9662C95.1903 26.5578 94.702 26.1494 94.0273 25.741L93.0152 25.1551C92.2872 24.7112 91.7367 24.365 91.3639 24.1164C91.0088 23.85 90.7247 23.5571 90.5116 23.2375C90.2985 22.9001 90.192 22.5095 90.192 22.0656C90.192 21.3553 90.4406 20.7871 90.9377 20.361C91.4349 19.9349 92.083 19.7218 92.882 19.7218C93.8586 19.7218 94.6753 19.9437 95.3323 20.3876V21.5595C94.7819 20.8315 93.9917 20.4675 92.9619 20.4675C92.3937 20.4675 91.9321 20.6096 91.5769 20.8937C91.2218 21.1778 91.0443 21.5418 91.0443 21.9857C91.0443 22.3763 91.1508 22.7225 91.3639 23.0244C91.5769 23.3085 91.8699 23.5748 92.2428 23.8234C92.6334 24.072 93.2726 24.4449 94.1604 24.942C95.066 25.4569 95.7318 25.9896 96.158 26.5401C96.5841 27.0727 96.7972 27.7741 96.7972 28.6441C96.7972 29.745 96.4332 30.6328 95.7052 31.3075C94.995 31.9645 94.1249 32.293 93.0951 32.293ZM105.87 32.1598C104.556 32.1598 103.464 31.7603 102.594 30.9613C101.742 30.1623 101.316 29.0614 101.316 27.6587V15.194H102.168V20.0148H105.844V20.7605H102.168V27.6587C102.168 28.8306 102.514 29.7539 103.207 30.4286C103.917 31.0856 104.805 31.4141 105.87 31.4141V32.1598ZM115.888 32.293C114.751 32.293 113.695 32.0089 112.718 31.4407C111.742 30.8725 110.969 30.109 110.401 29.1502C109.833 28.1736 109.549 27.126 109.549 26.0074C109.549 24.8888 109.833 23.85 110.401 22.8912C110.969 21.9146 111.742 21.1423 112.718 20.5741C113.695 20.0059 114.751 19.7218 115.888 19.7218C117.042 19.7218 118.134 20.0325 119.164 20.654C120.193 21.2577 120.913 22.0478 121.321 23.0244V20.0148H122.173V32H121.321V29.017C120.842 30.0113 120.096 30.8104 119.084 31.4141C118.089 32 117.024 32.293 115.888 32.293ZM115.941 31.5472C116.917 31.5472 117.823 31.2986 118.658 30.8015C119.492 30.2866 120.149 29.6118 120.628 28.7773C121.126 27.925 121.374 27.0017 121.374 26.0074C121.374 25.0308 121.126 24.1164 120.628 23.2641C120.131 22.4118 119.465 21.7371 118.631 21.2399C117.796 20.725 116.891 20.4675 115.914 20.4675C114.938 20.4675 114.023 20.725 113.171 21.2399C112.336 21.7548 111.662 22.4384 111.147 23.2907C110.65 24.143 110.401 25.0574 110.401 26.034C110.401 27.0106 110.65 27.925 111.147 28.7773C111.662 29.6118 112.345 30.2866 113.198 30.8015C114.05 31.2986 114.964 31.5472 115.941 31.5472ZM127.666 20.0148H128.518V22.7847C128.873 21.9146 129.388 21.231 130.063 20.7339C130.755 20.2367 131.536 19.9881 132.406 19.9881C132.957 19.9881 133.516 20.1035 134.084 20.3344V21.3198C133.569 20.9292 132.992 20.7339 132.353 20.7339C131.714 20.7339 131.093 20.9292 130.489 21.3198C129.903 21.7104 129.423 22.2342 129.051 22.8912C128.695 23.5482 128.518 24.2495 128.518 24.9953V32H127.666V20.0148ZM142.616 32.1598C141.302 32.1598 140.21 31.7603 139.34 30.9613C138.487 30.1623 138.061 29.0614 138.061 27.6587V15.194H138.913V20.0148H142.589V20.7605H138.913V27.6587C138.913 28.8306 139.26 29.7539 139.952 30.4286C140.662 31.0856 141.55 31.4141 142.616 31.4141V32.1598ZM152.02 31.5739C152.944 31.5739 153.823 31.3342 154.657 30.8547C155.492 30.3753 156.184 29.7184 156.735 28.8838V30.2422C156.078 30.9702 155.359 31.5028 154.577 31.8402C153.796 32.1598 152.908 32.3196 151.914 32.3196C150.813 32.3196 149.774 32.0266 148.798 31.4407C147.839 30.8547 147.067 30.0735 146.481 29.0969C145.912 28.1203 145.628 27.0816 145.628 25.9807C145.628 24.7911 145.912 23.7257 146.481 22.7847C147.049 21.8259 147.821 21.0801 148.798 20.5474C149.792 20.0148 150.893 19.7484 152.1 19.7484C153.947 19.7484 155.518 20.4764 156.815 21.9324L148.452 30.1889C149.037 30.6683 149.606 31.0234 150.156 31.2543C150.707 31.4673 151.328 31.5739 152.02 31.5739ZM146.481 25.9008C146.481 27.3746 146.969 28.6353 147.945 29.6829L155.749 21.9324C155.163 21.4175 154.595 21.0535 154.045 20.8404C153.494 20.6096 152.837 20.4942 152.074 20.4942C150.991 20.4942 150.023 20.7339 149.171 21.2133C148.336 21.6749 147.679 22.3141 147.2 23.1309C146.72 23.9477 146.481 24.871 146.481 25.9008ZM167.256 32.293C166.102 32.293 165.036 32.0089 164.06 31.4407C163.101 30.8725 162.337 30.109 161.769 29.1502C161.201 28.1914 160.917 27.1438 160.917 26.0074C160.917 24.871 161.201 23.8234 161.769 22.8646C162.337 21.9058 163.101 21.1423 164.06 20.5741C165.036 20.0059 166.102 19.7218 167.256 19.7218C168.374 19.7218 169.44 20.0236 170.452 20.6273C171.464 21.2133 172.21 21.9857 172.689 22.9445V12.0246H173.541V32H172.689V29.0969C172.156 30.0557 171.384 30.8281 170.372 31.4141C169.377 32 168.339 32.293 167.256 32.293ZM167.229 31.5472C168.206 31.5472 169.111 31.2986 169.946 30.8015C170.798 30.2866 171.473 29.6118 171.97 28.7773C172.485 27.925 172.742 27.0106 172.742 26.034C172.742 25.0574 172.485 24.143 171.97 23.2907C171.473 22.4384 170.798 21.7548 169.946 21.2399C169.111 20.725 168.206 20.4675 167.229 20.4675C166.252 20.4675 165.347 20.725 164.512 21.2399C163.678 21.7371 163.012 22.4118 162.515 23.2641C162.018 24.1164 161.769 25.0308 161.769 26.0074C161.769 27.0017 162.009 27.925 162.488 28.7773C162.985 29.6118 163.651 30.2866 164.486 30.8015C165.338 31.2986 166.252 31.5472 167.229 31.5472Z"/>
</mask>
<path d="M46.4575 37.5398C45.4454 37.5398 44.4599 37.309 43.5011 36.8474C42.5423 36.3857 41.7966 35.782 41.2639 35.0363V33.8111C41.7255 34.6634 42.4446 35.3736 43.4212 35.9418C44.4156 36.51 45.4276 36.7941 46.4575 36.7941C48.1621 36.7941 49.476 36.2881 50.3993 35.276C51.3226 34.2816 51.7843 32.8168 51.7843 30.8814V29.0969C51.3049 30.0557 50.5502 30.837 49.5204 31.4407C48.5083 32.0266 47.4429 32.3196 46.3243 32.3196C45.1879 32.3196 44.1315 32.0355 43.1549 31.4673C42.1783 30.8991 41.4059 30.1356 40.8377 29.1768C40.2695 28.2002 39.9855 27.1526 39.9855 26.034C39.9855 24.9154 40.2695 23.8767 40.8377 22.9178C41.4059 21.9413 42.1783 21.1689 43.1549 20.6007C44.1315 20.0325 45.1879 19.7484 46.3243 19.7484C47.4962 19.7484 48.5793 20.0414 49.5737 20.6273C50.568 21.2133 51.3049 22.0034 51.7843 22.9977V20.0148H52.6365V30.8814C52.6365 33.0654 52.1039 34.7167 51.0385 35.8353C49.9909 36.9717 48.4639 37.5398 46.4575 37.5398ZM46.3776 31.5739C47.3542 31.5739 48.2597 31.3253 49.0942 30.8281C49.9288 30.3132 50.5857 29.6385 51.0651 28.8039C51.5623 27.9517 51.8109 27.0283 51.8109 26.034C51.8109 25.0397 51.5623 24.1252 51.0651 23.2907C50.5857 22.4384 49.9288 21.7637 49.0942 21.2665C48.2597 20.7516 47.3542 20.4942 46.3776 20.4942C45.3833 20.4942 44.4599 20.7516 43.6077 21.2665C42.7731 21.7637 42.0984 22.4384 41.5835 23.2907C41.0863 24.1252 40.8377 25.0397 40.8377 26.034C40.8377 27.0283 41.0863 27.9517 41.5835 28.8039C42.0984 29.6385 42.7731 30.3132 43.6077 30.8281C44.4599 31.3253 45.3833 31.5739 46.3776 31.5739ZM63.9611 31.5739C64.8845 31.5739 65.7634 31.3342 66.5979 30.8547C67.4324 30.3753 68.1249 29.7184 68.6753 28.8838V30.2422C68.0184 30.9702 67.2993 31.5028 66.518 31.8402C65.7367 32.1598 64.8489 32.3196 63.8546 32.3196C62.7537 32.3196 61.715 32.0266 60.7384 31.4407C59.7796 30.8547 59.0072 30.0735 58.4213 29.0969C57.8531 28.1203 57.569 27.0816 57.569 25.9807C57.569 24.7911 57.8531 23.7257 58.4213 22.7847C58.9895 21.8259 59.7619 21.0801 60.7384 20.5474C61.7328 20.0148 62.8336 19.7484 64.041 19.7484C65.8877 19.7484 67.4591 20.4764 68.7552 21.9324L60.3922 30.1889C60.9782 30.6683 61.5463 31.0234 62.0968 31.2543C62.6472 31.4673 63.2687 31.5739 63.9611 31.5739ZM58.4213 25.9008C58.4213 27.3746 58.9096 28.6353 59.8862 29.6829L67.6899 21.9324C67.1039 21.4175 66.5358 21.0535 65.9853 20.8404C65.4349 20.6096 64.7779 20.4942 64.0144 20.4942C62.9313 20.4942 61.9636 20.7339 61.1113 21.2133C60.2768 21.6749 59.6198 22.3141 59.1404 23.1309C58.661 23.9477 58.4213 24.871 58.4213 25.9008ZM77.838 32.1598C76.5241 32.1598 75.4321 31.7603 74.5621 30.9613C73.7098 30.1623 73.2836 29.0614 73.2836 27.6587V15.194H74.1359V20.0148H77.8114V20.7605H74.1359V27.6587C74.1359 28.8306 74.4822 29.7539 75.1746 30.4286C75.8849 31.0856 76.7727 31.4141 77.838 31.4141V32.1598ZM93.0951 32.293C92.2428 32.293 91.4882 32.1509 90.8312 31.8668C90.1742 31.565 89.7037 31.1832 89.4196 30.7216V29.31C89.757 30.0735 90.2186 30.6417 90.8046 31.0145C91.3905 31.3697 92.1363 31.5472 93.0418 31.5472C93.9118 31.5472 94.6132 31.2809 95.1459 30.7482C95.6786 30.1978 95.9449 29.4964 95.9449 28.6441C95.9449 27.9161 95.794 27.3568 95.4921 26.9662C95.1903 26.5578 94.702 26.1494 94.0273 25.741L93.0152 25.1551C92.2872 24.7112 91.7367 24.365 91.3639 24.1164C91.0088 23.85 90.7247 23.5571 90.5116 23.2375C90.2985 22.9001 90.192 22.5095 90.192 22.0656C90.192 21.3553 90.4406 20.7871 90.9377 20.361C91.4349 19.9349 92.083 19.7218 92.882 19.7218C93.8586 19.7218 94.6753 19.9437 95.3323 20.3876V21.5595C94.7819 20.8315 93.9917 20.4675 92.9619 20.4675C92.3937 20.4675 91.9321 20.6096 91.5769 20.8937C91.2218 21.1778 91.0443 21.5418 91.0443 21.9857C91.0443 22.3763 91.1508 22.7225 91.3639 23.0244C91.5769 23.3085 91.8699 23.5748 92.2428 23.8234C92.6334 24.072 93.2726 24.4449 94.1604 24.942C95.066 25.4569 95.7318 25.9896 96.158 26.5401C96.5841 27.0727 96.7972 27.7741 96.7972 28.6441C96.7972 29.745 96.4332 30.6328 95.7052 31.3075C94.995 31.9645 94.1249 32.293 93.0951 32.293ZM105.87 32.1598C104.556 32.1598 103.464 31.7603 102.594 30.9613C101.742 30.1623 101.316 29.0614 101.316 27.6587V15.194H102.168V20.0148H105.844V20.7605H102.168V27.6587C102.168 28.8306 102.514 29.7539 103.207 30.4286C103.917 31.0856 104.805 31.4141 105.87 31.4141V32.1598ZM115.888 32.293C114.751 32.293 113.695 32.0089 112.718 31.4407C111.742 30.8725 110.969 30.109 110.401 29.1502C109.833 28.1736 109.549 27.126 109.549 26.0074C109.549 24.8888 109.833 23.85 110.401 22.8912C110.969 21.9146 111.742 21.1423 112.718 20.5741C113.695 20.0059 114.751 19.7218 115.888 19.7218C117.042 19.7218 118.134 20.0325 119.164 20.654C120.193 21.2577 120.913 22.0478 121.321 23.0244V20.0148H122.173V32H121.321V29.017C120.842 30.0113 120.096 30.8104 119.084 31.4141C118.089 32 117.024 32.293 115.888 32.293ZM115.941 31.5472C116.917 31.5472 117.823 31.2986 118.658 30.8015C119.492 30.2866 120.149 29.6118 120.628 28.7773C121.126 27.925 121.374 27.0017 121.374 26.0074C121.374 25.0308 121.126 24.1164 120.628 23.2641C120.131 22.4118 119.465 21.7371 118.631 21.2399C117.796 20.725 116.891 20.4675 115.914 20.4675C114.938 20.4675 114.023 20.725 113.171 21.2399C112.336 21.7548 111.662 22.4384 111.147 23.2907C110.65 24.143 110.401 25.0574 110.401 26.034C110.401 27.0106 110.65 27.925 111.147 28.7773C111.662 29.6118 112.345 30.2866 113.198 30.8015C114.05 31.2986 114.964 31.5472 115.941 31.5472ZM127.666 20.0148H128.518V22.7847C128.873 21.9146 129.388 21.231 130.063 20.7339C130.755 20.2367 131.536 19.9881 132.406 19.9881C132.957 19.9881 133.516 20.1035 134.084 20.3344V21.3198C133.569 20.9292 132.992 20.7339 132.353 20.7339C131.714 20.7339 131.093 20.9292 130.489 21.3198C129.903 21.7104 129.423 22.2342 129.051 22.8912C128.695 23.5482 128.518 24.2495 128.518 24.9953V32H127.666V20.0148ZM142.616 32.1598C141.302 32.1598 140.21 31.7603 139.34 30.9613C138.487 30.1623 138.061 29.0614 138.061 27.6587V15.194H138.913V20.0148H142.589V20.7605H138.913V27.6587C138.913 28.8306 139.26 29.7539 139.952 30.4286C140.662 31.0856 141.55 31.4141 142.616 31.4141V32.1598ZM152.02 31.5739C152.944 31.5739 153.823 31.3342 154.657 30.8547C155.492 30.3753 156.184 29.7184 156.735 28.8838V30.2422C156.078 30.9702 155.359 31.5028 154.577 31.8402C153.796 32.1598 152.908 32.3196 151.914 32.3196C150.813 32.3196 149.774 32.0266 148.798 31.4407C147.839 30.8547 147.067 30.0735 146.481 29.0969C145.912 28.1203 145.628 27.0816 145.628 25.9807C145.628 24.7911 145.912 23.7257 146.481 22.7847C147.049 21.8259 147.821 21.0801 148.798 20.5474C149.792 20.0148 150.893 19.7484 152.1 19.7484C153.947 19.7484 155.518 20.4764 156.815 21.9324L148.452 30.1889C149.037 30.6683 149.606 31.0234 150.156 31.2543C150.707 31.4673 151.328 31.5739 152.02 31.5739ZM146.481 25.9008C146.481 27.3746 146.969 28.6353 147.945 29.6829L155.749 21.9324C155.163 21.4175 154.595 21.0535 154.045 20.8404C153.494 20.6096 152.837 20.4942 152.074 20.4942C150.991 20.4942 150.023 20.7339 149.171 21.2133C148.336 21.6749 147.679 22.3141 147.2 23.1309C146.72 23.9477 146.481 24.871 146.481 25.9008ZM167.256 32.293C166.102 32.293 165.036 32.0089 164.06 31.4407C163.101 30.8725 162.337 30.109 161.769 29.1502C161.201 28.1914 160.917 27.1438 160.917 26.0074C160.917 24.871 161.201 23.8234 161.769 22.8646C162.337 21.9058 163.101 21.1423 164.06 20.5741C165.036 20.0059 166.102 19.7218 167.256 19.7218C168.374 19.7218 169.44 20.0236 170.452 20.6273C171.464 21.2133 172.21 21.9857 172.689 22.9445V12.0246H173.541V32H172.689V29.0969C172.156 30.0557 171.384 30.8281 170.372 31.4141C169.377 32 168.339 32.293 167.256 32.293ZM167.229 31.5472C168.206 31.5472 169.111 31.2986 169.946 30.8015C170.798 30.2866 171.473 29.6118 171.97 28.7773C172.485 27.925 172.742 27.0106 172.742 26.034C172.742 25.0574 172.485 24.143 171.97 23.2907C171.473 22.4384 170.798 21.7548 169.946 21.2399C169.111 20.725 168.206 20.4675 167.229 20.4675C166.252 20.4675 165.347 20.725 164.512 21.2399C163.678 21.7371 163.012 22.4118 162.515 23.2641C162.018 24.1164 161.769 25.0308 161.769 26.0074C161.769 27.0017 162.009 27.925 162.488 28.7773C162.985 29.6118 163.651 30.2866 164.486 30.8015C165.338 31.2986 166.252 31.5472 167.229 31.5472Z" fill="#FFFF00"/>
<path d="M43.5011 36.8474L43.0673 37.7484L43.0673 37.7484L43.5011 36.8474ZM41.2639 35.0363H40.2639V35.3567L40.4501 35.6175L41.2639 35.0363ZM41.2639 33.8111L42.1432 33.3348L40.2639 33.8111H41.2639ZM43.4212 35.9418L42.9183 36.8062L42.9251 36.8101L43.4212 35.9418ZM50.3993 35.276L49.6665 34.5955L49.6605 34.602L50.3993 35.276ZM51.7843 29.0969H52.7843L50.8898 28.6497L51.7843 29.0969ZM49.5204 31.4407L50.0214 32.3061L50.0261 32.3034L49.5204 31.4407ZM43.1549 31.4673L42.652 32.3317L42.652 32.3317L43.1549 31.4673ZM40.8377 29.1768L39.9734 29.6797L39.9774 29.6866L40.8377 29.1768ZM40.8377 22.9178L41.6981 23.4277L41.7021 23.4207L40.8377 22.9178ZM43.1549 20.6007L42.652 19.7364L42.652 19.7364L43.1549 20.6007ZM51.7843 22.9977L50.8835 23.432L52.7843 22.9977H51.7843ZM51.7843 20.0148V19.0148H50.7843V20.0148H51.7843ZM52.6365 20.0148H53.6365V19.0148H52.6365V20.0148ZM51.0385 35.8353L50.3144 35.1456L50.3088 35.1515L50.3033 35.1575L51.0385 35.8353ZM49.0942 30.8281L49.606 31.6872L49.6127 31.6832L49.6193 31.6791L49.0942 30.8281ZM51.0651 28.8039L50.2013 28.3001L50.198 28.3058L51.0651 28.8039ZM51.0651 23.2907L50.1936 23.781L50.1997 23.7918L50.206 23.8025L51.0651 23.2907ZM49.0942 21.2665L48.5691 22.1176L48.5758 22.1217L48.5824 22.1256L49.0942 21.2665ZM43.6077 21.2665L44.1195 22.1257L44.1248 22.1225L43.6077 21.2665ZM41.5835 23.2907L40.7276 22.7736L40.7244 22.7789L41.5835 23.2907ZM41.5835 28.8039L40.7197 29.3078L40.7259 29.3185L40.7325 29.329L41.5835 28.8039ZM43.6077 30.8281L43.0826 31.6791L43.0931 31.6856L43.1038 31.6919L43.6077 30.8281ZM46.4575 36.5398C45.6033 36.5398 44.7656 36.3463 43.9349 35.9464L43.0673 37.7484C44.1543 38.2717 45.2875 38.5398 46.4575 38.5398V36.5398ZM43.9349 35.9464C43.103 35.5458 42.4978 35.0433 42.0776 34.455L40.4501 35.6175C41.0953 36.5207 41.9816 37.2256 43.0673 37.7484L43.9349 35.9464ZM42.2639 35.0363V33.8111H40.2639V35.0363H42.2639ZM40.3846 34.2874C40.9473 35.3263 41.8097 36.1612 42.9183 36.8062L43.9241 35.0775C43.0796 34.5861 42.5037 34.0005 42.1432 33.3348L40.3846 34.2874ZM42.9251 36.8101C44.0532 37.4547 45.2347 37.7941 46.4575 37.7941V35.7941C45.6206 35.7941 44.7779 35.5653 43.9174 35.0736L42.9251 36.8101ZM46.4575 37.7941C48.3695 37.7941 49.9807 37.2186 51.1381 35.9499L49.6605 34.602C48.9713 35.3576 47.9546 35.7941 46.4575 35.7941V37.7941ZM51.1321 35.9564C52.2884 34.7112 52.7843 32.9619 52.7843 30.8814H50.7843C50.7843 32.6716 50.3569 33.8521 49.6665 34.5955L51.1321 35.9564ZM52.7843 30.8814V29.0969H50.7843V30.8814H52.7843ZM50.8898 28.6497C50.5067 29.416 49.8971 30.0607 49.0147 30.578L50.0261 32.3034C51.2034 31.6133 52.103 30.6955 52.6787 29.5441L50.8898 28.6497ZM49.0193 30.5753C48.1523 31.0772 47.2588 31.3196 46.3243 31.3196V33.3196C47.627 33.3196 48.8643 32.976 50.0214 32.3061L49.0193 30.5753ZM46.3243 31.3196C45.3635 31.3196 44.4807 31.0818 43.6578 30.603L42.652 32.3317C43.7822 32.9892 45.0123 33.3196 46.3243 33.3196V31.3196ZM43.6578 30.603C42.8265 30.1193 42.178 29.477 41.698 28.667L39.9774 29.6866C40.6338 30.7943 41.5301 31.6789 42.652 32.3317L43.6578 30.603ZM41.7021 28.6739C41.2218 27.8484 40.9855 26.9741 40.9855 26.034H38.9855C38.9855 27.3312 39.3173 28.552 39.9734 29.6797L41.7021 28.6739ZM40.9855 26.034C40.9855 25.0941 41.2216 24.2315 41.698 23.4276L39.9774 22.408C39.3174 23.5218 38.9855 24.7367 38.9855 26.034H40.9855ZM41.7021 23.4207C42.1831 22.5939 42.831 21.9461 43.6578 21.465L42.652 19.7364C41.5257 20.3917 40.6287 21.2886 39.9734 22.415L41.7021 23.4207ZM43.6578 21.465C44.4807 20.9862 45.3635 20.7484 46.3243 20.7484V18.7484C45.0123 18.7484 43.7822 19.0788 42.652 19.7364L43.6578 21.465ZM46.3243 20.7484C47.3205 20.7484 48.2279 20.995 49.066 21.4889L50.0813 19.7658C48.9307 19.0877 47.6719 18.7484 46.3243 18.7484V20.7484ZM49.066 21.4889C49.8981 21.9792 50.494 22.6242 50.8835 23.432L52.685 22.5634C52.1157 21.3826 51.2379 20.4473 50.0813 19.7658L49.066 21.4889ZM52.7843 22.9977V20.0148H50.7843V22.9977H52.7843ZM51.7843 21.0148H52.6365V19.0148H51.7843V21.0148ZM51.6365 20.0148V30.8814H53.6365V20.0148H51.6365ZM51.6365 30.8814C51.6365 32.9152 51.1407 34.278 50.3144 35.1456L51.7627 36.5249C53.067 35.1553 53.6365 33.2155 53.6365 30.8814H51.6365ZM50.3033 35.1575C49.4974 36.0317 48.2726 36.5398 46.4575 36.5398V38.5398C48.6552 38.5398 50.4845 37.9116 51.7738 36.5131L50.3033 35.1575ZM46.3776 32.5739C47.5333 32.5739 48.6159 32.2771 49.606 31.6872L48.5824 29.969C47.9036 30.3734 47.175 30.5739 46.3776 30.5739V32.5739ZM49.6193 31.6791C50.5927 31.0786 51.3684 30.2837 51.9323 29.3021L50.198 28.3058C49.8031 28.9933 49.2649 29.5478 48.5691 29.9771L49.6193 31.6791ZM51.9289 29.3078C52.516 28.3013 52.8109 27.204 52.8109 26.034H50.8109C50.8109 26.8527 50.6086 27.602 50.2014 28.3001L51.9289 29.3078ZM52.8109 26.034C52.8109 24.864 52.5159 23.772 51.9242 22.7789L50.206 23.8025C50.6087 24.4785 50.8109 25.2154 50.8109 26.034H52.8109ZM51.9367 22.8005C51.3723 21.797 50.5917 20.9946 49.606 20.4074L48.5824 22.1256C49.2658 22.5328 49.7992 23.0799 50.1936 23.781L51.9367 22.8005ZM49.6193 20.4155C48.6277 19.8036 47.5404 19.4942 46.3776 19.4942V21.4942C47.1679 21.4942 47.8918 21.6996 48.5691 22.1176L49.6193 20.4155ZM46.3776 19.4942C45.2007 19.4942 44.0986 19.8016 43.0905 20.4106L44.1248 22.1225C44.8213 21.7017 45.5658 21.4942 46.3776 21.4942V19.4942ZM43.0959 20.4074C42.1167 20.9908 41.3252 21.7845 40.7276 22.7736L42.4394 23.8078C42.8716 23.0924 43.4296 22.5366 44.1195 22.1256L43.0959 20.4074ZM40.7244 22.7789C40.1327 23.772 39.8377 24.864 39.8377 26.034H41.8377C41.8377 25.2154 42.0399 24.4785 42.4426 23.8025L40.7244 22.7789ZM39.8377 26.034C39.8377 27.204 40.1326 28.3013 40.7197 29.3078L42.4473 28.3001C42.04 27.602 41.8377 26.8527 41.8377 26.034H39.8377ZM40.7325 29.329C41.3292 30.2961 42.1155 31.0824 43.0826 31.6791L44.1328 29.9771C43.4308 29.5439 42.8677 28.9808 42.4345 28.2788L40.7325 29.329ZM43.1038 31.6919C44.1103 32.279 45.2076 32.5739 46.3776 32.5739V30.5739C45.5589 30.5739 44.8096 30.3716 44.1115 29.9643L43.1038 31.6919ZM66.5979 30.8547L66.0998 29.9876L66.0998 29.9876L66.5979 30.8547ZM68.6753 28.8838H69.6753V25.5515L67.8406 28.3332L68.6753 28.8838ZM68.6753 30.2422L69.4177 30.9121L69.6753 30.6267V30.2422H68.6753ZM66.518 31.8402L66.8966 32.7657L66.9056 32.7621L66.9144 32.7583L66.518 31.8402ZM60.7384 31.4407L60.217 32.294L60.224 32.2982L60.7384 31.4407ZM58.4213 29.0969L57.5569 29.5998L57.5638 29.6114L58.4213 29.0969ZM58.4213 22.7847L59.2774 23.3016L59.2816 23.2945L58.4213 22.7847ZM60.7384 20.5474L60.2662 19.6659L60.2596 19.6695L60.7384 20.5474ZM68.7552 21.9324L69.4578 22.644L70.1336 21.9768L69.5022 21.2675L68.7552 21.9324ZM60.3922 30.1889L59.6896 29.4773L58.8982 30.2586L59.759 30.9629L60.3922 30.1889ZM62.0968 31.2543L61.71 32.1764L61.7228 32.1818L61.7358 32.1868L62.0968 31.2543ZM59.8862 29.6829L59.1547 30.3647L59.8585 31.1197L60.5908 30.3924L59.8862 29.6829ZM67.6899 21.9324L68.3946 22.6419L69.1539 21.8877L68.35 21.1812L67.6899 21.9324ZM65.9853 20.8404L65.5986 21.7626L65.6114 21.768L65.6243 21.773L65.9853 20.8404ZM61.1113 21.2133L61.5954 22.0883L61.6016 22.0849L61.1113 21.2133ZM63.9611 32.5739C65.0668 32.5739 66.1166 32.2845 67.096 31.7218L66.0998 29.9876C65.4101 30.3838 64.7021 30.5739 63.9611 30.5739V32.5739ZM67.096 31.7218C68.0712 31.1616 68.8772 30.3941 69.5101 29.4344L67.8406 28.3332C67.3727 29.0426 66.7936 29.5891 66.0998 29.9876L67.096 31.7218ZM67.6753 28.8838V30.2422H69.6753V28.8838H67.6753ZM67.9329 29.5722C67.3576 30.2098 66.7524 30.6497 66.1216 30.9221L66.9144 32.7583C67.8461 32.3559 68.6792 31.7305 69.4177 30.9121L67.9329 29.5722ZM66.1394 30.9146C65.4977 31.1772 64.7418 31.3196 63.8546 31.3196V33.3196C64.9561 33.3196 65.9758 33.1424 66.8966 32.7657L66.1394 30.9146ZM63.8546 31.3196C62.9414 31.3196 62.0797 31.0793 61.2529 30.5832L60.224 32.2982C61.3503 32.974 62.5661 33.3196 63.8546 33.3196V31.3196ZM61.2599 30.5874C60.4407 30.0868 59.7829 29.4225 59.2788 28.5824L57.5638 29.6114C58.2316 30.7244 59.1185 31.6227 60.217 32.294L61.2599 30.5874ZM59.2856 28.594C58.8039 27.7659 58.569 26.9001 58.569 25.9807H56.569C56.569 27.2631 56.9024 28.4747 57.557 29.5998L59.2856 28.594ZM58.569 25.9807C58.569 24.9578 58.811 24.0739 59.2774 23.3015L57.5652 22.2678C56.8952 23.3776 56.569 24.6244 56.569 25.9807H58.569ZM59.2816 23.2945C59.7582 22.4901 60.399 21.8717 61.2173 21.4253L60.2596 19.6695C59.1248 20.2885 58.2207 21.1616 57.561 22.2749L59.2816 23.2945ZM61.2107 21.4289C62.0496 20.9795 62.9865 20.7484 64.041 20.7484V18.7484C62.6808 18.7484 61.416 19.05 60.2662 19.666L61.2107 21.4289ZM64.041 20.7484C65.5848 20.7484 66.89 21.3411 68.0083 22.5973L69.5022 21.2675C68.0282 19.6118 66.1905 18.7484 64.041 18.7484V20.7484ZM68.0527 21.2208L59.6896 29.4773L61.0948 30.9005L69.4578 22.644L68.0527 21.2208ZM59.759 30.9629C60.4005 31.4878 61.0506 31.8999 61.71 32.1764L62.4835 30.3321C62.0421 30.1469 61.5558 29.8489 61.0254 29.4149L59.759 30.9629ZM61.7358 32.1868C62.4194 32.4515 63.1662 32.5739 63.9611 32.5739V30.5739C63.3711 30.5739 62.875 30.4832 62.4578 30.3217L61.7358 32.1868ZM57.4213 25.9008C57.4213 27.6195 58.0001 29.1261 59.1547 30.3647L60.6176 29.001C59.8191 28.1444 59.4213 27.1296 59.4213 25.9008H57.4213ZM60.5908 30.3924L68.3946 22.6419L66.9852 21.2229L59.1815 28.9733L60.5908 30.3924ZM68.35 21.1812C67.7025 20.6122 67.0353 20.1745 66.3463 19.9078L65.6243 21.773C66.0363 21.9324 66.5053 22.2227 67.0298 22.6836L68.35 21.1812ZM66.372 19.9182C65.6701 19.6239 64.8752 19.4942 64.0144 19.4942V21.4942C64.6807 21.4942 65.1996 21.5953 65.5986 21.7626L66.372 19.9182ZM64.0144 19.4942C62.7785 19.4942 61.6387 19.7693 60.6211 20.3417L61.6016 22.0849C62.2885 21.6984 63.0841 21.4942 64.0144 21.4942V19.4942ZM60.6273 20.3382C59.637 20.8861 58.8488 21.6522 58.278 22.6247L60.0028 23.6371C60.3908 22.9761 60.9166 22.4638 61.5954 22.0883L60.6273 20.3382ZM58.278 22.6247C57.7007 23.6082 57.4213 24.7091 57.4213 25.9008H59.4213C59.4213 25.0329 59.6213 24.2871 60.0028 23.6371L58.278 22.6247ZM77.838 32.1598V33.1598H78.838V32.1598H77.838ZM74.5621 30.9613L73.8781 31.6909L73.8856 31.6978L74.5621 30.9613ZM73.2836 15.194V14.194H72.2836V15.194H73.2836ZM74.1359 15.194H75.1359V14.194H74.1359V15.194ZM74.1359 20.0148H73.1359V21.0148H74.1359V20.0148ZM77.8114 20.0148H78.8114V19.0148H77.8114V20.0148ZM77.8114 20.7605V21.7605H78.8114V20.7605H77.8114ZM74.1359 20.7605V19.7605H73.1359V20.7605H74.1359ZM75.1746 30.4286L74.4768 31.1448L74.4861 31.1539L74.4956 31.1627L75.1746 30.4286ZM77.838 31.4141H78.838V30.4141H77.838V31.4141ZM77.838 31.1598C76.7442 31.1598 75.9027 30.8348 75.2385 30.2247L73.8856 31.6978C74.9614 32.6858 76.304 33.1598 77.838 33.1598V31.1598ZM75.246 30.2317C74.6353 29.6592 74.2836 28.845 74.2836 27.6587H72.2836C72.2836 29.2778 72.7842 30.6653 73.8781 31.6908L75.246 30.2317ZM74.2836 27.6587V15.194H72.2836V27.6587H74.2836ZM73.2836 16.194H74.1359V14.194H73.2836V16.194ZM73.1359 15.194V20.0148H75.1359V15.194H73.1359ZM74.1359 21.0148H77.8114V19.0148H74.1359V21.0148ZM76.8114 20.0148V20.7605H78.8114V20.0148H76.8114ZM77.8114 19.7605H74.1359V21.7605H77.8114V19.7605ZM73.1359 20.7605V27.6587H75.1359V20.7605H73.1359ZM73.1359 27.6587C73.1359 29.039 73.5512 30.243 74.4768 31.1448L75.8725 29.7124C75.4131 29.2647 75.1359 28.6221 75.1359 27.6587H73.1359ZM74.4956 31.1627C75.41 32.0085 76.5486 32.4141 77.838 32.4141V30.4141C76.9968 30.4141 76.3598 30.1626 75.8537 29.6945L74.4956 31.1627ZM76.838 31.4141V32.1598H78.838V31.4141H76.838ZM90.8312 31.8668L90.4137 32.7755L90.4239 32.7802L90.4343 32.7847L90.8312 31.8668ZM89.4196 30.7216H88.4196V31.0046L88.5679 31.2457L89.4196 30.7216ZM89.4196 29.31L90.3343 28.9058L88.4196 29.31H89.4196ZM90.8046 31.0145L90.2677 31.8582L90.2769 31.8641L90.2863 31.8697L90.8046 31.0145ZM95.1459 30.7482L95.853 31.4553L95.8588 31.4495L95.8645 31.4436L95.1459 30.7482ZM95.4921 26.9662L94.6879 27.5606L94.6943 27.5692L94.7008 27.5776L95.4921 26.9662ZM94.0273 25.741L94.5451 24.8855L94.5367 24.8805L94.5283 24.8756L94.0273 25.741ZM93.0152 25.1551L92.4946 26.0089L92.5043 26.0148L92.5141 26.0205L93.0152 25.1551ZM91.3639 24.1164L90.7639 24.9164L90.7861 24.933L90.8092 24.9484L91.3639 24.1164ZM90.5116 23.2375L89.6661 23.7714L89.6727 23.7819L89.6795 23.7922L90.5116 23.2375ZM90.9377 20.361L91.5885 21.1203L91.5885 21.1203L90.9377 20.361ZM95.3323 20.3876H96.3323V19.8564L95.8922 19.559L95.3323 20.3876ZM95.3323 21.5595L94.5347 22.1626L96.3323 24.5402V21.5595H95.3323ZM91.5769 20.8937L90.9522 20.1128L90.9522 20.1128L91.5769 20.8937ZM91.3639 23.0244L90.5469 23.6011L90.5552 23.6128L90.5639 23.6244L91.3639 23.0244ZM92.2428 23.8234L91.6881 24.6554L91.6969 24.6613L91.7059 24.6671L92.2428 23.8234ZM94.1604 24.942L94.6547 24.0727L94.649 24.0695L94.1604 24.942ZM96.158 26.5401L95.3672 27.1522L95.3721 27.1585L95.3771 27.1647L96.158 26.5401ZM95.7052 31.3075L96.3842 32.0416L96.385 32.0409L95.7052 31.3075ZM93.0951 31.293C92.3537 31.293 91.7382 31.1696 91.2281 30.949L90.4343 32.7847C91.2381 33.1323 92.1319 33.293 93.0951 33.293V31.293ZM91.2487 30.9582C90.7125 30.7118 90.4224 30.4432 90.2713 30.1975L88.5679 31.2457C88.9849 31.9233 89.6359 32.4182 90.4137 32.7755L91.2487 30.9582ZM90.4196 30.7216V29.31H88.4196V30.7216H90.4196ZM88.5049 29.7141C88.9057 30.6213 89.4841 31.3595 90.2677 31.8582L91.3414 30.1709C90.9532 29.9238 90.6082 29.5257 90.3343 28.9058L88.5049 29.7141ZM90.2863 31.8697C91.0711 32.3454 92.0108 32.5472 93.0418 32.5472V30.5472C92.2618 30.5472 91.7099 30.3939 91.3229 30.1593L90.2863 31.8697ZM93.0418 32.5472C94.1326 32.5472 95.1035 32.2048 95.853 31.4553L94.4388 30.0411C94.1229 30.357 93.6911 30.5472 93.0418 30.5472V32.5472ZM95.8645 31.4436C96.5987 30.685 96.9449 29.7241 96.9449 28.6441H94.9449C94.9449 29.2687 94.7585 29.7106 94.4273 30.0528L95.8645 31.4436ZM96.9449 28.6441C96.9449 27.7957 96.7715 26.9863 96.2834 26.3547L94.7008 27.5776C94.8165 27.7273 94.9449 28.0366 94.9449 28.6441H96.9449ZM96.2963 26.3718C95.8861 25.8169 95.2763 25.3281 94.5451 24.8855L93.5095 26.5965C94.1277 26.9707 94.4944 27.2987 94.6879 27.5606L96.2963 26.3718ZM94.5283 24.8756L93.5162 24.2897L92.5141 26.0205L93.5262 26.6065L94.5283 24.8756ZM93.5358 24.3013C92.811 23.8594 92.2743 23.5215 91.9186 23.2843L90.8092 24.9484C91.1992 25.2084 91.7633 25.563 92.4946 26.0089L93.5358 24.3013ZM91.9639 23.3164C91.6856 23.1077 91.4849 22.8946 91.3436 22.6828L89.6795 23.7922C89.9644 24.2195 90.3319 24.5924 90.7639 24.9164L91.9639 23.3164ZM91.3571 22.7035C91.2561 22.5435 91.192 22.3424 91.192 22.0656H89.192C89.192 22.6765 89.341 23.2567 89.6661 23.7714L91.3571 22.7035ZM91.192 22.0656C91.192 21.6193 91.3334 21.3389 91.5885 21.1203L90.2869 19.6017C89.5477 20.2353 89.192 21.0914 89.192 22.0656H91.192ZM91.5885 21.1203C91.8668 20.8817 92.267 20.7218 92.882 20.7218V18.7218C91.899 18.7218 91.003 18.988 90.2869 19.6017L91.5885 21.1203ZM92.882 20.7218C93.7056 20.7218 94.3156 20.9075 94.7725 21.2162L95.8922 19.559C95.0351 18.9799 94.0115 18.7218 92.882 18.7218V20.7218ZM94.3323 20.3876V21.5595H96.3323V20.3876H94.3323ZM96.13 20.9564C95.3644 19.9439 94.2591 19.4675 92.9619 19.4675V21.4675C93.7244 21.4675 94.1994 21.7192 94.5347 22.1626L96.13 20.9564ZM92.9619 19.4675C92.2246 19.4675 91.5252 19.6545 90.9522 20.1128L92.2016 21.6745C92.3389 21.5647 92.5628 21.4675 92.9619 21.4675V19.4675ZM90.9522 20.1128C90.3667 20.5813 90.0443 21.2294 90.0443 21.9857H92.0443C92.0443 21.8541 92.077 21.7743 92.2016 21.6745L90.9522 20.1128ZM90.0443 21.9857C90.0443 22.5703 90.2077 23.1205 90.5469 23.6011L92.1808 22.4477C92.0939 22.3245 92.0443 22.1823 92.0443 21.9857H90.0443ZM90.5639 23.6244C90.8601 24.0194 91.2445 24.3597 91.6881 24.6554L92.7975 22.9913C92.4953 22.7899 92.2938 22.5976 92.1639 22.4244L90.5639 23.6244ZM91.7059 24.6671C92.122 24.9318 92.7822 25.3164 93.6718 25.8145L94.649 24.0695C93.763 23.5734 93.1448 23.2121 92.7797 22.9797L91.7059 24.6671ZM93.6661 25.8113C94.5085 26.2903 95.0518 26.7447 95.3672 27.1522L96.9487 25.9279C96.4119 25.2345 95.6234 24.6236 94.6547 24.0727L93.6661 25.8113ZM95.3771 27.1647C95.6262 27.4761 95.7972 27.9376 95.7972 28.6441H97.7972C97.7972 27.6106 97.542 26.6693 96.9388 25.9154L95.3771 27.1647ZM95.7972 28.6441C95.7972 29.5003 95.5258 30.1104 95.0254 30.5741L96.385 32.0409C97.3406 31.1552 97.7972 29.9897 97.7972 28.6441H95.7972ZM95.0262 30.5734C94.5134 31.0477 93.8909 31.293 93.0951 31.293V33.293C94.3589 33.293 95.4765 32.8812 96.3842 32.0416L95.0262 30.5734ZM105.87 32.1598V33.1598H106.87V32.1598H105.87ZM102.594 30.9613L101.91 31.6909L101.918 31.6978L102.594 30.9613ZM101.316 15.194V14.194H100.316V15.194H101.316ZM102.168 15.194H103.168V14.194H102.168V15.194ZM102.168 20.0148H101.168V21.0148H102.168V20.0148ZM105.844 20.0148H106.844V19.0148H105.844V20.0148ZM105.844 20.7605V21.7605H106.844V20.7605H105.844ZM102.168 20.7605V19.7605H101.168V20.7605H102.168ZM103.207 30.4286L102.509 31.1448L102.518 31.1539L102.528 31.1627L103.207 30.4286ZM105.87 31.4141H106.87V30.4141H105.87V31.4141ZM105.87 31.1598C104.776 31.1598 103.935 30.8348 103.271 30.2247L101.918 31.6978C102.994 32.6858 104.336 33.1598 105.87 33.1598V31.1598ZM103.278 30.2317C102.667 29.6592 102.316 28.845 102.316 27.6587H100.316C100.316 29.2778 100.816 30.6653 101.91 31.6908L103.278 30.2317ZM102.316 27.6587V15.194H100.316V27.6587H102.316ZM101.316 16.194H102.168V14.194H101.316V16.194ZM101.168 15.194V20.0148H103.168V15.194H101.168ZM102.168 21.0148H105.844V19.0148H102.168V21.0148ZM104.844 20.0148V20.7605H106.844V20.0148H104.844ZM105.844 19.7605H102.168V21.7605H105.844V19.7605ZM101.168 20.7605V27.6587H103.168V20.7605H101.168ZM101.168 27.6587C101.168 29.039 101.583 30.243 102.509 31.1448L103.905 29.7124C103.445 29.2647 103.168 28.6221 103.168 27.6587H101.168ZM102.528 31.1627C103.442 32.0085 104.581 32.4141 105.87 32.4141V30.4141C105.029 30.4141 104.392 30.1626 103.886 29.6945L102.528 31.1627ZM104.87 31.4141V32.1598H106.87V31.4141H104.87ZM112.718 31.4407L112.215 32.305L112.215 32.305L112.718 31.4407ZM110.401 29.1502L109.537 29.6531L109.541 29.66L110.401 29.1502ZM110.401 22.8912L111.261 23.401L111.265 23.3941L110.401 22.8912ZM112.718 20.5741L112.215 19.7097L112.215 19.7097L112.718 20.5741ZM119.164 20.654L118.647 21.5102L118.658 21.5167L119.164 20.654ZM121.321 23.0244L120.398 23.4102L122.321 23.0244H121.321ZM121.321 20.0148V19.0148H120.321V20.0148H121.321ZM122.173 20.0148H123.173V19.0148H122.173V20.0148ZM122.173 32V33H123.173V32H122.173ZM121.321 32H120.321V33H121.321V32ZM121.321 29.017H122.321L120.42 28.5827L121.321 29.017ZM119.084 31.4141L119.591 32.2756L119.596 32.2729L119.084 31.4141ZM118.658 30.8015L119.169 31.6606L119.176 31.6566L119.183 31.6525L118.658 30.8015ZM120.628 28.7773L119.765 28.2734L119.761 28.2792L120.628 28.7773ZM120.628 23.2641L119.765 23.768L119.765 23.768L120.628 23.2641ZM118.631 21.2399L118.106 22.0909L118.112 22.095L118.119 22.099L118.631 21.2399ZM113.171 21.2399L112.654 20.384L112.646 20.3889L113.171 21.2399ZM111.147 23.2907L110.291 22.7736L110.287 22.7802L110.283 22.7869L111.147 23.2907ZM111.147 28.7773L110.283 29.2812L110.289 29.2919L110.296 29.3024L111.147 28.7773ZM113.198 30.8015L112.681 31.6574L112.687 31.6614L112.694 31.6653L113.198 30.8015ZM115.888 31.293C114.927 31.293 114.044 31.0551 113.221 30.5763L112.215 32.305C113.346 32.9626 114.576 33.293 115.888 33.293V31.293ZM113.221 30.5763C112.39 30.0927 111.741 29.4504 111.261 28.6404L109.541 29.66C110.197 30.7676 111.093 31.6523 112.215 32.305L113.221 30.5763ZM111.265 28.6473C110.785 27.8218 110.549 26.9475 110.549 26.0074H108.549C108.549 27.3045 108.881 28.5254 109.537 29.6531L111.265 28.6473ZM110.549 26.0074C110.549 25.0674 110.785 24.2049 111.261 23.401L109.541 22.3814C108.881 23.4952 108.549 24.7101 108.549 26.0074H110.549ZM111.265 23.3941C111.746 22.5673 112.394 21.9195 113.221 21.4384L112.215 19.7097C111.089 20.365 110.192 21.262 109.537 22.3883L111.265 23.3941ZM113.221 21.4384C114.044 20.9596 114.927 20.7218 115.888 20.7218V18.7218C114.576 18.7218 113.346 19.0521 112.215 19.7097L113.221 21.4384ZM115.888 20.7218C116.852 20.7218 117.766 20.9786 118.647 21.5102L119.68 19.7978C118.501 19.0864 117.232 18.7218 115.888 18.7218V20.7218ZM118.658 21.5167C119.526 22.0254 120.084 22.6588 120.398 23.4102L122.244 22.6386C121.741 21.4369 120.861 20.4899 119.669 19.7913L118.658 21.5167ZM122.321 23.0244V20.0148H120.321V23.0244H122.321ZM121.321 21.0148H122.173V19.0148H121.321V21.0148ZM121.173 20.0148V32H123.173V20.0148H121.173ZM122.173 31H121.321V33H122.173V31ZM122.321 32V29.017H120.321V32H122.321ZM120.42 28.5827C120.032 29.3884 119.427 30.0448 118.571 30.5552L119.596 32.2729C120.764 31.5759 121.651 30.6343 122.222 29.4513L120.42 28.5827ZM118.576 30.5525C117.733 31.0493 116.843 31.293 115.888 31.293V33.293C117.205 33.293 118.446 32.9507 119.591 32.2756L118.576 30.5525ZM115.941 32.5472C117.097 32.5472 118.179 32.2505 119.169 31.6606L118.146 29.9424C117.467 30.3468 116.738 30.5472 115.941 30.5472V32.5472ZM119.183 31.6525C120.156 31.052 120.932 30.257 121.496 29.2754L119.761 28.2792C119.366 28.9666 118.828 29.5212 118.132 29.9504L119.183 31.6525ZM121.492 29.2812C122.079 28.2747 122.374 27.1773 122.374 26.0074H120.374C120.374 26.8261 120.172 27.5753 119.765 28.2734L121.492 29.2812ZM122.374 26.0074C122.374 24.8518 122.078 23.7638 121.492 22.7602L119.765 23.768C120.174 24.469 120.374 25.2098 120.374 26.0074H122.374ZM121.492 22.7602C120.911 21.764 120.125 20.9661 119.143 20.3808L118.119 22.099C118.806 22.5081 119.351 23.0596 119.765 23.768L121.492 22.7602ZM119.156 20.3889C118.164 19.777 117.077 19.4675 115.914 19.4675V21.4675C116.705 21.4675 117.428 21.673 118.106 22.0909L119.156 20.3889ZM115.914 19.4675C114.752 19.4675 113.659 19.7768 112.654 20.384L113.688 22.0958C114.388 21.6732 115.124 21.4675 115.914 21.4675V19.4675ZM112.646 20.3889C111.674 20.9886 110.887 21.7875 110.291 22.7736L112.003 23.8078C112.437 23.0894 112.999 22.5211 113.696 22.0909L112.646 20.3889ZM110.283 22.7869C109.698 23.7904 109.401 24.8785 109.401 26.034H111.401C111.401 25.2364 111.602 24.4956 112.011 23.7946L110.283 22.7869ZM109.401 26.034C109.401 27.1896 109.698 28.2776 110.283 29.2812L112.011 28.2734C111.602 27.5724 111.401 26.8316 111.401 26.034H109.401ZM110.296 29.3024C110.895 30.2743 111.694 31.0616 112.681 31.6574L113.715 29.9456C112.996 29.5115 112.428 28.9493 111.998 28.2522L110.296 29.3024ZM112.694 31.6653C113.697 32.2507 114.785 32.5472 115.941 32.5472V30.5472C115.143 30.5472 114.403 30.3466 113.701 29.9377L112.694 31.6653ZM127.666 20.0148V19.0148H126.666V20.0148H127.666ZM128.518 20.0148H129.518V19.0148H128.518V20.0148ZM128.518 22.7847H127.518L129.444 23.1626L128.518 22.7847ZM130.063 20.7339L129.479 19.9215L129.469 19.9288L130.063 20.7339ZM134.084 20.3344H135.084V19.6612L134.461 19.4079L134.084 20.3344ZM134.084 21.3198L133.48 22.1165L135.084 23.3336V21.3198H134.084ZM130.489 21.3198L129.946 20.4802L129.934 20.4878L130.489 21.3198ZM129.051 22.8912L128.181 22.3976L128.176 22.4066L128.171 22.4157L129.051 22.8912ZM128.518 32V33H129.518V32H128.518ZM127.666 32H126.666V33H127.666V32ZM127.666 21.0148H128.518V19.0148H127.666V21.0148ZM127.518 20.0148V22.7847H129.518V20.0148H127.518ZM129.444 23.1626C129.738 22.4416 130.147 21.9142 130.656 21.5389L129.469 19.9288C128.629 20.5479 128.008 21.3877 127.592 22.4068L129.444 23.1626ZM130.646 21.5462C131.165 21.1737 131.741 20.9881 132.406 20.9881V18.9881C131.332 18.9881 130.346 19.2997 129.479 19.9215L130.646 21.5462ZM132.406 20.9881C132.814 20.9881 133.246 21.073 133.708 21.2608L134.461 19.4079C133.787 19.134 133.1 18.9881 132.406 18.9881V20.9881ZM133.084 20.3344V21.3198H135.084V20.3344H133.084ZM134.689 20.5231C134.002 20.0022 133.213 19.7339 132.353 19.7339V21.7339C132.772 21.7339 133.137 21.8562 133.48 22.1165L134.689 20.5231ZM132.353 19.7339C131.498 19.7339 130.69 19.9984 129.946 20.4802L131.032 22.1594C131.495 21.86 131.93 21.7339 132.353 21.7339V19.7339ZM129.934 20.4878C129.209 20.9713 128.625 21.6149 128.181 22.3976L129.92 23.3848C130.222 22.8536 130.597 22.4496 131.044 22.1519L129.934 20.4878ZM128.171 22.4157C127.737 23.2185 127.518 24.0833 127.518 24.9953H129.518C129.518 24.4158 129.654 23.8779 129.93 23.3667L128.171 22.4157ZM127.518 24.9953V32H129.518V24.9953H127.518ZM128.518 31H127.666V33H128.518V31ZM128.666 32V20.0148H126.666V32H128.666ZM142.616 32.1598V33.1598H143.616V32.1598H142.616ZM139.34 30.9613L138.656 31.6909L138.663 31.6978L139.34 30.9613ZM138.061 15.194V14.194H137.061V15.194H138.061ZM138.913 15.194H139.913V14.194H138.913V15.194ZM138.913 20.0148H137.913V21.0148H138.913V20.0148ZM142.589 20.0148H143.589V19.0148H142.589V20.0148ZM142.589 20.7605V21.7605H143.589V20.7605H142.589ZM138.913 20.7605V19.7605H137.913V20.7605H138.913ZM139.952 30.4286L139.254 31.1448L139.264 31.1539L139.273 31.1627L139.952 30.4286ZM142.616 31.4141H143.616V30.4141H142.616V31.4141ZM142.616 31.1598C141.522 31.1598 140.68 30.8348 140.016 30.2247L138.663 31.6978C139.739 32.6858 141.082 33.1598 142.616 33.1598V31.1598ZM140.024 30.2317C139.413 29.6592 139.061 28.845 139.061 27.6587H137.061C137.061 29.2778 137.562 30.6653 138.656 31.6908L140.024 30.2317ZM139.061 27.6587V15.194H137.061V27.6587H139.061ZM138.061 16.194H138.913V14.194H138.061V16.194ZM137.913 15.194V20.0148H139.913V15.194H137.913ZM138.913 21.0148H142.589V19.0148H138.913V21.0148ZM141.589 20.0148V20.7605H143.589V20.0148H141.589ZM142.589 19.7605H138.913V21.7605H142.589V19.7605ZM137.913 20.7605V27.6587H139.913V20.7605H137.913ZM137.913 27.6587C137.913 29.039 138.329 30.243 139.254 31.1448L140.65 29.7124C140.191 29.2647 139.913 28.6221 139.913 27.6587H137.913ZM139.273 31.1627C140.188 32.0085 141.326 32.4141 142.616 32.4141V30.4141C141.774 30.4141 141.137 30.1626 140.631 29.6945L139.273 31.1627ZM141.616 31.4141V32.1598H143.616V31.4141H141.616ZM154.657 30.8547L154.159 29.9876L154.159 29.9876L154.657 30.8547ZM156.735 28.8838H157.735V25.5515L155.9 28.3332L156.735 28.8838ZM156.735 30.2422L157.477 30.9121L157.735 30.6267V30.2422H156.735ZM154.577 31.8402L154.956 32.7657L154.965 32.7621L154.974 32.7583L154.577 31.8402ZM148.798 31.4407L148.276 32.294L148.283 32.2982L148.798 31.4407ZM146.481 29.0969L145.616 29.5998L145.623 29.6114L146.481 29.0969ZM146.481 22.7847L147.337 23.3016L147.341 23.2945L146.481 22.7847ZM148.798 20.5474L148.326 19.6659L148.319 19.6695L148.798 20.5474ZM156.815 21.9324L157.517 22.644L158.193 21.9768L157.561 21.2675L156.815 21.9324ZM148.452 30.1889L147.749 29.4773L146.958 30.2586L147.818 30.9629L148.452 30.1889ZM150.156 31.2543L149.769 32.1764L149.782 32.1818L149.795 32.1868L150.156 31.2543ZM147.945 29.6829L147.214 30.3647L147.918 31.1197L148.65 30.3924L147.945 29.6829ZM155.749 21.9324L156.454 22.6419L157.213 21.8877L156.409 21.1812L155.749 21.9324ZM154.045 20.8404L153.658 21.7626L153.671 21.768L153.684 21.773L154.045 20.8404ZM149.171 21.2133L149.655 22.0883L149.661 22.0849L149.171 21.2133ZM152.02 32.5739C153.126 32.5739 154.176 32.2845 155.155 31.7218L154.159 29.9876C153.469 30.3838 152.761 30.5739 152.02 30.5739V32.5739ZM155.155 31.7218C156.131 31.1616 156.936 30.3941 157.569 29.4344L155.9 28.3332C155.432 29.0426 154.853 29.5891 154.159 29.9876L155.155 31.7218ZM155.735 28.8838V30.2422H157.735V28.8838H155.735ZM155.992 29.5722C155.417 30.2098 154.812 30.6497 154.181 30.9221L154.974 32.7583C155.905 32.3559 156.738 31.7305 157.477 30.9121L155.992 29.5722ZM154.199 30.9146C153.557 31.1772 152.801 31.3196 151.914 31.3196V33.3196C153.015 33.3196 154.035 33.1424 154.956 32.7657L154.199 30.9146ZM151.914 31.3196C151.001 31.3196 150.139 31.0793 149.312 30.5832L148.283 32.2982C149.41 32.974 150.625 33.3196 151.914 33.3196V31.3196ZM149.319 30.5874C148.5 30.0868 147.842 29.4225 147.338 28.5824L145.623 29.6114C146.291 30.7244 147.178 31.6227 148.276 32.294L149.319 30.5874ZM147.345 28.594C146.863 27.7659 146.628 26.9001 146.628 25.9807H144.628C144.628 27.2631 144.962 28.4747 145.616 29.5998L147.345 28.594ZM146.628 25.9807C146.628 24.9578 146.87 24.0739 147.337 23.3015L145.625 22.2678C144.954 23.3776 144.628 24.6244 144.628 25.9807H146.628ZM147.341 23.2945C147.818 22.4901 148.458 21.8717 149.277 21.4253L148.319 19.6695C147.184 20.2885 146.28 21.1616 145.62 22.2749L147.341 23.2945ZM149.27 21.4289C150.109 20.9795 151.046 20.7484 152.1 20.7484V18.7484C150.74 18.7484 149.475 19.05 148.326 19.666L149.27 21.4289ZM152.1 20.7484C153.644 20.7484 154.949 21.3411 156.068 22.5973L157.561 21.2675C156.087 19.6118 154.25 18.7484 152.1 18.7484V20.7484ZM156.112 21.2208L147.749 29.4773L149.154 30.9005L157.517 22.644L156.112 21.2208ZM147.818 30.9629C148.46 31.4878 149.11 31.8999 149.769 32.1764L150.543 30.3321C150.101 30.1469 149.615 29.8489 149.085 29.4149L147.818 30.9629ZM149.795 32.1868C150.479 32.4515 151.226 32.5739 152.02 32.5739V30.5739C151.43 30.5739 150.934 30.4832 150.517 30.3217L149.795 32.1868ZM145.481 25.9008C145.481 27.6195 146.059 29.1261 147.214 30.3647L148.677 29.001C147.878 28.1444 147.481 27.1296 147.481 25.9008H145.481ZM148.65 30.3924L156.454 22.6419L155.045 21.2229L147.241 28.9733L148.65 30.3924ZM156.409 21.1812C155.762 20.6122 155.095 20.1745 154.406 19.9078L153.684 21.773C154.096 21.9324 154.565 22.2227 155.089 22.6836L156.409 21.1812ZM154.431 19.9182C153.729 19.6239 152.934 19.4942 152.074 19.4942V21.4942C152.74 21.4942 153.259 21.5953 153.658 21.7626L154.431 19.9182ZM152.074 19.4942C150.838 19.4942 149.698 19.7693 148.68 20.3417L149.661 22.0849C150.348 21.6984 151.143 21.4942 152.074 21.4942V19.4942ZM148.687 20.3382C147.696 20.8861 146.908 21.6522 146.337 22.6247L148.062 23.6371C148.45 22.9761 148.976 22.4638 149.655 22.0883L148.687 20.3382ZM146.337 22.6247C145.76 23.6082 145.481 24.7091 145.481 25.9008H147.481C147.481 25.0329 147.681 24.2871 148.062 23.6371L146.337 22.6247ZM164.06 31.4407L163.55 32.301L163.557 32.305L164.06 31.4407ZM161.769 29.1502L162.629 28.6404L162.629 28.6404L161.769 29.1502ZM161.769 22.8646L160.909 22.3548L160.909 22.3548L161.769 22.8646ZM164.06 20.5741L163.557 19.7097L163.55 19.7138L164.06 20.5741ZM170.452 20.6273L169.939 21.4862L169.951 21.4928L170.452 20.6273ZM172.689 22.9445L171.795 23.3917L173.689 22.9445H172.689ZM172.689 12.0246V11.0246H171.689V12.0246H172.689ZM173.541 12.0246H174.541V11.0246H173.541V12.0246ZM173.541 32V33H174.541V32H173.541ZM172.689 32H171.689V33H172.689V32ZM172.689 29.0969H173.689V25.2378L171.815 28.6113L172.689 29.0969ZM170.372 31.4141L169.871 30.5486L169.864 30.5525L170.372 31.4141ZM169.946 30.8015L170.457 31.6606L170.463 31.6574L169.946 30.8015ZM171.97 28.7773L171.114 28.2602L171.111 28.2655L171.97 28.7773ZM171.97 23.2907L171.106 23.7946L171.11 23.8012L171.114 23.8078L171.97 23.2907ZM169.946 21.2399L169.421 22.091L169.429 22.0958L169.946 21.2399ZM164.512 21.2399L165.024 22.099L165.031 22.095L165.037 22.0909L164.512 21.2399ZM162.488 28.7773L161.617 29.2676L161.623 29.2784L161.629 29.2891L162.488 28.7773ZM164.486 30.8015L163.961 31.6525L163.971 31.659L163.982 31.6653L164.486 30.8015ZM167.256 31.293C166.274 31.293 165.383 31.0537 164.562 30.5763L163.557 32.305C164.689 32.9641 165.929 33.293 167.256 33.293V31.293ZM164.569 30.5804C163.755 30.0978 163.112 29.4548 162.629 28.6404L160.909 29.66C161.563 30.7632 162.447 31.6472 163.55 32.301L164.569 30.5804ZM162.629 28.6404C162.154 27.839 161.917 26.9681 161.917 26.0074H159.917C159.917 27.3194 160.247 28.5437 160.909 29.66L162.629 28.6404ZM161.917 26.0074C161.917 25.0467 162.154 24.1757 162.629 23.3744L160.909 22.3548C160.247 23.4711 159.917 24.6953 159.917 26.0074H161.917ZM162.629 23.3744C163.112 22.56 163.755 21.917 164.569 21.4344L163.55 19.7138C162.447 20.3675 161.563 21.2516 160.909 22.3548L162.629 23.3744ZM164.562 21.4384C165.383 20.9611 166.274 20.7218 167.256 20.7218V18.7218C165.929 18.7218 164.689 19.0507 163.557 19.7097L164.562 21.4384ZM167.256 20.7218C168.184 20.7218 169.074 20.9697 169.939 21.4862L170.964 19.7685C169.806 19.0776 168.564 18.7218 167.256 18.7218V20.7218ZM169.951 21.4928C170.81 21.99 171.41 22.6236 171.795 23.3917L173.583 22.4973C173.009 21.3477 172.118 20.4365 170.953 19.7619L169.951 21.4928ZM173.689 22.9445V12.0246H171.689V22.9445H173.689ZM172.689 13.0246H173.541V11.0246H172.689V13.0246ZM172.541 12.0246V32H174.541V12.0246H172.541ZM173.541 31H172.689V33H173.541V31ZM173.689 32V29.0969H171.689V32H173.689ZM171.815 28.6113C171.376 29.4016 170.737 30.047 169.871 30.5486L170.873 32.2795C172.031 31.6092 172.937 30.7099 173.563 29.5826L171.815 28.6113ZM169.864 30.5525C169.013 31.054 168.148 31.293 167.256 31.293V33.293C168.529 33.293 169.742 32.946 170.88 32.2756L169.864 30.5525ZM167.229 32.5472C168.385 32.5472 169.467 32.2505 170.457 31.6606L169.434 29.9424C168.755 30.3468 168.026 30.5472 167.229 30.5472V32.5472ZM170.463 31.6574C171.452 31.0598 172.246 30.2683 172.829 29.2891L171.111 28.2655C170.7 28.9554 170.144 29.5133 169.429 29.9456L170.463 31.6574ZM172.826 29.2944C173.433 28.2893 173.742 27.1966 173.742 26.034H171.742C171.742 26.8246 171.537 27.5607 171.114 28.2602L172.826 29.2944ZM173.742 26.034C173.742 24.8714 173.433 23.7787 172.826 22.7736L171.114 23.8078C171.537 24.5073 171.742 25.2435 171.742 26.034H173.742ZM172.834 22.7869C172.251 21.7887 171.457 20.9846 170.463 20.384L169.429 22.0958C170.139 22.5251 170.694 23.0882 171.106 23.7946L172.834 22.7869ZM170.471 20.3889C169.479 19.777 168.392 19.4675 167.229 19.4675V21.4675C168.019 21.4675 168.743 21.673 169.421 22.0909L170.471 20.3889ZM167.229 19.4675C166.066 19.4675 164.979 19.777 163.987 20.3889L165.037 22.0909C165.715 21.673 166.439 21.4675 167.229 21.4675V19.4675ZM164.001 20.3808C163.018 20.9661 162.232 21.764 161.651 22.7602L163.379 23.768C163.792 23.0596 164.338 22.5081 165.024 22.099L164.001 20.3808ZM161.651 22.7602C161.066 23.7638 160.769 24.8518 160.769 26.0074H162.769C162.769 25.2098 162.97 24.469 163.379 23.768L161.651 22.7602ZM160.769 26.0074C160.769 27.1704 161.052 28.263 161.617 29.2676L163.36 28.287C162.966 27.5871 162.769 26.833 162.769 26.0074H160.769ZM161.629 29.2891C162.209 30.2633 162.99 31.0539 163.961 31.6525L165.011 29.9504C164.312 29.5192 163.761 28.9603 163.347 28.2655L161.629 29.2891ZM163.982 31.6653C164.985 32.2507 166.073 32.5472 167.229 32.5472V30.5472C166.431 30.5472 165.691 30.3466 164.99 29.9377L163.982 31.6653Z" fill="#FFFF00" mask="url(#path-3-outside-1_95_26)"/>
</g>
<defs>
<filter id="filter0_d_95_26" x="0" y="0" width="272" height="70" filterUnits="userSpaceOnUse" color-interpolation-filters="sRGB">
<feFlood flood-opacity="0" result="BackgroundImageFix"/>
<feColorMatrix in="SourceAlpha" type="matrix" values="0 0 0 0 0 0 0 0 0 0 0 0 0 0 0 0 0 0 127 0" result="hardAlpha"/>
<feOffset dx="15" dy="15"/>
<feComposite in2="hardAlpha" operator="out"/>
<feColorMatrix type="matrix" values="0 0 0 0 1 0 0 0 0 1 0 0 0 0 0 0 0 0 1 0"/>
<feBlend mode="normal" in2="BackgroundImageFix" result="effect1_dropShadow_95_26"/>
<feBlend mode="normal" in="SourceGraphic" in2="effect1_dropShadow_95_26" result="shape"/>
</filter>
</defs>
</svg>
