<svg width="31" height="31" viewBox="0 0 31 31" fill="none" xmlns="http://www.w3.org/2000/svg">
<circle cx="15.0593" cy="15.2403" r="13" fill="#FFFF00"/>
<path d="M22.5449 10.2995C22.7669 10.5101 22.8961 10.8002 22.9043 11.1061C22.9124 11.4119 22.7987 11.7085 22.5882 11.9305L15.0305 19.9019C14.7607 20.1859 14.436 20.4121 14.0761 20.5668C13.7162 20.7215 13.3286 20.8015 12.9368 20.8019H12.8676C12.4643 20.7915 12.0675 20.6969 11.703 20.524C11.3384 20.3511 11.0141 20.1038 10.7509 19.798L7.49356 16.0151C7.29381 15.7832 7.19435 15.4815 7.21707 15.1763C7.23979 14.8711 7.38283 14.5874 7.61472 14.3876C7.8466 14.1879 8.14834 14.0884 8.45356 14.1111C8.75877 14.1339 9.04246 14.2769 9.24222 14.5088L12.4995 18.2928C12.552 18.3541 12.6169 18.4037 12.6899 18.4382C12.7628 18.4727 12.8423 18.4914 12.923 18.493C13.004 18.4975 13.0849 18.4837 13.1598 18.4527C13.2347 18.4216 13.3017 18.3741 13.3557 18.3136L20.9134 10.3422C21.0177 10.2323 21.1426 10.144 21.2811 10.0823C21.4195 10.0206 21.5688 9.98686 21.7203 9.9829C21.8718 9.97894 22.0226 10.0049 22.1641 10.0592C22.3056 10.1135 22.435 10.1952 22.5449 10.2995ZM30.0593 15.2403C30.0593 18.207 29.1796 21.1071 27.5314 23.5739C25.8832 26.0406 23.5405 27.9632 20.7996 29.0985C18.0587 30.2338 15.0427 30.5309 12.133 29.9521C9.22326 29.3733 6.55052 27.9447 4.45273 25.8469C2.35494 23.7491 0.926332 21.0764 0.347554 18.1667C-0.231225 15.257 0.0658255 12.241 1.20114 9.50006C2.33645 6.75917 4.25904 4.41649 6.72578 2.76827C9.19251 1.12005 12.0926 0.240318 15.0593 0.240318C19.0362 0.244899 22.8488 1.82672 25.6609 4.63877C28.4729 7.45083 30.0547 11.2635 30.0593 15.2403ZM27.7516 15.2403C27.7488 12.7345 27.0055 10.2854 25.6151 8.20074C24.2246 6.11609 22.2491 4.48888 19.9366 3.52359C18.9088 3.25845 17.8516 3.1245 16.7901 3.12493C13.8541 3.12749 11.0099 4.14781 8.74178 6.0121C6.47367 7.87638 4.92203 10.4693 4.35113 13.3492C3.78024 16.2291 4.22541 19.2179 5.61082 21.8064C6.99623 24.395 9.23618 26.4231 11.9491 27.5455C13.8218 28.0188 15.7778 28.0585 17.6682 27.6615C19.5585 27.2644 21.3333 26.4412 22.8573 25.2545C24.3813 24.0677 25.6144 22.5488 26.4626 20.8134C27.3107 19.078 27.7516 17.1719 27.7516 15.2403Z" fill="black"/>
</svg>
