<svg width="224" height="225" viewBox="0 0 224 225" fill="none" xmlns="http://www.w3.org/2000/svg">
<path d="M110.028 11.7587C110.401 9.5332 113.599 9.53321 113.972 11.7587L123.307 67.4093C123.584 69.0577 125.64 69.6599 126.762 68.421L164.569 26.6737C166.083 25.0018 168.776 26.7247 167.892 28.7999L145.776 80.7223C145.122 82.2571 146.524 83.8705 148.135 83.4375L202.449 68.8381C204.626 68.253 205.957 71.1554 204.093 72.4231L157.514 104.112C156.137 105.049 156.441 107.16 158.027 107.67L211.608 124.893C213.753 125.583 213.297 128.742 211.044 128.797L154.815 130.16C153.148 130.2 152.26 132.141 153.318 133.429L189.114 177.005C190.545 178.748 188.448 181.158 186.525 179.981L138.525 150.614C137.101 149.743 135.299 150.898 135.495 152.556L142.15 208.611C142.416 210.852 139.346 211.749 138.363 209.718L113.8 158.969C113.072 157.464 110.928 157.464 110.2 158.969L85.6367 209.718C84.6537 211.749 81.5845 210.852 81.8504 208.611L88.5045 152.556C88.7014 150.898 86.8992 149.743 85.4747 150.614L37.4751 179.981C35.5518 181.158 33.4547 178.748 34.8859 177.005L70.6824 133.429C71.7403 132.141 70.8515 130.2 69.1855 130.16L12.9559 128.797C10.7033 128.742 10.2471 125.583 12.3923 124.893L65.9735 107.67C67.5591 107.16 67.8635 105.049 66.4864 104.112L19.9069 72.4231C18.0434 71.1554 19.3744 68.253 21.551 68.8381L75.865 83.4375C77.476 83.8705 78.878 82.2571 78.2242 80.7223L56.1084 28.7999C55.2245 26.7247 57.9168 25.0017 59.4309 26.6737L97.2377 68.421C98.3596 69.6599 100.416 69.0577 100.693 67.4093L110.028 11.7587Z" fill="#FFFF00"/>
<ellipse cx="112" cy="113" rx="62" ry="60" fill="#FFFF00"/>
</svg>
