<svg width="172" height="100" viewBox="0 0 172 100" fill="none" xmlns="http://www.w3.org/2000/svg">
<rect x="122" y="23" width="50" height="50" rx="25" fill="black"/>
<rect y="34" width="30" height="30" rx="15" fill="#FFFF00"/>
<g filter="url(#filter0_d_54_433)">
<rect x="15" y="25" width="125" height="48" rx="24" fill="#DAF1FA" fill-opacity="0.86" shape-rendering="crispEdges"/>
<path d="M36.1389 53.304C36.5443 53.304 36.8749 53.2453 37.1309 53.128C37.3976 53 37.6003 52.8347 37.7389 52.632C37.8883 52.4187 37.9896 52.1787 38.0429 51.912C38.0963 51.6347 38.1229 51.352 38.1229 51.064V50.776H40.2349V51.064C40.2349 52.3973 39.8829 53.4267 39.1789 54.152C38.4856 54.8667 37.4723 55.224 36.1389 55.224C34.8589 55.224 33.8456 54.8347 33.0989 54.056C32.3523 53.2773 31.9789 52.1413 31.9789 50.648V48.152C31.9789 47.4373 32.0749 46.7973 32.2669 46.232C32.4589 45.656 32.7363 45.176 33.0989 44.792C33.4616 44.3973 33.8989 44.0987 34.4109 43.896C34.9229 43.6827 35.4989 43.576 36.1389 43.576C36.8003 43.576 37.3869 43.672 37.8989 43.864C38.4109 44.056 38.8376 44.3333 39.1789 44.696C39.5309 45.0587 39.7923 45.496 39.9629 46.008C40.1443 46.52 40.2349 47.096 40.2349 47.736V48.024H38.1229V47.736C38.1229 47.4693 38.0909 47.2027 38.0269 46.936C37.9629 46.6693 37.8563 46.4293 37.7069 46.216C37.5576 46.0027 37.3549 45.832 37.0989 45.704C36.8429 45.5653 36.5229 45.496 36.1389 45.496C35.7869 45.496 35.4829 45.5653 35.2269 45.704C34.9709 45.832 34.7576 46.0133 34.5869 46.248C34.4163 46.472 34.2883 46.7387 34.2029 47.048C34.1283 47.3467 34.0909 47.6613 34.0909 47.992V50.808C34.0909 51.1707 34.1283 51.5067 34.2029 51.816C34.2776 52.1147 34.3949 52.376 34.5549 52.6C34.7149 52.824 34.9229 53 35.1789 53.128C35.4456 53.2453 35.7656 53.304 36.1389 53.304ZM50.0318 51.128C50.0318 51.7893 49.9198 52.376 49.6958 52.888C49.4718 53.3893 49.1678 53.816 48.7838 54.168C48.3998 54.5093 47.9571 54.7707 47.4558 54.952C46.9651 55.1333 46.4478 55.224 45.9038 55.224C45.3598 55.224 44.8371 55.1333 44.3358 54.952C43.8451 54.7707 43.4078 54.5093 43.0238 54.168C42.6398 53.816 42.3358 53.3893 42.1118 52.888C41.8878 52.376 41.7758 51.7893 41.7758 51.128V50.936C41.7758 50.2853 41.8878 49.7093 42.1118 49.208C42.3358 48.696 42.6398 48.264 43.0238 47.912C43.4078 47.56 43.8451 47.2933 44.3358 47.112C44.8371 46.9307 45.3598 46.84 45.9038 46.84C46.4478 46.84 46.9651 46.9307 47.4558 47.112C47.9571 47.2933 48.3998 47.56 48.7838 47.912C49.1678 48.264 49.4718 48.696 49.6958 49.208C49.9198 49.7093 50.0318 50.2853 50.0318 50.936V51.128ZM45.9038 53.304C46.1918 53.304 46.4638 53.256 46.7198 53.16C46.9758 53.064 47.1998 52.9253 47.3918 52.744C47.5838 52.5627 47.7331 52.344 47.8398 52.088C47.9571 51.8213 48.0158 51.5227 48.0158 51.192V50.872C48.0158 50.5413 47.9571 50.248 47.8398 49.992C47.7331 49.7253 47.5838 49.5013 47.3918 49.32C47.1998 49.1387 46.9758 49 46.7198 48.904C46.4638 48.808 46.1918 48.76 45.9038 48.76C45.6158 48.76 45.3438 48.808 45.0878 48.904C44.8318 49 44.6078 49.1387 44.4158 49.32C44.2238 49.5013 44.0691 49.7253 43.9518 49.992C43.8451 50.248 43.7918 50.5413 43.7918 50.872V51.192C43.7918 51.5227 43.8451 51.8213 43.9518 52.088C44.0691 52.344 44.2238 52.5627 44.4158 52.744C44.6078 52.9253 44.8318 53.064 45.0878 53.16C45.3438 53.256 45.6158 53.304 45.9038 53.304ZM54.0687 55H52.0527V47.064H54.0687V48.248H54.3567C54.538 47.8 54.8314 47.4533 55.2367 47.208C55.642 46.9627 56.1167 46.84 56.6607 46.84C57.0447 46.84 57.402 46.904 57.7327 47.032C58.074 47.1493 58.3727 47.336 58.6287 47.592C58.8847 47.848 59.082 48.1733 59.2207 48.568C59.37 48.9627 59.4447 49.432 59.4447 49.976V55H57.4287V50.488C57.4287 49.9227 57.29 49.48 57.0127 49.16C56.746 48.8293 56.3567 48.664 55.8447 48.664C55.2474 48.664 54.7994 48.8667 54.5007 49.272C54.2127 49.6667 54.0687 50.2 54.0687 50.872V55ZM61.6256 47.064H63.9776V43.8H65.9936V47.064H68.8576V48.984H65.9936V52.6C65.9936 52.92 66.1376 53.08 66.4256 53.08H68.5696V55H65.2096C64.8469 55 64.5482 54.8827 64.3136 54.648C64.0896 54.4133 63.9776 54.1147 63.9776 53.752V48.984H61.6256V47.064ZM76.7824 53.848C76.5691 54.3493 76.2704 54.7067 75.8864 54.92C75.5024 55.1227 75.0544 55.224 74.5424 55.224C74.0624 55.224 73.6091 55.1333 73.1824 54.952C72.7664 54.7707 72.3984 54.504 72.0784 54.152C71.7584 53.8 71.5024 53.3733 71.3104 52.872C71.1291 52.3707 71.0384 51.8 71.0384 51.16V50.904C71.0384 50.2747 71.1291 49.7093 71.3104 49.208C71.4918 48.7067 71.7371 48.28 72.0464 47.928C72.3558 47.576 72.7131 47.3093 73.1184 47.128C73.5344 46.936 73.9771 46.84 74.4464 46.84C75.0118 46.84 75.4651 46.936 75.8064 47.128C76.1584 47.32 76.4358 47.6187 76.6384 48.024H76.9264V47.064H78.9424V52.6C78.9424 52.92 79.0864 53.08 79.3744 53.08H79.6784V55H78.3024C77.9398 55 77.6411 54.8933 77.4064 54.68C77.1824 54.4667 77.0704 54.1893 77.0704 53.848H76.7824ZM74.9904 53.304C75.5771 53.304 76.0464 53.112 76.3984 52.728C76.7504 52.3333 76.9264 51.8 76.9264 51.128V50.936C76.9264 50.264 76.7504 49.736 76.3984 49.352C76.0464 48.9573 75.5771 48.76 74.9904 48.76C74.4038 48.76 73.9344 48.9573 73.5824 49.352C73.2304 49.736 73.0544 50.264 73.0544 50.936V51.128C73.0544 51.8 73.2304 52.3333 73.5824 52.728C73.9344 53.112 74.4038 53.304 74.9904 53.304ZM89.1873 52.088C89.006 53.0267 88.574 53.784 87.8913 54.36C87.2193 54.936 86.318 55.224 85.1873 55.224C84.6006 55.224 84.0513 55.1333 83.5393 54.952C83.038 54.7707 82.6006 54.5093 82.2273 54.168C81.854 53.8267 81.5606 53.4053 81.3473 52.904C81.134 52.4027 81.0273 51.832 81.0273 51.192V51C81.0273 50.36 81.134 49.784 81.3473 49.272C81.5606 48.76 81.854 48.3227 82.2273 47.96C82.6113 47.5973 83.054 47.32 83.5553 47.128C84.0673 46.936 84.6113 46.84 85.1873 46.84C86.2966 46.84 87.1926 47.128 87.8753 47.704C88.5686 48.28 89.006 49.0373 89.1873 49.976L87.2033 50.488C87.1393 50.0187 86.9366 49.6133 86.5953 49.272C86.254 48.9307 85.774 48.76 85.1553 48.76C84.8673 48.76 84.5953 48.8133 84.3393 48.92C84.0833 49.0267 83.8593 49.1813 83.6673 49.384C83.4753 49.576 83.3206 49.816 83.2033 50.104C83.0966 50.3813 83.0433 50.696 83.0433 51.048V51.144C83.0433 51.496 83.0966 51.8107 83.2033 52.088C83.3206 52.3547 83.4753 52.5787 83.6673 52.76C83.8593 52.9413 84.0833 53.08 84.3393 53.176C84.5953 53.2613 84.8673 53.304 85.1553 53.304C85.774 53.304 86.2433 53.1493 86.5633 52.84C86.894 52.5307 87.1073 52.1147 87.2033 51.592L89.1873 52.088ZM91.0162 47.064H93.3682V43.8H95.3842V47.064H98.2482V48.984H95.3842V52.6C95.3842 52.92 95.5282 53.08 95.8162 53.08H97.9602V55H94.6002C94.2375 55 93.9389 54.8827 93.7042 54.648C93.4802 54.4133 93.3682 54.1147 93.3682 53.752V48.984H91.0162V47.064Z" fill="#1B4367"/>
<mask id="mask0_54_433" style="mask-type:alpha" maskUnits="userSpaceOnUse" x="108" y="41" width="16" height="16">
<path d="M109.6 49.8V48.2H119.2L116 45L116.8 43.4L122.4 49L116.8 54.6L116 53L119.2 49.8H109.6Z" fill="#545454"/>
</mask>
<g mask="url(#mask0_54_433)">
<rect x="108" y="41" width="16" height="16" fill="#1B4367"/>
</g>
</g>
<defs>
<filter id="filter0_d_54_433" x="8" y="20" width="139" height="62" filterUnits="userSpaceOnUse" color-interpolation-filters="sRGB">
<feFlood flood-opacity="0" result="BackgroundImageFix"/>
<feColorMatrix in="SourceAlpha" type="matrix" values="0 0 0 0 0 0 0 0 0 0 0 0 0 0 0 0 0 0 127 0" result="hardAlpha"/>
<feOffset dy="2"/>
<feGaussianBlur stdDeviation="3.5"/>
<feComposite in2="hardAlpha" operator="out"/>
<feColorMatrix type="matrix" values="0 0 0 0 0 0 0 0 0 0 0 0 0 0 0 0 0 0 0.24 0"/>
<feBlend mode="normal" in2="BackgroundImageFix" result="effect1_dropShadow_54_433"/>
<feBlend mode="normal" in="SourceGraphic" in2="effect1_dropShadow_54_433" result="shape"/>
</filter>
</defs>
</svg>
