<svg width="32" height="33" viewBox="0 0 32 33" fill="none" xmlns="http://www.w3.org/2000/svg">
<path d="M15.9835 32.4806C7.1558 32.4806 0 25.2099 0 16.2403C0 7.27077 7.1558 0 15.9835 0C24.8112 0 31.967 7.27077 31.967 16.2403C31.967 25.2099 24.8112 32.4806 15.9835 32.4806ZM15.9835 1.76673C8.15895 1.76673 1.73879 8.29004 1.73879 16.2403C1.73879 24.1906 8.15895 30.7139 15.9835 30.7139C23.8081 30.7139 30.2282 24.1906 30.2282 16.2403C30.2282 8.29004 23.8081 1.76673 15.9835 1.76673Z" fill="black"/>
<path d="M15.6493 25.5496L14.4456 24.2585L22.2701 16.2403L14.4456 8.2221L15.6493 6.93101L24.8114 16.2403L15.6493 25.5496Z" fill="black"/>
<path d="M23.5406 17.1916H7.49023V15.289H23.5406V17.1916Z" fill="black"/>
</svg>
