<svg width="25" height="25" viewBox="0 0 25 25" fill="none" xmlns="http://www.w3.org/2000/svg">
<path d="M20.3727 8.31767H17.3866V6.32693C17.3866 5.23202 16.4908 4.33618 15.3958 4.33618H9.4236C8.32869 4.33618 7.43286 5.23202 7.43286 6.32693V8.31767H4.44674C3.35183 8.31767 2.45599 9.21351 2.45599 10.3084V20.2621H22.3635V10.3084C22.3635 9.21351 21.4676 8.31767 20.3727 8.31767ZM9.4236 6.32693H15.3958V8.31767H9.4236V6.32693ZM20.3727 18.2714H4.44674V15.2853H6.43749V16.2807H8.42823V15.2853H16.3912V16.2807H18.382V15.2853H20.3727V18.2714ZM18.382 13.2945V12.2992H16.3912V13.2945H8.42823V12.2992H6.43749V13.2945H4.44674V10.3084H20.3727V13.2945H18.382Z" fill="#312F2F"/>
</svg>
