<svg width="42" height="43" viewBox="0 0 42 43" fill="none" xmlns="http://www.w3.org/2000/svg">
<path d="M34.8155 14.7616H29.5992V11.2841C29.5992 9.37151 28.0344 7.80664 26.1217 7.80664H15.6893C13.7767 7.80664 12.2118 9.37151 12.2118 11.2841V14.7616H6.99556C5.08294 14.7616 3.51807 16.3265 3.51807 18.2391V35.6266H38.293V18.2391C38.293 16.3265 36.7281 14.7616 34.8155 14.7616ZM15.6893 11.2841H26.1217V14.7616H15.6893V11.2841ZM34.8155 32.1491H6.99556V26.9328H10.473V28.6716H13.9505V26.9328H27.8605V28.6716H31.338V26.9328H34.8155V32.1491ZM31.338 23.4553V21.7166H27.8605V23.4553H13.9505V21.7166H10.473V23.4553H6.99556V18.2391H34.8155V23.4553H31.338Z" fill="#312F2F"/>
</svg>
