<svg width="19" height="19" viewBox="0 0 19 19" fill="none" xmlns="http://www.w3.org/2000/svg">
<path d="M9.29842 1.87915C5.03665 1.87915 1.54974 5.35831 1.54974 9.64333C1.54974 13.5177 4.38576 16.7334 8.08963 17.3145V11.8904H6.12147V9.64333H8.08963V7.93087C8.08963 5.98595 9.24418 4.91663 11.0186 4.91663C11.8632 4.91663 12.7466 5.06386 12.7466 5.06386V6.97778H11.7703C10.8094 6.97778 10.5072 7.57443 10.5072 8.18658V9.64333H12.6614L12.3127 11.8904H10.5072V17.3145C12.3332 17.0262 13.9958 16.0945 15.1951 14.6878C16.3944 13.281 17.0513 11.4919 17.0471 9.64333C17.0471 5.35831 13.5602 1.87915 9.29842 1.87915Z" fill="white"/>
</svg>
