<svg width="28" height="28" viewBox="0 0 28 28" fill="none" xmlns="http://www.w3.org/2000/svg">
<path d="M14.1469 2.9248C7.96737 2.9248 2.91142 7.96951 2.91142 14.1827C2.91142 19.8004 7.02359 24.4631 12.3941 25.3058V17.441H9.54033V14.1827H12.3941V11.6997C12.3941 8.87958 14.0682 7.32909 16.6411 7.32909C17.8658 7.32909 19.1466 7.54257 19.1466 7.54257V10.3177H17.731C16.3378 10.3177 15.8996 11.1828 15.8996 12.0704V14.1827H19.023L18.5174 17.441H15.8996V25.3058C18.5471 24.8876 20.958 23.5368 22.6969 21.497C24.4359 19.4573 25.3883 16.8631 25.3823 14.1827C25.3823 7.96951 20.3263 2.9248 14.1469 2.9248Z" fill="white"/>
</svg>
