<svg width="19" height="21" viewBox="0 0 19 21" fill="none" xmlns="http://www.w3.org/2000/svg">
<path d="M14.9022 3.17181C14.1341 2.29502 13.7109 1.16902 13.7112 0.00341797H10.2395V13.9354C10.2127 14.6893 9.89438 15.4034 9.35159 15.9273C8.8088 16.4513 8.08387 16.7441 7.32947 16.7442C5.73404 16.7442 4.40826 15.4409 4.40826 13.823C4.40826 11.8905 6.27334 10.4411 8.1946 11.0366V7.48622C4.31838 6.96939 0.925278 9.98048 0.925278 13.823C0.925278 17.5644 4.02626 20.2272 7.31824 20.2272C10.8462 20.2272 13.7112 17.3622 13.7112 13.823V6.75591C15.119 7.76693 16.8092 8.30938 18.5424 8.3064V4.83465C18.5424 4.83465 16.4302 4.93577 14.9022 3.17181Z" fill="white"/>
</svg>
