<svg width="17" height="14" viewBox="0 0 17 14" fill="none" xmlns="http://www.w3.org/2000/svg">
<path d="M16.6867 1.56023C16.09 1.83144 15.4469 2.00966 14.7805 2.09489C15.4624 1.68421 15.9893 1.03332 16.2373 0.250707C15.5941 0.638141 14.8812 0.909345 14.1296 1.06432C13.5175 0.397932 12.6574 0.010498 11.681 0.010498C9.86009 0.010498 8.37235 1.49825 8.37235 3.33468C8.37235 3.59814 8.40334 3.85384 8.45758 4.09405C5.69905 3.95458 3.24272 2.62955 1.60775 0.622644C1.32105 1.11081 1.15832 1.68421 1.15832 2.28861C1.15832 3.44316 1.73948 4.46599 2.63832 5.04714C2.08817 5.04714 1.57675 4.89217 1.12733 4.65971V4.68295C1.12733 6.29468 2.27413 7.64295 3.79288 7.94515C3.30527 8.07859 2.79337 8.09715 2.29738 7.99939C2.50784 8.65995 2.92002 9.23794 3.47597 9.65213C4.03192 10.0663 4.70369 10.2959 5.39685 10.3085C4.22187 11.2387 2.7654 11.7415 1.26681 11.7343C1.00335 11.7343 0.739896 11.7188 0.47644 11.6878C1.94869 12.6331 3.69989 13.1833 5.57507 13.1833C11.681 13.1833 15.0362 8.11562 15.0362 3.72212C15.0362 3.57489 15.0362 3.43542 15.0285 3.28819C15.6794 2.82327 16.2373 2.23437 16.6867 1.56023Z" fill="white"/>
</svg>
