<svg width="14" height="13" viewBox="0 0 14 13" fill="none" xmlns="http://www.w3.org/2000/svg">
<path d="M5.17654 2.8947L5.17651 2.89467C4.58785 2.39318 4.58785 1.5864 5.17651 1.0849C5.76956 0.579653 6.73044 0.579653 7.32349 1.0849L12.7922 5.74381C13.3809 6.24531 13.3809 7.05209 12.7922 7.55359L7.32349 12.2125C6.73044 12.7177 5.76956 12.7177 5.17651 12.2125C4.58785 11.711 4.58785 10.9042 5.17651 10.4027L5.17654 10.4027L7.97439 8.01507L8.06989 7.93357L7.94434 7.93356L0.0636242 7.93287C0.0651582 7.92169 0.06651 7.90944 0.0677234 7.89635C0.0730656 7.8387 0.0763977 7.75671 0.0783245 7.65771C0.0821852 7.45933 0.0804672 7.18832 0.0770523 6.89721C0.0754941 6.76438 0.0735845 6.6274 0.0716848 6.49114C0.0656014 6.05477 0.0596202 5.62573 0.0656106 5.36384H7.94434H8.06991L7.97439 5.28232L5.17654 2.8947Z" fill="#140A88" stroke="black" stroke-width="0.0925926"/>
</svg>
