<svg width="15" height="15" viewBox="0 0 15 15" fill="none" xmlns="http://www.w3.org/2000/svg">
<path d="M14.3292 0.000271605C14.3049 0.0010393 14.2807 0.00316465 14.2566 0.00663767H10.4305C10.3441 0.00541601 10.2584 0.021375 10.1782 0.0535871C10.098 0.0857992 10.0251 0.133622 9.96354 0.194276C9.90202 0.254931 9.85317 0.327207 9.81983 0.406904C9.78648 0.486602 9.76931 0.572132 9.76931 0.658523C9.76931 0.744914 9.78648 0.830444 9.81983 0.910142C9.85317 0.989839 9.90202 1.06212 9.96354 1.12277C10.0251 1.18342 10.098 1.23125 10.1782 1.26346C10.2584 1.29567 10.3441 1.31163 10.4305 1.31041H12.7682L6.05815 8.02024C5.99558 8.08031 5.94563 8.15226 5.91122 8.23187C5.87681 8.31149 5.85863 8.39717 5.85774 8.4839C5.85686 8.57062 5.87329 8.65665 5.90608 8.73695C5.93886 8.81725 5.98734 8.8902 6.04867 8.95153C6.11 9.01286 6.18295 9.06133 6.26325 9.09412C6.34355 9.1269 6.42959 9.14333 6.51632 9.14245C6.60305 9.14156 6.68873 9.12339 6.76835 9.08897C6.84796 9.05456 6.91991 9.00461 6.97998 8.94205L13.69 2.23221V4.56984C13.6888 4.65622 13.7048 4.74198 13.737 4.82214C13.7692 4.9023 13.817 4.97526 13.8777 5.03678C13.9383 5.0983 14.0106 5.14715 14.0903 5.18049C14.17 5.21383 14.2555 5.231 14.3419 5.231C14.4283 5.231 14.5139 5.21383 14.5936 5.18049C14.6733 5.14715 14.7455 5.0983 14.8062 5.03678C14.8669 4.97526 14.9147 4.9023 14.9469 4.82214C14.9791 4.74198 14.9951 4.65622 14.9939 4.56984V0.741282C15.0068 0.647427 14.9992 0.55187 14.9715 0.461265C14.9438 0.370659 14.8966 0.287183 14.8334 0.216649C14.7701 0.146114 14.6922 0.0902164 14.6052 0.0528476C14.5181 0.0154788 14.4239 -0.00246294 14.3292 0.000271605ZM1.30381 2.61418C0.591238 2.61418 0 3.2054 0 3.91795V13.6962C0 14.4088 0.591238 15 1.30381 15H11.0824C11.795 15 12.3862 14.4088 12.3862 13.6962V7.17738V5.49673L11.0824 6.80051V8.48115V13.6962H1.30381V3.91795H6.51907H7.82288H8.19976L9.50358 2.61418H7.82288H6.51907H1.30381Z" fill="#4200FF"/>
</svg>
