<svg width="17" height="17" viewBox="0 0 17 17" fill="none" xmlns="http://www.w3.org/2000/svg">
<path d="M6.39819 15.9891C7.14206 16.2138 7.89368 16.3455 8.6918 16.3455C10.7469 16.3455 12.7178 15.5291 14.1709 14.076C15.6241 12.6228 16.4405 10.6519 16.4405 8.59683C16.4405 7.57925 16.2401 6.57165 15.8506 5.63153C15.4612 4.69142 14.8905 3.83721 14.1709 3.11768C13.4514 2.39815 12.5972 1.82739 11.6571 1.43798C10.717 1.04857 9.70937 0.848145 8.6918 0.848145C7.67423 0.848145 6.66662 1.04857 5.7265 1.43798C4.78639 1.82739 3.93218 2.39815 3.21265 3.11768C1.75949 4.57084 0.943115 6.54175 0.943115 8.59683C0.943115 11.89 3.01201 14.7183 5.93327 15.8341C5.86353 15.2297 5.79379 14.2301 5.93327 13.5405L6.82436 9.71264C6.82436 9.71264 6.59965 9.26321 6.59965 8.55033C6.59965 7.48102 7.26604 6.6829 8.02541 6.6829C8.6918 6.6829 9.00174 7.17107 9.00174 7.79871C9.00174 8.4651 8.56007 9.41819 8.33536 10.3325C8.20363 11.0919 8.73829 11.7583 9.51316 11.7583C10.8924 11.7583 11.9617 10.286 11.9617 8.20939C11.9617 6.34971 10.629 5.07892 8.71504 5.07892C6.52991 5.07892 5.24363 6.70615 5.24363 8.41861C5.24363 9.08499 5.4606 9.75913 5.81704 10.2008C5.88677 10.2473 5.88677 10.3093 5.86353 10.4255L5.63882 11.2701C5.63882 11.4018 5.55358 11.4483 5.42185 11.3554C4.43002 10.9214 3.85662 9.51117 3.85662 8.37211C3.85662 5.92353 5.59232 3.69966 8.93975 3.69966C11.6053 3.69966 13.6819 5.61358 13.6819 8.15515C13.6819 10.8207 12.0315 12.9593 9.66813 12.9593C8.91651 12.9593 8.18038 12.5564 7.91693 12.0837L7.39777 13.9202C7.21955 14.5866 6.73138 15.4777 6.39819 16.0123V15.9891Z" fill="white"/>
</svg>
