<svg width="17" height="12" viewBox="0 0 17 12" fill="none" xmlns="http://www.w3.org/2000/svg">
<path d="M6.76511 7.92129L10.7867 5.59668L6.76511 3.27208V7.92129ZM15.7226 1.85407C15.8233 2.21826 15.8931 2.70643 15.9395 3.32632C15.9938 3.94621 16.017 4.48087 16.017 4.9458L16.0635 5.59668C16.0635 7.29365 15.9395 8.54118 15.7226 9.3393C15.5289 10.0367 15.0794 10.4861 14.3821 10.6798C14.0179 10.7806 13.3515 10.8503 12.3287 10.8968C11.3213 10.951 10.3992 10.9743 9.54688 10.9743L8.31484 11.0208C5.06815 11.0208 3.04574 10.8968 2.24763 10.6798C1.55024 10.4861 1.10082 10.0367 0.907104 9.3393C0.806371 8.97511 0.736633 8.48694 0.690141 7.86705C0.6359 7.24715 0.612654 6.71249 0.612654 6.24757L0.566162 5.59668C0.566162 3.89972 0.690141 2.65219 0.907104 1.85407C1.10082 1.15669 1.55024 0.707266 2.24763 0.513549C2.61181 0.412817 3.2782 0.343078 4.30103 0.296586C5.30836 0.242345 6.23045 0.219099 7.0828 0.219099L8.31484 0.172607C11.5615 0.172607 13.5839 0.296586 14.3821 0.513549C15.0794 0.707266 15.5289 1.15669 15.7226 1.85407Z" fill="white"/>
</svg>
