<svg width="26" height="30" viewBox="0 0 26 30" fill="none" xmlns="http://www.w3.org/2000/svg">
<path d="M24.0916 13.0253L2.97722 0.755148C2.62195 0.548711 2.21443 0.459714 1.80912 0.500051C1.40381 0.540388 1.02001 0.708138 0.709032 0.980882C0.398049 1.25363 0.174691 1.61837 0.0688088 2.02637C-0.0370737 2.43437 -0.0204364 2.86618 0.116497 3.26411L3.74199 13.7985H13.1611C13.4263 13.7985 13.6806 13.9079 13.8682 14.1025C14.0557 14.2971 14.1611 14.5611 14.1611 14.8363C14.1611 15.1115 14.0557 15.3755 13.8682 15.5701C13.6806 15.7647 13.4263 15.874 13.1611 15.874H3.74199L0.116497 26.4085C0.00931663 26.7216 -0.0240268 27.0568 0.0192573 27.3861C0.0625415 27.7153 0.181194 28.0291 0.365285 28.301C0.549375 28.5729 0.793548 28.7951 1.07737 28.9489C1.36119 29.1028 1.6764 29.1839 1.99662 29.1855C2.34026 29.1848 2.67797 29.0925 2.97733 28.9174L24.0915 16.6473C24.4017 16.467 24.66 16.2041 24.8397 15.8858C25.0195 15.5675 25.1143 15.2053 25.1143 14.8363C25.1143 14.4674 25.0196 14.1051 24.8398 13.7868C24.66 13.4685 24.4018 13.2056 24.0916 13.0253Z" fill="#FFFF00"/>
</svg>
