<svg width="13" height="15" viewBox="0 0 13 15" fill="none" xmlns="http://www.w3.org/2000/svg">
<path d="M9.78664 2.80793C9.25696 2.20324 8.96506 1.42668 8.96528 0.622803H6.57093V10.2312C6.55247 10.7511 6.33295 11.2436 5.95861 11.605C5.58426 11.9663 5.08431 12.1683 4.56403 12.1683C3.46371 12.1683 2.54937 11.2695 2.54937 10.1537C2.54937 8.82091 3.83565 7.82133 5.16067 8.23201V5.78342C2.48738 5.42698 0.147278 7.50363 0.147278 10.1537C0.147278 12.734 2.28591 14.5704 4.55628 14.5704C6.98936 14.5704 8.96528 12.5945 8.96528 10.1537V5.27976C9.93618 5.97703 11.1019 6.35113 12.2972 6.34908V3.95474C12.2972 3.95474 10.8405 4.02447 9.78664 2.80793Z" fill="white"/>
</svg>
