<svg width="15" height="15" viewBox="0 0 15 15" fill="none" xmlns="http://www.w3.org/2000/svg">
<path d="M12.718 0.622803C13.129 0.622803 13.5232 0.786078 13.8138 1.07671C14.1044 1.36734 14.2677 1.76152 14.2677 2.17254V13.0207C14.2677 13.4317 14.1044 13.8259 13.8138 14.1165C13.5232 14.4072 13.129 14.5704 12.718 14.5704H1.8698C1.45879 14.5704 1.06461 14.4072 0.773975 14.1165C0.483344 13.8259 0.320068 13.4317 0.320068 13.0207V2.17254C0.320068 1.76152 0.483344 1.36734 0.773975 1.07671C1.06461 0.786078 1.45879 0.622803 1.8698 0.622803H12.718ZM12.3305 12.6333V8.52646C12.3305 7.8565 12.0644 7.21399 11.5907 6.74026C11.1169 6.26653 10.4744 6.00039 9.80445 6.00039C9.14582 6.00039 8.3787 6.40332 8.00676 7.00772V6.14761H5.84488V12.6333H8.00676V8.81316C8.00676 8.21651 8.48718 7.72834 9.08383 7.72834C9.37154 7.72834 9.64746 7.84264 9.85091 8.04608C10.0543 8.24952 10.1686 8.52545 10.1686 8.81316V12.6333H12.3305ZM3.32656 4.93107C3.67181 4.93107 4.00292 4.79392 4.24705 4.54979C4.49118 4.30566 4.62833 3.97454 4.62833 3.62929C4.62833 2.90866 4.04718 2.31976 3.32656 2.31976C2.97925 2.31976 2.64616 2.45773 2.40058 2.70332C2.155 2.9489 2.01703 3.28198 2.01703 3.62929C2.01703 4.34992 2.60593 4.93107 3.32656 4.93107ZM4.40362 12.6333V6.14761H2.25724V12.6333H4.40362Z" fill="white"/>
</svg>
