<svg width="25" height="20" viewBox="0 0 25 20" fill="none" xmlns="http://www.w3.org/2000/svg">
<path d="M24.4591 2.81252C23.5939 3.20576 22.6614 3.46417 21.6952 3.58776C22.6839 2.99228 23.4479 2.04851 23.8074 0.913728C22.8749 1.4755 21.8412 1.86874 20.7514 2.09345C19.8638 1.1272 18.6166 0.56543 17.201 0.56543C14.5607 0.56543 12.4034 2.72263 12.4034 5.38543C12.4034 5.76744 12.4484 6.1382 12.527 6.4865C8.52723 6.28427 4.96559 4.36301 2.59492 1.45303C2.17921 2.16086 1.94326 2.99228 1.94326 3.86865C1.94326 5.54273 2.78592 7.0258 4.08923 7.86846C3.29151 7.86846 2.54998 7.64375 1.89832 7.30669V7.3404C1.89832 9.67737 3.56116 11.6323 5.76331 12.0705C5.05629 12.264 4.31405 12.2909 3.59487 12.1492C3.90003 13.107 4.49768 13.945 5.3038 14.5456C6.10992 15.1462 7.08397 15.479 8.08904 15.4973C6.38534 16.8461 4.27349 17.5751 2.10056 17.5646C1.71855 17.5646 1.33655 17.5422 0.954544 17.4972C3.08928 18.8679 5.62848 19.6657 8.34746 19.6657C17.201 19.6657 22.0659 12.3177 22.0659 5.9472C22.0659 5.73373 22.0659 5.53149 22.0547 5.31802C22.9985 4.64389 23.8074 3.79 24.4591 2.81252Z" fill="white"/>
</svg>
