<svg width="24" height="16" viewBox="0 0 24 16" fill="none" xmlns="http://www.w3.org/2000/svg">
<path d="M9.77259 11.4859L15.6038 8.11529L9.77259 4.74466V11.4859ZM22.7607 2.68858C22.9068 3.21664 23.0079 3.92447 23.0753 4.82331C23.154 5.72214 23.1877 6.49739 23.1877 7.17151L23.2551 8.11529C23.2551 10.5758 23.0753 12.3848 22.7607 13.542C22.4799 14.5532 21.8282 15.2048 20.817 15.4857C20.2889 15.6318 19.3227 15.7329 17.8396 15.8003C16.379 15.879 15.042 15.9127 13.8061 15.9127L12.0197 15.9801C7.31203 15.9801 4.37958 15.8003 3.22233 15.4857C2.21114 15.2048 1.55949 14.5532 1.2786 13.542C1.13254 13.0139 1.03142 12.3061 0.964008 11.4073C0.88536 10.5084 0.851653 9.73319 0.851653 9.05907L0.784241 8.11529C0.784241 5.65473 0.964008 3.84583 1.2786 2.68858C1.55949 1.67739 2.21114 1.02573 3.22233 0.744847C3.75039 0.598787 4.71664 0.497668 6.19972 0.430255C7.66033 0.351607 8.99734 0.317901 10.2332 0.317901L12.0197 0.250488C16.7273 0.250488 19.6598 0.430255 20.817 0.744847C21.8282 1.02573 22.4799 1.67739 22.7607 2.68858Z" fill="white"/>
</svg>
