<svg width="16" height="17" viewBox="0 0 16 17" fill="none" xmlns="http://www.w3.org/2000/svg">
<path d="M4.67099 0.848145H11.1799C13.6595 0.848145 15.6741 2.8628 15.6741 5.34238V11.8513C15.6741 13.0432 15.2006 14.1863 14.3578 15.0292C13.515 15.872 12.3718 16.3455 11.1799 16.3455H4.67099C2.19142 16.3455 0.176758 14.3309 0.176758 11.8513V5.34238C0.176758 4.15043 0.650256 3.00731 1.49309 2.16448C2.33592 1.32164 3.47905 0.848145 4.67099 0.848145ZM4.51602 2.39788C3.77619 2.39788 3.06666 2.69178 2.54353 3.21491C2.02039 3.73805 1.72649 4.44758 1.72649 5.18741V12.0062C1.72649 13.5482 2.97403 14.7958 4.51602 14.7958H11.3349C12.0747 14.7958 12.7842 14.5019 13.3074 13.9787C13.8305 13.4556 14.1244 12.7461 14.1244 12.0062V5.18741C14.1244 3.64542 12.8768 2.39788 11.3349 2.39788H4.51602ZM11.9935 3.56018C12.2504 3.56018 12.4967 3.66223 12.6784 3.84387C12.86 4.02552 12.9621 4.27188 12.9621 4.52877C12.9621 4.78565 12.86 5.03202 12.6784 5.21366C12.4967 5.39531 12.2504 5.49735 11.9935 5.49735C11.7366 5.49735 11.4902 5.39531 11.3086 5.21366C11.127 5.03202 11.0249 4.78565 11.0249 4.52877C11.0249 4.27188 11.127 4.02552 11.3086 3.84387C11.4902 3.66223 11.7366 3.56018 11.9935 3.56018ZM7.92544 4.72249C8.95298 4.72249 9.93843 5.13067 10.665 5.85725C11.3916 6.58383 11.7998 7.56929 11.7998 8.59683C11.7998 9.62436 11.3916 10.6098 10.665 11.3364C9.93843 12.063 8.95298 12.4712 7.92544 12.4712C6.8979 12.4712 5.91245 12.063 5.18587 11.3364C4.45929 10.6098 4.0511 9.62436 4.0511 8.59683C4.0511 7.56929 4.45929 6.58383 5.18587 5.85725C5.91245 5.13067 6.8979 4.72249 7.92544 4.72249ZM7.92544 6.27222C7.30892 6.27222 6.71764 6.51713 6.2817 6.95308C5.84575 7.38903 5.60083 7.9803 5.60083 8.59683C5.60083 9.21335 5.84575 9.80462 6.2817 10.2406C6.71764 10.6765 7.30892 10.9214 7.92544 10.9214C8.54196 10.9214 9.13323 10.6765 9.56918 10.2406C10.0051 9.80462 10.25 9.21335 10.25 8.59683C10.25 7.9803 10.0051 7.38903 9.56918 6.95308C9.13323 6.51713 8.54196 6.27222 7.92544 6.27222Z" fill="white"/>
</svg>
