<svg width="21" height="21" viewBox="0 0 21 21" fill="none" xmlns="http://www.w3.org/2000/svg">
<path d="M18.353 0.00341797C18.949 0.00341797 19.5205 0.240164 19.9419 0.661574C20.3634 1.08298 20.6001 1.65454 20.6001 2.2505V17.9801C20.6001 18.5761 20.3634 19.1476 19.9419 19.569C19.5205 19.9904 18.949 20.2272 18.353 20.2272H2.62341C2.02745 20.2272 1.45589 19.9904 1.03448 19.569C0.613073 19.1476 0.376328 18.5761 0.376328 17.9801V2.2505C0.376328 1.65454 0.613073 1.08298 1.03448 0.661574C1.45589 0.240164 2.02745 0.00341797 2.62341 0.00341797H18.353ZM17.7912 17.4183V11.4636C17.7912 10.4921 17.4053 9.5605 16.7185 8.8736C16.0316 8.1867 15.0999 7.80081 14.1285 7.80081C13.1735 7.80081 12.0612 8.38505 11.5219 9.26141V8.01428H8.38719V17.4183H11.5219V11.8793C11.5219 11.0141 12.2185 10.3063 13.0836 10.3063C13.5008 10.3063 13.9009 10.472 14.1959 10.767C14.4908 11.062 14.6566 11.4621 14.6566 11.8793V17.4183H17.7912ZM4.73567 6.25032C5.23629 6.25032 5.71639 6.05145 6.07038 5.69747C6.42436 5.34348 6.62323 4.86338 6.62323 4.36277C6.62323 3.31787 5.78057 2.46398 4.73567 2.46398C4.23209 2.46398 3.74912 2.66403 3.39303 3.02012C3.03694 3.37621 2.83689 3.85918 2.83689 4.36277C2.83689 5.40766 3.69078 6.25032 4.73567 6.25032ZM6.2974 17.4183V8.01428H3.18519V17.4183H6.2974Z" fill="white"/>
</svg>
