<svg width="24" height="24" viewBox="0 0 24 24" fill="none" xmlns="http://www.w3.org/2000/svg">
<path d="M7.38415 0.879883H16.8219C20.4173 0.879883 23.3385 3.8011 23.3385 7.39643V16.8342C23.3385 18.5625 22.6519 20.22 21.4298 21.4421C20.2077 22.6642 18.5502 23.3507 16.8219 23.3507H7.38415C3.78881 23.3507 0.867599 20.4295 0.867599 16.8342V7.39643C0.867599 5.66814 1.55416 4.01063 2.77625 2.78854C3.99834 1.56645 5.65585 0.879883 7.38415 0.879883ZM7.15944 3.12697C6.08671 3.12697 5.05791 3.55311 4.29937 4.31165C3.54083 5.07019 3.11469 6.09899 3.11469 7.17172V17.0589C3.11469 19.2948 4.92359 21.1037 7.15944 21.1037H17.0466C18.1194 21.1037 19.1482 20.6775 19.9067 19.919C20.6652 19.1604 21.0914 18.1316 21.0914 17.0589V7.17172C21.0914 4.93587 19.2825 3.12697 17.0466 3.12697H7.15944ZM18.0016 4.81228C18.3741 4.81228 18.7313 4.96025 18.9947 5.22363C19.2581 5.48701 19.4061 5.84423 19.4061 6.21671C19.4061 6.58919 19.2581 6.94641 18.9947 7.20979C18.7313 7.47318 18.3741 7.62114 18.0016 7.62114C17.6292 7.62114 17.2719 7.47318 17.0086 7.20979C16.7452 6.94641 16.5972 6.58919 16.5972 6.21671C16.5972 5.84423 16.7452 5.48701 17.0086 5.22363C17.2719 4.96025 17.6292 4.81228 18.0016 4.81228ZM12.103 6.4976C13.5929 6.4976 15.0218 7.08946 16.0754 8.14299C17.1289 9.19652 17.7207 10.6254 17.7207 12.1153C17.7207 13.6052 17.1289 15.0341 16.0754 16.0876C15.0218 17.1412 13.5929 17.733 12.103 17.733C10.6131 17.733 9.18423 17.1412 8.13071 16.0876C7.07718 15.0341 6.48532 13.6052 6.48532 12.1153C6.48532 10.6254 7.07718 9.19652 8.13071 8.14299C9.18423 7.08946 10.6131 6.4976 12.103 6.4976ZM12.103 8.74468C11.2091 8.74468 10.3518 9.0998 9.71964 9.73192C9.08752 10.364 8.7324 11.2214 8.7324 12.1153C8.7324 13.0093 9.08752 13.8666 9.71964 14.4987C10.3518 15.1308 11.2091 15.4859 12.103 15.4859C12.997 15.4859 13.8543 15.1308 14.4864 14.4987C15.1185 13.8666 15.4737 13.0093 15.4737 12.1153C15.4737 11.2214 15.1185 10.364 14.4864 9.73192C13.8543 9.0998 12.997 8.74468 12.103 8.74468Z" fill="white"/>
</svg>
