<svg width="24" height="24" viewBox="0 0 24 24" fill="none" xmlns="http://www.w3.org/2000/svg">
<path d="M8.49002 22.8339C9.56862 23.1597 10.6585 23.3507 11.8157 23.3507C14.7955 23.3507 17.6533 22.167 19.7604 20.06C21.8674 17.9529 23.0511 15.0951 23.0511 12.1153C23.0511 10.6399 22.7605 9.17885 22.1959 7.8157C21.6313 6.45256 20.8037 5.21397 19.7604 4.17066C18.7171 3.12736 17.4785 2.29976 16.1153 1.73513C14.7522 1.1705 13.2912 0.879883 11.8157 0.879883C10.3403 0.879883 8.87924 1.1705 7.51609 1.73513C6.15295 2.29976 4.91436 3.12736 3.87106 4.17066C1.76401 6.27772 0.580276 9.13549 0.580276 12.1153C0.580276 16.8904 3.58014 20.9913 7.81589 22.6092C7.71478 21.7328 7.61366 20.2835 7.81589 19.2835L9.10797 13.7332C9.10797 13.7332 8.78214 13.0816 8.78214 12.0479C8.78214 10.4974 9.74839 9.34016 10.8495 9.34016C11.8157 9.34016 12.2651 10.048 12.2651 10.9581C12.2651 11.9243 11.6247 13.3063 11.2989 14.6321C11.1079 15.7331 11.8831 16.6994 13.0067 16.6994C15.0066 16.6994 16.5571 14.5646 16.5571 11.5535C16.5571 8.85704 14.6246 7.01443 11.8494 7.01443C8.68102 7.01443 6.81594 9.37387 6.81594 11.8569C6.81594 12.8231 7.13053 13.8006 7.64736 14.441C7.74848 14.5085 7.74848 14.5983 7.71478 14.7669L7.38895 15.9915C7.38895 16.1825 7.26536 16.25 7.07436 16.1151C5.63622 15.4859 4.8048 13.4411 4.8048 11.7895C4.8048 8.23909 7.32153 5.01452 12.1752 5.01452C16.0402 5.01452 19.0513 7.78967 19.0513 11.4749C19.0513 15.3399 16.6582 18.4409 13.2314 18.4409C12.1415 18.4409 11.0742 17.8566 10.6922 17.1713L9.93939 19.8341C9.68098 20.8003 8.97314 22.0924 8.49002 22.8676V22.8339Z" fill="white"/>
</svg>
